<svg width="545" height="526" viewBox="0 0 545 526" fill="none" xmlns="http://www.w3.org/2000/svg">
<path d="M1 471.42H527.302" stroke="#022C40" stroke-linecap="round" stroke-linejoin="round"/>
<path d="M498.26 1H53.9626V255.59H498.26V1Z" fill="#275F7A"/>
<path opacity="0.6" d="M498.26 1H53.9626V255.59H498.26V1Z" fill="white"/>
<path d="M498.26 1H53.9626V255.59H498.26V1Z" stroke="#022C40" stroke-linecap="round" stroke-linejoin="round"/>
<path d="M498.26 1H53.9626V26.7793H498.26V1Z" fill="#022C40" stroke="#022C40" stroke-linecap="round" stroke-linejoin="round"/>
<path d="M290.576 7.81201H81.3209V19.9533H290.576V7.81201Z" fill="white" stroke="#022C40" stroke-linecap="round" stroke-linejoin="round"/>
<path d="M119.959 7.81201H81.3209V19.9533H119.959V7.81201Z" fill="#275F7A"/>
<path opacity="0.5" d="M119.959 7.81201H81.3209V19.9533H119.959V7.81201Z" fill="white" stroke="#022C40" stroke-linecap="round" stroke-linejoin="round"/>
<path d="M119.959 7.81201H81.3209V19.9533H119.959V7.81201Z" stroke="#022C40" stroke-linecap="round" stroke-linejoin="round"/>
<path d="M299.934 155.83H152.073V167.971H299.934V155.83Z" fill="white" stroke="#022C40" stroke-linecap="round" stroke-linejoin="round"/>
<path d="M492.957 180.882H376.79V193.023H492.957V180.882Z" fill="white" stroke="#022C40" stroke-linecap="round" stroke-linejoin="round"/>
<path d="M492.957 205.262H376.79V217.404H492.957V205.262Z" fill="white" stroke="#022C40" stroke-linecap="round" stroke-linejoin="round"/>
<path d="M492.957 229.643H376.79V241.784H492.957V229.643Z" fill="white" stroke="#022C40" stroke-linecap="round" stroke-linejoin="round"/>
<path d="M190.712 155.83H152.073V167.971H190.712V155.83Z" fill="#275F7A" stroke="#022C40" stroke-linecap="round" stroke-linejoin="round"/>
<path opacity="0.7" d="M361.329 180.882H152.073V241.784H361.329V180.882Z" fill="white"/>
<path d="M492.522 35.8853H152.073V55.6499H492.522V35.8853Z" fill="white" stroke="#022C40" stroke-linecap="round" stroke-linejoin="round"/>
<path opacity="0.5" d="M492.522 64.7419H152.073V142.905H492.522V64.7419Z" fill="white"/>
<path d="M214.941 35.8853H152.073V55.6499H214.941V35.8853Z" fill="#275F7A" stroke="#022C40" stroke-linecap="round" stroke-linejoin="round"/>
<path d="M198.765 71.3301H156.633V84.5764H198.765V71.3301Z" fill="#275F7A" stroke="#022C40" stroke-linecap="round" stroke-linejoin="round"/>
<path d="M418.921 161.341H376.79V174.587H418.921V161.341Z" fill="#275F7A" stroke="#022C40" stroke-linecap="round" stroke-linejoin="round"/>
<path d="M107.767 126.484H65.6356V139.73H107.767V126.484Z" fill="#275F7A" stroke="#022C40" stroke-linecap="round" stroke-linejoin="round"/>
<path d="M421.924 90.9128H156.633V97.529H421.924V90.9128Z" fill="white" stroke="#022C40" stroke-linecap="round" stroke-linejoin="round"/>
<path d="M96.0663 145.87H66.1266V152.487H96.0663V145.87Z" fill="white" stroke="#022C40" stroke-linecap="round" stroke-linejoin="round"/>
<path d="M107.767 164.698H65.6356V177.944H107.767V164.698Z" fill="#275F7A" stroke="#022C40" stroke-linecap="round" stroke-linejoin="round"/>
<path d="M103.67 184.085H66.1266V190.701H103.67V184.085Z" fill="white" stroke="#022C40" stroke-linecap="round" stroke-linejoin="round"/>
<path d="M99.1108 196.856H66.1266V203.472H99.1108V196.856Z" fill="white" stroke="#022C40" stroke-linecap="round" stroke-linejoin="round"/>
<path d="M91.4926 209.626H66.1266V216.243H91.4926V209.626Z" fill="white" stroke="#022C40" stroke-linecap="round" stroke-linejoin="round"/>
<path d="M103.67 222.397H66.1266V229.013H103.67V222.397Z" fill="white" stroke="#022C40" stroke-linecap="round" stroke-linejoin="round"/>
<path d="M96.0663 235.154H66.1266V241.77H96.0663V235.154Z" fill="white" stroke="#022C40" stroke-linecap="round" stroke-linejoin="round"/>
<path d="M443.235 103.865H156.633V110.482H443.235V103.865Z" fill="white" stroke="#022C40" stroke-linecap="round" stroke-linejoin="round"/>
<path d="M410.77 116.832H156.633V123.448H410.77V116.832Z" fill="white" stroke="#022C40" stroke-linecap="round" stroke-linejoin="round"/>
<path d="M436.136 129.785H156.633V136.401H436.136V129.785Z" fill="white" stroke="#022C40" stroke-linecap="round" stroke-linejoin="round"/>
<path d="M492.522 7.81201H480.344V19.9533H492.522V7.81201Z" fill="#275F7A" stroke="#022C40" stroke-linecap="round" stroke-linejoin="round"/>
<path d="M462.484 7.81201H450.306V19.9533H462.484V7.81201Z" fill="#275F7A"/>
<path opacity="0.6" d="M462.484 7.81201H450.306V19.9533H462.484V7.81201Z" fill="white"/>
<path d="M462.484 7.81201H450.306V19.9533H462.484V7.81201Z" stroke="#022C40" stroke-linecap="round" stroke-linejoin="round"/>
<path d="M477.496 7.81201H465.318V19.9533H477.496V7.81201Z" fill="#275F7A"/>
<path opacity="0.4" d="M477.496 7.81201H465.318V19.9533H477.496V7.81201Z" fill="white"/>
<path d="M477.496 7.81201H465.318V19.9533H477.496V7.81201Z" stroke="#022C40" stroke-linecap="round" stroke-linejoin="round"/>
<path d="M144.371 35.8853H65.6356V114.384H144.371V35.8853Z" fill="white"/>
<path d="M102.506 47.4112C102.506 47.4112 88.8269 46.9076 90.6087 50.978C92.3905 55.0484 81.9242 55.9576 84.4496 60.4057C86.975 64.8538 79.6935 70.8825 83.3693 73.2324C87.0451 75.5824 85.3475 80.0165 83.5938 82.3524C81.8401 84.6884 86.3998 87.7237 90.0054 87.6817C93.6111 87.6398 88.6024 91.878 90.0054 92.8991C91.4084 93.9202 93.4427 90.3114 96.1224 91.0667C98.8021 91.8221 104.877 89.5001 106.533 90.1435C108.188 90.787 129.92 92.0599 130.117 90.5912C130.313 89.1224 128.11 88.8707 128.573 87.4299C129.036 85.9892 132.6 87.4299 133.33 84.3387C134.059 81.2474 131.267 79.8066 131.688 76.7993C132.109 73.7919 134.368 75.1348 134.873 71.0224C135.378 66.91 129.401 65.6371 129.261 63.539C129.121 61.4408 134.971 62.1402 133.259 58.1957C131.548 54.2511 125.305 54.8946 123.93 52.6006C122.555 50.3066 127.676 50.5584 124.365 47.4391C121.053 44.3199 107.823 42.3476 102.506 47.4112Z" fill="#022C40" stroke="#022C40" stroke-linecap="round" stroke-linejoin="round"/>
<path d="M87.8869 80.1843C86.3016 83.5414 89.2899 84.1289 91.9836 85.0381C94.6774 85.9473 93.1201 89.9058 93.1201 89.9058" stroke="#7F7F7F" stroke-width="0.75" stroke-linecap="round" stroke-linejoin="round"/>
<path d="M86.4419 72.8967C87.8189 74.5269 88.4945 76.6333 88.3219 78.7576" stroke="#7F7F7F" stroke-width="0.75" stroke-linecap="round" stroke-linejoin="round"/>
<path d="M87.2415 62.35C87.003 65.5392 83.8603 70.1411 85.2774 71.5679" stroke="#7F7F7F" stroke-width="0.75" stroke-linecap="round" stroke-linejoin="round"/>
<path d="M92.3063 54.8525C92.3063 54.8525 85.2213 57.6501 86.9048 60.4476" stroke="#7F7F7F" stroke-width="0.75" stroke-linecap="round" stroke-linejoin="round"/>
<path d="M92.5448 51.6074C92.9098 52.3068 93.9486 52.3628 93.9486 53.3559" stroke="#7F7F7F" stroke-width="0.75" stroke-linecap="round" stroke-linejoin="round"/>
<path d="M101.44 48.9638C101.44 48.9638 92.8535 48.8799 92.4747 50.6283" stroke="#7F7F7F" stroke-width="0.75" stroke-linecap="round" stroke-linejoin="round"/>
<path d="M131.632 70.0571C130.959 71.9595 127.086 75.6522 128.601 78.9533C130.117 82.2544 131.225 83.4993 128.447 84.2966" stroke="#7F7F7F" stroke-width="0.75" stroke-linecap="round" stroke-linejoin="round"/>
<path d="M129.079 59.021C128.503 61.0772 125.094 60.7974 125.529 64.3083C125.824 66.7982 129.079 67.6794 130.734 68.6585" stroke="#7F7F7F" stroke-width="0.75" stroke-linecap="round" stroke-linejoin="round"/>
<path d="M121.334 51.6355C121.334 54.2512 118.837 54.6149 122.302 56.5732C123.824 57.426 125.537 57.883 127.283 57.902" stroke="#7F7F7F" stroke-width="0.75" stroke-linecap="round" stroke-linejoin="round"/>
<path d="M104.077 49.2575C104.077 49.2575 119.117 45.0612 120.913 49.6072" stroke="#7F7F7F" stroke-width="0.75" stroke-linecap="round" stroke-linejoin="round"/>
<path d="M124.968 84.3806C124.294 86.2829 126.372 88.9266 126.372 88.9266" stroke="#7F7F7F" stroke-width="0.75" stroke-linecap="round" stroke-linejoin="round"/>
<path d="M122.947 60.7834C123.242 63.0495 121.011 63.9167 121.545 66.3785C122.078 68.8404 126.399 68.3088 126.609 70.1552C126.82 72.0016 123.172 74.0438 124.014 77.7225C124.449 79.5549 124.856 80.7579 125.08 81.751" stroke="#7F7F7F" stroke-width="0.75" stroke-linecap="round" stroke-linejoin="round"/>
<path d="M117.364 56.7549C117.883 58.937 119.819 59.1048 121.264 59.4685" stroke="#7F7F7F" stroke-width="0.75" stroke-linecap="round" stroke-linejoin="round"/>
<path d="M118.262 52.6704C118.107 53.421 117.848 54.1462 117.49 54.8245" stroke="#7F7F7F" stroke-width="0.75" stroke-linecap="round" stroke-linejoin="round"/>
<path d="M102.071 51.0479C102.071 51.0479 116.802 47.2153 118.023 50.8381" stroke="#7F7F7F" stroke-width="0.75" stroke-linecap="round" stroke-linejoin="round"/>
<path d="M119.3 76.8691C119.623 78.2679 121.111 79.303 121.068 81.2193C120.998 83.793 119.903 85.5275 121.068 87.8635" stroke="#7F7F7F" stroke-width="0.75" stroke-linecap="round" stroke-linejoin="round"/>
<path d="M113.59 57.3984C113.764 58.431 114.149 59.4169 114.721 60.2951C115.293 61.1733 116.04 61.9251 116.915 62.5039C119.103 64.0286 118.416 67.036 119.721 69.0502C121.025 71.0644 120.478 73.2465 119.44 75.4146" stroke="#7F7F7F" stroke-width="0.75" stroke-linecap="round" stroke-linejoin="round"/>
<path d="M99.4334 52.7545C99.4334 52.7545 112.65 51.7894 113.225 55.5521" stroke="#7F7F7F" stroke-width="0.75" stroke-linecap="round" stroke-linejoin="round"/>
<path d="M95.7436 51.9983C95.7436 51.9983 96.3609 50.1113 99.5878 51.3833" stroke="#7F7F7F" stroke-width="0.75" stroke-linecap="round" stroke-linejoin="round"/>
<path d="M87.2275 96.8296C92.5588 95.319 100.317 92.7452 109.675 92.7452C115.694 92.7452 121.025 94.5217 125.725 95.6407C130.734 96.8436 137.44 97.1514 134.438 114.272H81.1245C81.1245 114.272 79.3567 99.0397 87.2275 96.8296Z" fill="#275F7A" stroke="#022C40" stroke-linecap="round" stroke-linejoin="round"/>
<path d="M114.67 89.0385L111.864 77.7224L104.147 80.0444L101.833 89.2203C101.613 90.1026 101.201 90.9259 100.626 91.6317C100.052 92.3376 99.3283 92.9088 98.5075 93.3047C97.3464 93.8365 96.2419 94.4831 95.2105 95.235C95.2105 95.235 104.372 107.698 121.951 95.235C120.785 94.3911 119.523 93.6868 118.191 93.1369C117.326 92.7725 116.557 92.2126 115.946 91.5014C115.335 90.7901 114.898 89.9469 114.67 89.0385Z" fill="white" stroke="#022C40" stroke-linecap="round" stroke-linejoin="round"/>
<path d="M90.6648 60.9512L89.6547 67.6513C89.555 68.3592 89.6125 69.0802 89.823 69.7635L90.4123 71.6098L90.0615 75.974C90.0475 76.2022 90.0475 76.4311 90.0615 76.6594C90.2159 78.8974 91.2962 90.787 97.778 91.2905C103.53 91.7241 109.254 84.6324 111.289 81.8208C111.791 81.1209 112.157 80.3333 112.369 79.4989L113.239 76.0859C114.057 76.0811 114.853 75.8189 115.513 75.3366C116.173 74.8544 116.664 74.1767 116.915 73.4003C117.785 70.6027 119.23 68.8683 116.438 67.5114C113.646 66.1546 112.65 70.0013 112.65 70.0013C112.369 68.0133 111.87 66.062 111.162 64.1824C110.489 63.0494 108.02 61.6646 107.29 60.5596C106.883 59.6856 106.555 58.7775 106.308 57.8459C106.308 57.8459 97.8902 59.4685 91.3663 58.1677L90.6648 60.9512Z" fill="white" stroke="#022C40" stroke-linecap="round" stroke-linejoin="round"/>
<path d="M94.5511 72.6729L92.2502 78.2679C92.1768 78.4497 92.1474 78.6461 92.1645 78.8413C92.1816 79.0365 92.2447 79.2249 92.3486 79.3912C92.4525 79.5574 92.5943 79.6969 92.7625 79.7983C92.9307 79.8996 93.1205 79.96 93.3164 79.9744L96.1224 80.1563" stroke="#022C40" stroke-linecap="round" stroke-linejoin="round"/>
<path d="M103.165 81.1355C101.328 84.2408 99.0968 83.5833 97.7359 82.7161" stroke="#022C40" stroke-linecap="round" stroke-linejoin="round"/>
<path d="M98.0304 72.0014C98.0304 72.9526 98.3954 73.7219 98.8306 73.7219C99.2657 73.7219 99.6448 72.9526 99.6448 72.0014C99.6448 71.0503 99.2798 70.267 98.8306 70.267C98.3814 70.267 98.0304 71.0503 98.0304 72.0014Z" fill="#022C40"/>
<path d="M91.2961 72.0014C91.2961 72.9526 91.6611 73.7219 92.0963 73.7219C92.5315 73.7219 92.9105 72.9526 92.9105 72.0014C92.9105 71.0503 92.5455 70.267 92.0963 70.267C91.6471 70.267 91.2961 71.0503 91.2961 72.0014Z" fill="#022C40"/>
<path d="M97.7359 68.1967C98.6816 67.898 99.7027 67.9419 100.619 68.3206C101.535 68.6994 102.288 69.3887 102.745 70.2669" stroke="#022C40" stroke-linecap="round" stroke-linejoin="round"/>
<path d="M93.569 67.945C93.569 67.945 91.0717 66.5462 89.823 69.7494" stroke="#022C40" stroke-linecap="round" stroke-linejoin="round"/>
<path d="M90.8753 56.5031C90.8753 56.5031 92.9657 64.2663 96.7117 65.1615C100.458 66.0567 103.137 66.6442 103.895 69.9313C104.653 73.2184 108.988 73.8059 110.784 76.1978C112.579 78.5897 109.381 88.3391 113.323 89.7379C112.792 87.5311 112.792 85.2305 113.323 83.0238C114.221 79.4849 116.536 76.0299 114.852 69.7774C113.169 63.5249 105.691 56.5031 105.691 56.5031L98.1568 55.6079L90.8753 56.5031Z" fill="#022C40" stroke="#022C40" stroke-linecap="round" stroke-linejoin="round"/>
<path d="M94.2564 57.8459C95.0842 59.1071 96.1716 60.1784 97.4463 60.9887C98.721 61.799 100.154 62.3298 101.65 62.5458C106.813 63.3431 106.813 69.106 109.212 70.7006C111.611 72.2952 114.431 72.6729 113 80.0864" stroke="#7F7F7F" stroke-width="0.75" stroke-linecap="round" stroke-linejoin="round"/>
<path d="M456.521 485.646C456.864 485.648 457.195 485.526 457.454 485.302C457.712 485.078 457.88 484.767 457.924 484.429C457.994 483.995 464.448 440.074 470.004 380.85C472.88 350.203 480.175 328.746 485.787 316.157C491.862 302.505 497.334 296.014 497.39 295.944C497.634 295.659 497.754 295.288 497.723 294.915C497.693 294.541 497.515 294.194 497.229 293.951C496.942 293.708 496.571 293.589 496.196 293.619C495.821 293.649 495.473 293.826 495.229 294.112C494.303 295.189 472.782 320.954 467.17 380.584C461.558 439.724 455.174 483.589 455.104 484.023C455.074 484.208 455.082 484.397 455.127 484.579C455.172 484.761 455.253 484.932 455.366 485.082C455.478 485.232 455.62 485.358 455.782 485.452C455.945 485.547 456.124 485.608 456.311 485.632L456.521 485.646Z" fill="#275F7A" stroke="#022C40" stroke-linecap="round" stroke-linejoin="round"/>
<path d="M473.708 452.355H473.455C473.225 452.322 473.003 452.245 472.803 452.126C472.602 452.008 472.427 451.852 472.288 451.666C472.148 451.48 472.047 451.268 471.99 451.043C471.932 450.818 471.92 450.584 471.954 450.355C471.954 450.033 476.612 418.672 480.582 376.402C484.595 333.501 500.224 314.856 500.813 314.114C501.129 313.796 501.554 313.609 502.003 313.589C502.452 313.57 502.891 313.72 503.234 314.01C503.576 314.3 503.796 314.709 503.849 315.153C503.902 315.598 503.785 316.046 503.521 316.408C503.367 316.59 488.018 335.068 484.104 376.723C480.133 419.106 475.518 450.55 475.461 450.858C475.398 451.276 475.185 451.657 474.863 451.931C474.542 452.206 474.131 452.356 473.708 452.355Z" fill="#275F7A" stroke="#022C40" stroke-linecap="round" stroke-linejoin="round"/>
<path d="M525.73 283.355C526.324 283.281 526.925 283.434 527.41 283.785C527.894 284.136 528.227 284.657 528.34 285.244C530.697 297.119 540.826 354.273 517.116 346.79C497.39 340.523 498.681 326.144 500.631 319.192C500.725 318.869 500.724 318.526 500.63 318.203C500.536 317.88 500.352 317.59 500.099 317.368C499.846 317.145 499.535 316.998 499.202 316.945C498.869 316.892 498.528 316.933 498.218 317.066C490.529 320.227 473.792 325.221 471.94 309.554C469.779 291.468 515.152 284.754 525.73 283.355Z" fill="#275F7A"/>
<path opacity="0.2" d="M504.223 310.338C499.326 311.065 483.444 313.667 484.455 308.939C485.465 304.211 505.752 307.54 506.776 305.666C507.8 303.792 496.885 298.756 498.653 295.875C500.42 292.993 508.796 303.414 510.578 302.281C512.36 301.148 518.182 287.3 521.479 290.433C524.776 293.567 513.623 302.463 513.875 305.596C514.128 308.729 524.776 307.974 526.039 311.387C527.302 314.8 513.623 308.212 512.865 310.24C512.107 312.268 526.558 329.207 521.984 331.739C517.411 334.271 508.432 309.722 504.223 310.338Z" fill="black"/>
<path d="M535.537 212.83C536.369 212.722 537.21 212.933 537.89 213.422C538.57 213.91 539.038 214.639 539.199 215.459C542.468 232.063 556.638 311.974 523.429 301.428C495.861 292.685 497.671 272.571 500.406 262.864C500.532 262.412 500.527 261.934 500.393 261.484C500.259 261.035 500.001 260.632 499.649 260.322C499.296 260.011 498.864 259.806 498.4 259.728C497.936 259.651 497.46 259.705 497.025 259.884C486.264 264.318 462.877 271.284 460.295 249.393C457.321 224.174 520.75 214.69 535.537 212.83Z" fill="#275F7A"/>
<path opacity="0.7" d="M496.604 255.94C489.898 256.583 469.078 254.471 471.94 245.113C474.802 235.755 498.162 248.652 501.95 246.12C505.738 243.589 496.071 229.909 502.16 227.279C508.249 224.649 509.54 239.868 511.813 239.742C514.086 239.616 525.001 220.159 529.575 222.607C534.148 225.055 518.351 240.567 517.397 245.113C516.443 249.659 535.397 245.617 536.674 249.925C537.95 254.233 516.639 250.61 515.629 253.674C514.619 256.737 535.158 273.942 529.841 281.271C524.524 288.601 512.472 254.429 496.604 255.94Z" fill="white"/>
<path d="M470.256 448.774C469.874 448.772 469.507 448.627 469.226 448.368C468.946 448.109 468.773 447.755 468.741 447.375C466.791 430.59 465.009 413.511 463.452 396.768C457.994 338.663 436.585 313.037 436.374 312.842C436.221 312.694 436.101 312.516 436.021 312.319C435.941 312.122 435.903 311.911 435.91 311.699C435.917 311.487 435.968 311.279 436.06 311.087C436.152 310.896 436.283 310.726 436.445 310.588C436.607 310.45 436.796 310.347 437 310.286C437.204 310.225 437.418 310.208 437.63 310.234C437.841 310.261 438.044 310.331 438.227 310.44C438.409 310.55 438.567 310.696 438.689 310.869C439.587 311.932 460.941 337.446 466.482 396.544C468.04 413.259 469.821 430.254 471.772 447.082C471.793 447.284 471.773 447.489 471.714 447.684C471.654 447.879 471.556 448.06 471.425 448.216C471.295 448.372 471.134 448.501 470.952 448.595C470.771 448.688 470.572 448.744 470.369 448.76L470.256 448.774Z" fill="#275F7A" stroke="#022C40" stroke-linecap="round" stroke-linejoin="round"/>
<path d="M395.926 293.147C395.275 293.382 394.734 293.85 394.407 294.459C394.081 295.069 393.992 295.777 394.158 296.448C397.792 310.072 416.508 374.989 437.483 355.001C454.894 338.411 446.167 324.032 440.569 317.765C440.309 317.475 440.135 317.118 440.067 316.735C440 316.351 440.042 315.957 440.188 315.595C440.334 315.234 440.578 314.921 440.894 314.692C441.209 314.462 441.583 314.325 441.972 314.296C451.639 313.695 471.687 310.38 465.584 293.063C458.597 273.173 407.669 289.202 395.926 293.147Z" fill="#275F7A"/>
<path opacity="0.5" d="M432.951 321.122C433.4 327.473 435.224 346.776 430.412 344.762C425.599 342.747 428.377 322.255 425.333 319.472C422.288 316.688 415.961 334.145 413.421 329.333C410.882 324.521 419.51 316.898 419.258 313.513C419.005 310.128 403.825 301.777 405.046 298.742C406.266 295.707 420.268 306.072 421.783 303.554C423.298 301.036 425.08 289.384 428.896 290.657C432.712 291.93 428.896 302.533 430.412 304.057C431.927 305.582 447.654 289.384 450.194 297.483C452.649 305.302 431.366 298.868 432.951 321.122Z" fill="white"/>
<path d="M483.823 489.338H461.768C457.637 489.337 453.665 487.754 450.67 484.917C447.676 482.08 445.888 478.205 445.676 474.092L443.417 430.73H502.16L499.915 474.092C499.703 478.205 497.916 482.08 494.921 484.917C491.927 487.754 487.954 489.337 483.823 489.338Z" fill="#022C40" stroke="#022C40" stroke-linecap="round" stroke-linejoin="round"/>
<path d="M456.521 485.646C456.864 485.648 457.195 485.526 457.454 485.302C457.712 485.078 457.88 484.767 457.924 484.429C457.994 483.995 464.448 440.074 470.004 380.85C472.88 350.203 480.175 328.746 485.787 316.157C491.862 302.505 497.334 296.014 497.39 295.944C497.634 295.659 497.754 295.288 497.723 294.915C497.693 294.541 497.515 294.194 497.229 293.951C496.942 293.708 496.571 293.589 496.196 293.619C495.821 293.649 495.473 293.826 495.229 294.112C494.303 295.189 472.782 320.954 467.17 380.584C461.558 439.724 455.174 483.589 455.104 484.023C455.074 484.208 455.082 484.397 455.127 484.579C455.172 484.761 455.253 484.932 455.366 485.082C455.478 485.232 455.62 485.358 455.782 485.452C455.945 485.547 456.124 485.608 456.311 485.632L456.521 485.646Z" fill="#275F7A" stroke="#022C40" stroke-linecap="round" stroke-linejoin="round"/>
<path d="M473.708 452.355H473.455C473.225 452.322 473.003 452.245 472.803 452.126C472.602 452.008 472.427 451.852 472.288 451.666C472.148 451.48 472.047 451.268 471.99 451.043C471.932 450.818 471.92 450.584 471.954 450.355C471.954 450.033 476.612 418.672 480.582 376.402C484.595 333.501 500.224 314.856 500.813 314.114C501.129 313.796 501.554 313.609 502.003 313.589C502.452 313.57 502.891 313.72 503.234 314.01C503.576 314.3 503.796 314.709 503.849 315.153C503.902 315.598 503.785 316.046 503.521 316.408C503.367 316.59 488.018 335.068 484.104 376.723C480.133 419.106 475.518 450.55 475.461 450.858C475.398 451.276 475.185 451.657 474.863 451.931C474.542 452.206 474.131 452.356 473.708 452.355Z" fill="#275F7A" stroke="#022C40" stroke-linecap="round" stroke-linejoin="round"/>
<path d="M525.73 283.355C526.324 283.281 526.925 283.434 527.41 283.785C527.894 284.136 528.227 284.657 528.34 285.244C530.697 297.119 540.826 354.273 517.116 346.79C497.39 340.523 498.681 326.144 500.631 319.192C500.725 318.869 500.724 318.526 500.63 318.203C500.536 317.88 500.352 317.59 500.099 317.368C499.846 317.145 499.535 316.998 499.202 316.945C498.869 316.892 498.528 316.933 498.218 317.066C490.529 320.227 473.792 325.221 471.94 309.554C469.779 291.468 515.152 284.754 525.73 283.355Z" fill="#275F7A"/>
<path opacity="0.2" d="M504.223 310.338C499.326 311.065 483.444 313.667 484.455 308.939C485.465 304.211 505.752 307.54 506.776 305.666C507.8 303.792 496.885 298.756 498.653 295.875C500.42 292.993 508.796 303.414 510.578 302.281C512.36 301.148 518.182 287.3 521.479 290.433C524.776 293.567 513.623 302.463 513.875 305.596C514.128 308.729 524.776 307.974 526.039 311.387C527.302 314.8 513.623 308.212 512.865 310.24C512.107 312.268 526.558 329.207 521.984 331.739C517.411 334.271 508.432 309.722 504.223 310.338Z" fill="black"/>
<path d="M535.537 212.83C536.369 212.722 537.21 212.933 537.89 213.422C538.57 213.91 539.038 214.639 539.199 215.459C542.468 232.063 556.638 311.974 523.429 301.428C495.861 292.685 497.671 272.571 500.406 262.864C500.532 262.412 500.527 261.934 500.393 261.484C500.259 261.035 500.001 260.632 499.649 260.322C499.296 260.011 498.864 259.806 498.4 259.728C497.936 259.651 497.46 259.705 497.025 259.884C486.264 264.318 462.877 271.284 460.295 249.393C457.321 224.174 520.75 214.69 535.537 212.83Z" fill="#275F7A"/>
<path opacity="0.7" d="M496.604 255.94C489.898 256.583 469.078 254.471 471.94 245.113C474.802 235.755 498.162 248.652 501.95 246.12C505.738 243.589 496.071 229.909 502.16 227.279C508.249 224.649 509.54 239.868 511.813 239.742C514.086 239.616 525.001 220.159 529.575 222.607C534.148 225.055 518.351 240.567 517.397 245.113C516.443 249.659 535.397 245.617 536.674 249.925C537.95 254.233 516.639 250.61 515.629 253.674C514.619 256.737 535.158 273.942 529.841 281.271C524.524 288.601 512.472 254.429 496.604 255.94Z" fill="white"/>
<path d="M470.256 448.774C469.874 448.772 469.507 448.627 469.226 448.368C468.946 448.109 468.773 447.755 468.741 447.375C466.791 430.59 465.009 413.511 463.452 396.768C457.994 338.663 436.585 313.037 436.374 312.842C436.221 312.694 436.101 312.516 436.021 312.319C435.941 312.122 435.903 311.911 435.91 311.699C435.917 311.487 435.968 311.279 436.06 311.087C436.152 310.896 436.283 310.726 436.445 310.588C436.607 310.45 436.796 310.347 437 310.286C437.204 310.225 437.418 310.208 437.63 310.234C437.841 310.261 438.044 310.331 438.227 310.44C438.409 310.55 438.567 310.696 438.689 310.869C439.587 311.932 460.941 337.446 466.482 396.544C468.04 413.259 469.821 430.254 471.772 447.082C471.793 447.284 471.773 447.489 471.714 447.684C471.654 447.879 471.556 448.06 471.425 448.216C471.295 448.372 471.134 448.501 470.952 448.595C470.771 448.688 470.572 448.744 470.369 448.76L470.256 448.774Z" fill="#275F7A" stroke="#022C40" stroke-linecap="round" stroke-linejoin="round"/>
<path d="M395.926 293.147C395.275 293.382 394.734 293.85 394.407 294.459C394.081 295.069 393.992 295.777 394.158 296.448C397.792 310.072 416.508 374.989 437.483 355.001C454.894 338.411 446.167 324.032 440.569 317.765C440.309 317.475 440.135 317.118 440.067 316.735C440 316.351 440.042 315.957 440.188 315.595C440.334 315.234 440.578 314.921 440.894 314.692C441.209 314.462 441.583 314.325 441.972 314.296C451.639 313.695 471.687 310.38 465.584 293.063C458.597 273.173 407.669 289.202 395.926 293.147Z" fill="#275F7A"/>
<path opacity="0.5" d="M432.951 321.122C433.4 327.473 435.224 346.776 430.412 344.762C425.599 342.747 428.377 322.255 425.333 319.472C422.288 316.688 415.961 334.145 413.421 329.333C410.882 324.521 419.51 316.898 419.258 313.513C419.005 310.128 403.825 301.777 405.046 298.742C406.266 295.707 420.268 306.072 421.783 303.554C423.298 301.036 425.08 289.384 428.896 290.657C432.712 291.93 428.896 302.533 430.412 304.057C431.927 305.582 447.654 289.384 450.194 297.483C452.649 305.302 431.366 298.868 432.951 321.122Z" fill="white"/>
<path d="M483.823 489.338H461.768C457.637 489.337 453.665 487.754 450.67 484.917C447.676 482.08 445.888 478.205 445.676 474.092L443.417 430.73H502.16L499.915 474.092C499.703 478.205 497.916 482.08 494.921 484.917C491.927 487.754 487.954 489.337 483.823 489.338Z" fill="#022C40" stroke="#022C40" stroke-linecap="round" stroke-linejoin="round"/>
<path d="M205.261 523.608H221.9L221.9 397.397H205.261V523.608Z" fill="white"/>
<path opacity="0.2" d="M198.694 514.572H211.812L211.812 396.236H198.694V514.572Z" fill="black"/>
<path d="M205.261 523.608H221.9L221.9 397.397H205.261V523.608Z" stroke="#022C40" stroke-linecap="round" stroke-linejoin="round"/>
<path d="M167.071 508.851H260.103C263.352 508.851 266.467 510.138 268.764 512.428C271.061 514.718 272.351 517.824 272.351 521.062V523.608H154.879V521.062C154.879 517.833 156.162 514.736 158.447 512.447C160.732 510.159 163.833 508.866 167.071 508.851Z" fill="white"/>
<path opacity="0.2" d="M170.649 512.46H256.512C259.497 512.456 262.363 513.631 264.482 515.728C266.601 517.825 267.801 520.674 267.82 523.65V526H159.341V523.65C159.359 520.674 160.559 517.825 162.678 515.728C164.798 513.631 167.663 512.456 170.649 512.46Z" fill="black"/>
<path d="M167.071 508.851H260.103C263.352 508.851 266.467 510.138 268.764 512.428C271.061 514.718 272.351 517.824 272.351 521.062V523.608H154.879V521.062C154.879 517.833 156.162 514.736 158.447 512.447C160.732 510.159 163.833 508.866 167.071 508.851V508.851Z" stroke="#022C40" stroke-linecap="round" stroke-linejoin="round"/>
<path d="M209.82 523.608H217.34V512.6C217.34 511.606 216.944 510.652 216.239 509.949C215.534 509.246 214.577 508.851 213.58 508.851C212.583 508.851 211.627 509.246 210.922 509.949C210.216 510.652 209.82 511.606 209.82 512.6V523.608Z" fill="white" stroke="#022C40" stroke-linecap="round" stroke-linejoin="round"/>
<path d="M203.661 398.81H213.58H223.499V379.031H203.661V398.81Z" fill="white" stroke="#022C40" stroke-linecap="round" stroke-linejoin="round"/>
<path d="M155.497 378.71H172.136V334.299H155.497V378.71Z" fill="white"/>
<path opacity="0.2" d="M148.355 383.325H161.473V337.935H148.355V383.325Z" fill="black"/>
<path d="M155.497 378.71H172.136V334.299H155.497V378.71Z" stroke="#022C40" stroke-linecap="round" stroke-linejoin="round"/>
<path d="M148.692 386.375C191.778 391.76 235.369 391.76 278.454 386.375C279.304 386.266 280.123 385.991 280.866 385.566C281.609 385.14 282.259 384.572 282.781 383.895C283.302 383.218 283.685 382.444 283.905 381.619C284.126 380.794 284.18 379.934 284.066 379.087L283.014 372.401C282.734 370.728 281.808 369.231 280.433 368.232C279.058 367.233 277.345 366.811 275.662 367.058C234.404 372.149 192.673 372.149 151.414 367.058C149.731 366.811 148.018 367.233 146.643 368.232C145.269 369.231 144.342 370.728 144.062 372.401L143.01 379.087C142.896 379.939 142.954 380.804 143.179 381.634C143.404 382.463 143.792 383.239 144.32 383.917C144.849 384.596 145.508 385.162 146.259 385.584C147.009 386.006 147.836 386.275 148.692 386.375Z" fill="#022C40"/>
<path opacity="0.2" d="M151.456 367.058C192.715 372.149 234.446 372.149 275.704 367.058C277.388 366.811 279.101 367.233 280.475 368.232C281.85 369.231 282.777 370.728 283.056 372.401C283.393 374.527 283.589 375.814 283.87 377.591C241.009 379.951 198.021 378.467 155.427 373.156C153.813 372.944 152.286 372.305 151.004 371.307C149.721 370.308 148.729 368.986 148.131 367.477C149.183 367.048 150.33 366.903 151.456 367.058Z" fill="black"/>
<path d="M148.692 386.375C191.778 391.76 235.369 391.76 278.454 386.375C279.304 386.266 280.123 385.991 280.866 385.566C281.609 385.14 282.259 384.572 282.781 383.895C283.302 383.218 283.685 382.444 283.905 381.619C284.126 380.794 284.18 379.934 284.066 379.087L283.014 372.401C282.734 370.728 281.808 369.231 280.433 368.232C279.058 367.233 277.345 366.811 275.662 367.058C234.404 372.149 192.673 372.149 151.414 367.058C149.731 366.811 148.018 367.233 146.643 368.232C145.269 369.231 144.342 370.728 144.062 372.401L143.01 379.087C142.896 379.939 142.954 380.804 143.179 381.634C143.404 382.463 143.792 383.239 144.32 383.917C144.849 384.596 145.508 385.162 146.259 385.584C147.009 386.006 147.836 386.275 148.692 386.375V386.375Z" stroke="#022C40" stroke-linecap="round" stroke-linejoin="round"/>
<path d="M149.085 346.202L187.372 340.705C197.095 339.306 203.521 330.746 202.006 321.836C198.187 299.431 197.001 276.66 198.47 253.981C198.667 249.75 197.253 245.601 194.511 242.366C191.768 239.131 187.9 237.049 183.683 236.539L151.849 231.993C142.701 230.692 133.764 237.588 132.207 247.645C127.991 274.568 126.997 301.896 129.247 329.053C130.131 339.768 139.446 347.573 149.085 346.202Z" fill="#022C40"/>
<path opacity="0.2" d="M148.847 256.359C150.404 246.274 159.327 239.392 168.488 240.707L196.211 244.666C197.9 247.443 198.693 250.67 198.484 253.912C197.007 276.622 198.194 299.427 202.02 321.864C203.535 330.774 197.109 339.334 187.387 340.733L149.099 346.202H148.622C147.078 343.627 146.151 340.731 145.914 337.74C143.649 310.593 144.634 283.274 148.847 256.359Z" fill="black"/>
<path d="M149.085 346.202L187.372 340.705C197.095 339.306 203.521 330.746 202.006 321.836C198.187 299.431 197.001 276.66 198.47 253.981C198.667 249.75 197.253 245.601 194.511 242.366C191.768 239.131 187.9 237.049 183.683 236.539L151.849 231.993C142.701 230.692 133.764 237.588 132.207 247.645C127.991 274.568 126.997 301.896 129.247 329.053C130.131 339.768 139.446 347.573 149.085 346.202Z" stroke="#022C40" stroke-linecap="round" stroke-linejoin="round"/>
<path d="M321.947 452.341V471.504L346.471 496.164C346.471 496.164 358.438 501.983 359.449 507.215C360.459 512.446 354.763 516.404 340.564 512.446C326.366 508.487 324.416 503.704 319.071 501.382C313.725 499.06 298.966 497.409 299.611 490.513C300.257 483.617 307.075 473.182 307.075 473.182L306.219 457.964L321.947 452.341Z" fill="white" stroke="#022C40" stroke-linecap="round" stroke-linejoin="round"/>
<path d="M305.602 475.532C308.015 477.616 308.983 481.897 308.983 481.897C308.983 481.897 321.414 488.331 321.61 483.016C321.764 479.421 325.328 477.896 327.601 477.281L346.387 496.164C346.387 496.164 358.354 501.983 359.364 507.214C360.375 512.446 354.678 516.404 340.48 512.446C326.282 508.487 324.332 503.703 318.987 501.381C313.641 499.059 298.882 497.409 299.527 490.513C300.032 485.631 303.596 479.001 305.602 475.532Z" fill="#275F7A"/>
<path opacity="0.3" d="M305.602 475.532C308.015 477.616 308.983 481.897 308.983 481.897C308.983 481.897 321.414 488.331 321.61 483.016C321.764 479.421 325.328 477.896 327.601 477.281L346.387 496.164C346.387 496.164 358.354 501.983 359.364 507.214C360.375 512.446 354.678 516.404 340.48 512.446C326.282 508.487 324.332 503.703 318.987 501.381C313.641 499.059 298.882 497.409 299.527 490.513C300.032 485.631 303.596 479.001 305.602 475.532Z" fill="black"/>
<path d="M305.602 475.532C308.015 477.616 308.983 481.897 308.983 481.897C308.983 481.897 321.414 488.331 321.61 483.016C321.764 479.421 325.328 477.896 327.601 477.281L346.387 496.164C346.387 496.164 358.354 501.983 359.364 507.214C360.375 512.446 354.678 516.404 340.48 512.446C326.282 508.487 324.332 503.703 318.987 501.381C313.641 499.059 298.882 497.409 299.527 490.513C300.032 485.631 303.596 479.001 305.602 475.532Z" stroke="#022C40" stroke-linecap="round" stroke-linejoin="round"/>
<path d="M299.569 490.513C299.569 490.108 299.667 489.688 299.752 489.254C301.033 490.591 302.443 491.8 303.961 492.863C310.653 497.633 320.923 496.682 324.781 500.249C327.617 502.668 330.842 504.593 334.321 505.942C337.885 503.144 343.637 506.921 350.568 507.732C353.481 508.14 356.443 507.463 358.887 505.83C359.129 506.268 359.303 506.739 359.406 507.229C360.417 512.46 354.721 516.418 340.522 512.46C326.324 508.501 324.374 503.718 319.029 501.396C313.683 499.074 298.924 497.367 299.569 490.513Z" fill="white" stroke="#022C40" stroke-linecap="round" stroke-linejoin="round"/>
<path d="M359.519 509.551C359.519 509.551 356.292 514.083 338.376 507.732" stroke="#022C40" stroke-linecap="round" stroke-linejoin="round"/>
<path d="M207.239 332.816C207.239 332.816 312.463 325.822 317.205 340.593C321.947 355.364 324.22 402.81 324.5 421.624C324.781 440.437 323.238 464.272 323.238 464.272C316.92 466.171 310.18 466.171 303.862 464.272C303.862 464.272 299.246 436.926 295.893 423.624C292.54 410.322 289.019 392.613 291.039 364.596C291.039 364.596 190.263 379.731 189.687 362.162C189.112 344.594 207.239 332.816 207.239 332.816Z" fill="white"/>
<path opacity="0.5" d="M207.239 332.816C207.239 332.816 312.463 325.822 317.205 340.593C321.947 355.364 324.22 402.81 324.5 421.624C324.781 440.437 323.238 464.272 323.238 464.272C316.92 466.171 310.18 466.171 303.862 464.272C303.862 464.272 299.246 436.926 295.893 423.624C292.54 410.322 289.019 392.613 291.039 364.596C291.039 364.596 190.263 379.731 189.687 362.162C189.112 344.594 207.239 332.816 207.239 332.816Z" fill="black"/>
<path opacity="0.3" d="M312.912 463.321C306.57 461.922 301.365 434.353 298.391 405.51C295.416 376.667 306.318 361.924 300.832 358.204C295.346 354.483 248.501 362.302 221.367 363.673C206.116 364.442 195.959 360.875 189.968 357.574C189.739 359.092 189.645 360.628 189.687 362.162C190.263 379.731 291.039 364.596 291.039 364.596C289.019 392.571 292.54 410.336 295.893 423.624C299.246 436.912 303.862 464.272 303.862 464.272C305.475 464.801 307.133 465.18 308.815 465.405C312.589 464.44 314.511 463.671 312.912 463.321Z" fill="black"/>
<path d="M207.239 332.816C207.239 332.816 312.463 325.822 317.205 340.593C321.947 355.364 324.22 402.81 324.5 421.624C324.781 440.437 323.238 464.272 323.238 464.272C316.92 466.171 310.18 466.171 303.862 464.272C303.862 464.272 299.246 436.926 295.893 423.624C292.54 410.322 289.019 392.613 291.039 364.596C291.039 364.596 190.263 379.731 189.687 362.162C189.112 344.594 207.239 332.816 207.239 332.816Z" stroke="#022C40" stroke-linecap="round" stroke-linejoin="round"/>
<path d="M302.333 355.014C302.333 355.014 301.253 359.882 294.448 364.596" stroke="#022C40" stroke-linecap="round" stroke-linejoin="round"/>
<path d="M325.679 458.272L324.963 465.363C324.963 465.363 312.926 471.798 302.347 465.839L300.13 458.845C300.13 458.845 307.3 463.797 325.679 458.272Z" fill="white"/>
<path opacity="0.3" d="M325.679 458.272L324.963 465.363C324.963 465.363 312.926 471.798 302.347 465.839L300.13 458.845C300.13 458.845 307.3 463.797 325.679 458.272Z" fill="black"/>
<path d="M325.679 458.272L324.963 465.363C324.963 465.363 312.926 471.798 302.347 465.839L300.13 458.845C300.13 458.845 307.3 463.797 325.679 458.272Z" stroke="#022C40" stroke-linecap="round" stroke-linejoin="round"/>
<path d="M235.284 446.536L228.494 457.978L225.365 494.793C225.365 494.793 230.851 510.683 227.063 514.46C223.275 518.237 208.024 513.061 203.366 499.074C198.709 485.086 201.571 480.89 200.561 475.113C199.55 469.336 193.377 457.488 199.48 454.131C205.583 450.774 215.208 449.04 215.208 449.04L220.595 437.472L235.284 446.536Z" fill="white" stroke="#022C40" stroke-linecap="round" stroke-linejoin="round"/>
<path d="M200.504 475.127C199.424 469.42 193.321 457.502 199.424 454.145C203.439 452.167 207.679 450.678 212.051 449.711C211.707 451.305 211.044 452.813 210.101 454.145C210.101 454.145 209.862 458.44 211.504 460.342C213.145 462.244 217.481 457.964 223.696 460.342C226.572 461.447 227.652 462.846 227.989 464.035L227.835 466.594L225.435 494.849C225.435 494.849 230.921 510.739 227.133 514.516C223.345 518.293 208.095 513.117 203.437 499.13C198.779 485.142 201.571 480.848 200.504 475.127Z" fill="#275F7A"/>
<path opacity="0.3" d="M200.504 475.127C199.424 469.42 193.321 457.502 199.424 454.145C203.439 452.167 207.679 450.678 212.051 449.711C211.707 451.305 211.044 452.813 210.101 454.145C210.101 454.145 209.862 458.44 211.504 460.342C213.145 462.244 217.481 457.964 223.696 460.342C226.572 461.447 227.652 462.846 227.989 464.035L227.835 466.594L225.435 494.849C225.435 494.849 230.921 510.739 227.133 514.516C223.345 518.293 208.095 513.117 203.437 499.13C198.779 485.142 201.571 480.848 200.504 475.127Z" fill="black"/>
<path d="M200.504 475.127C199.424 469.42 193.321 457.502 199.424 454.145C203.439 452.167 207.679 450.678 212.051 449.711C211.707 451.305 211.044 452.813 210.101 454.145C210.101 454.145 209.862 458.44 211.504 460.342C213.145 462.244 217.481 457.964 223.696 460.342C226.572 461.447 227.652 462.846 227.989 464.035L227.835 466.594L225.435 494.849C225.435 494.849 230.921 510.739 227.133 514.516C223.345 518.293 208.095 513.117 203.437 499.13C198.779 485.142 201.571 480.848 200.504 475.127Z" stroke="#022C40" stroke-linecap="round" stroke-linejoin="round"/>
<path d="M203.366 499.088C198.709 485.1 201.571 480.904 200.561 475.127C199.55 469.35 193.377 457.502 199.48 454.145C199.775 453.977 200.098 453.837 200.406 453.684C200.098 456.05 200.07 458.444 200.322 460.817C201.15 467.489 204.854 469.21 205.331 483.701C205.808 498.192 209.876 499.423 209.876 499.423C209.876 499.423 219.445 503.48 224.215 508.487C226.109 510.474 227.47 510.642 228.424 510.152C228.521 511.695 228.052 513.221 227.105 514.446C223.289 518.223 208.024 513.033 203.366 499.088Z" fill="white" stroke="#022C40" stroke-linecap="round" stroke-linejoin="round"/>
<path d="M224.874 512.67C224.874 512.67 218.421 512.851 208.74 502.123" stroke="#022C40" stroke-linecap="round" stroke-linejoin="round"/>
<path d="M171.014 336.761C171.014 336.761 156.1 366.498 175.152 369.128C194.205 371.758 252.541 368.373 252.541 368.373C245.237 380.052 238.762 392.228 233.166 404.811C225.618 422.631 218.014 440.941 218.014 440.941C218.014 440.941 221.297 449.725 234.625 451.474C234.625 451.474 245.442 434.688 269.096 408.322C292.751 381.955 299.303 355.644 294.266 346.608C289.229 337.572 263.064 332.62 220.792 330.746L171.014 336.761Z" fill="white"/>
<path opacity="0.5" d="M171.014 336.761C171.014 336.761 156.1 366.498 175.153 369.128C194.205 371.758 252.542 368.373 252.542 368.373C245.237 380.052 238.763 392.228 233.166 404.811C225.618 422.631 218.014 440.941 218.014 440.941C218.014 440.941 221.297 449.725 234.625 451.474C234.625 451.474 245.442 434.688 269.097 408.322C292.751 381.955 299.303 355.644 294.266 346.608C289.23 337.572 263.064 332.62 220.792 330.746L171.014 336.761Z" fill="black"/>
<path opacity="0.3" d="M263.12 360.162C257.213 352.847 203.1 364.96 183.15 363.673C172.627 363.002 168.208 356.05 166.384 349.685C164.448 358.078 164.644 367.715 175.124 369.17C194.191 371.8 252.513 368.415 252.513 368.415C245.209 380.094 238.734 392.27 233.138 404.853C225.618 422.631 218.014 440.941 218.014 440.941C219.126 443.329 220.83 445.394 222.966 446.942C217.663 430.996 268.858 367.282 263.12 360.162Z" fill="black"/>
<path d="M171.014 336.761C171.014 336.761 156.1 366.498 175.152 369.128C194.205 371.758 252.541 368.373 252.541 368.373C245.237 380.052 238.762 392.228 233.166 404.811C225.618 422.631 218.014 440.941 218.014 440.941C218.014 440.941 221.297 449.725 234.625 451.474C234.625 451.474 245.442 434.688 269.096 408.322C292.751 381.955 299.303 355.644 294.266 346.608C289.229 337.572 263.064 332.62 220.792 330.746L171.014 336.761Z" stroke="#022C40" stroke-linecap="round" stroke-linejoin="round"/>
<path d="M257.101 363.673C258.504 362.484 261.45 360.148 269.138 356.679" stroke="#022C40" stroke-linecap="round" stroke-linejoin="round"/>
<path d="M264.312 352.636C264.312 352.636 252.036 362.666 254.491 364.176" stroke="#022C40" stroke-linecap="round" stroke-linejoin="round"/>
<path d="M239.199 448.97L234.667 454.481C234.667 454.481 221.086 453.236 215.544 442.451L217.565 435.458C217.565 435.458 220.82 443.444 239.199 448.97Z" fill="white"/>
<path opacity="0.3" d="M239.199 448.97L234.667 454.481C234.667 454.481 221.086 453.236 215.544 442.451L217.565 435.458C217.565 435.458 220.82 443.444 239.199 448.97Z" fill="black"/>
<path d="M239.199 448.97L234.667 454.481C234.667 454.481 221.086 453.236 215.544 442.451L217.565 435.458C217.565 435.458 220.82 443.444 239.199 448.97Z" stroke="#022C40" stroke-linecap="round" stroke-linejoin="round"/>
<path d="M256.245 306.701L258.307 318.548L248.725 321.584L241.359 307.484C241.359 307.484 249.904 300.141 256.245 306.701Z" fill="white" stroke="#022C40" stroke-linecap="round" stroke-linejoin="round"/>
<path d="M272.969 326.326C274.372 327.725 277.753 327.836 275.48 324.801C273.61 322.365 271.085 320.507 268.198 319.444C263.134 317.192 261.184 317.653 256.582 316.646C251.98 315.639 251.152 317.499 249.567 318.367C245.793 320.437 244.881 320.787 243.955 322.857C243.029 324.927 241.949 327.641 244.895 327.641C247.589 327.641 247.701 323.206 250.367 323.444C253.032 323.682 254.253 327.641 256.077 327.641H256.778C258.335 327.641 258.42 326.34 257.466 324.312C256.512 322.283 255.473 320.451 255.473 320.451C257.013 321.257 258.245 322.545 258.981 324.116C260.229 326.759 260.454 327.878 262.755 327.878C265.056 327.878 264.887 326.172 262.601 322.423C263.927 323.211 265.025 324.329 265.785 325.668C266.908 327.78 267.497 327.641 268.97 327.641C270.892 327.641 270.766 324.465 267.343 322.381C267.329 322.381 268.086 321.458 272.969 326.326Z" fill="white" stroke="#022C40" stroke-linecap="round" stroke-linejoin="round"/>
<path d="M259.598 318.744C259.598 318.744 261.001 318.674 261.787 320.94" stroke="#022C40" stroke-linecap="round" stroke-linejoin="round"/>
<path d="M223.205 214.984C223.203 214.608 223.29 214.236 223.459 213.9C223.629 213.564 223.875 213.272 224.178 213.049C224.482 212.825 224.834 212.676 225.206 212.614C225.578 212.552 225.959 212.577 226.319 212.69C231.174 214.2 239.928 218.285 239.535 227.391C239.002 239.98 239.535 265.619 239.535 265.619C239.535 265.619 244.376 263.563 250.058 283.132C255.74 302.7 256.512 308.17 256.512 308.17C256.512 308.17 249.721 303.288 242.945 310.548C242.945 310.548 227.512 281.537 225.211 269.032C223.247 258.499 223.177 225.279 223.205 214.984Z" fill="#275F7A" stroke="#022C40" stroke-linecap="round" stroke-linejoin="round"/>
<path d="M258.307 310.548C258.307 310.548 250.409 305.442 242.945 313.625L238.287 308.17C238.287 308.17 243.899 303.218 250.058 303.05C256.217 302.882 258.307 305.092 258.307 305.092V310.548Z" fill="#275F7A"/>
<path opacity="0.6" d="M258.307 310.548C258.307 310.548 250.409 305.442 242.945 313.625L238.287 308.17C238.287 308.17 243.899 303.218 250.058 303.05C256.217 302.882 258.307 305.092 258.307 305.092V310.548Z" fill="white"/>
<path d="M258.307 310.548C258.307 310.548 250.409 305.442 242.945 313.625L238.287 308.17C238.287 308.17 243.899 303.218 250.058 303.05C256.217 302.882 258.307 305.092 258.307 305.092V310.548Z" stroke="#022C40" stroke-linecap="round" stroke-linejoin="round"/>
<path d="M241.023 282.908C240.672 266.528 245.133 246.386 236.224 235.462C236.224 235.462 236.575 218.397 223.219 211.906C209.862 205.416 176.654 202.353 168.095 209.179C160.898 214.928 170.817 272.123 172.304 314.716C172.571 322.759 169.863 330.284 169.498 336.831C169.498 336.831 172.234 341.95 185.927 336.831C199.621 331.711 238.988 330.186 238.988 330.186C238.988 330.186 241.359 299.288 241.023 282.908Z" fill="#275F7A"/>
<path opacity="0.3" d="M240.672 301.54C237.712 305.876 231.917 312.408 223.836 312.73C211.602 313.205 222.096 289.035 219.15 286.447C216.204 283.859 205.611 312.24 185.577 308.296C165.542 304.351 181.971 299.539 182.434 284.754C182.897 269.969 186.994 244.945 178.099 245.169C174.493 245.267 170.972 251.897 168.053 259.758C169.723 277.509 171.729 297.301 172.262 314.674C172.529 322.717 169.821 330.242 169.456 336.789C169.456 336.789 172.192 341.908 185.885 336.789C199.578 331.669 238.946 330.144 238.946 330.144C238.946 330.144 240.069 315.891 240.672 301.54Z" fill="black"/>
<path d="M241.023 282.908C240.672 266.528 245.133 246.386 236.224 235.462C236.224 235.462 236.575 218.397 223.219 211.906C209.862 205.416 176.654 202.353 168.095 209.179C160.898 214.928 170.817 272.124 172.304 314.716C172.571 322.759 169.863 330.284 169.498 336.831C169.498 336.831 172.234 341.95 185.927 336.831C199.621 331.711 238.988 330.186 238.988 330.186C238.988 330.186 241.359 299.288 241.023 282.908Z" stroke="#022C40" stroke-linecap="round" stroke-linejoin="round"/>
<path d="M220.82 210.857C222.98 215.054 226.207 222.299 225.029 225.111C223.205 229.209 218.631 220.103 216.12 220.551C213.608 220.998 211.56 226.775 206.762 226.146C202.342 225.586 195.776 212.354 185.633 205.318C197.418 205.122 211.953 207.374 220.82 210.857Z" fill="#275F7A"/>
<path opacity="0.7" d="M220.82 210.857C222.98 215.054 226.207 222.299 225.029 225.111C223.205 229.209 218.631 220.103 216.12 220.551C213.608 220.998 211.56 226.775 206.762 226.146C202.342 225.586 195.776 212.354 185.633 205.318C197.418 205.122 211.953 207.374 220.82 210.857Z" fill="white"/>
<path d="M220.82 210.857C222.98 215.054 226.207 222.299 225.029 225.111C223.205 229.209 218.631 220.103 216.12 220.551C213.608 220.998 211.56 226.775 206.762 226.146C202.342 225.586 195.776 212.354 185.633 205.318C197.418 205.122 211.953 207.374 220.82 210.857Z" stroke="#022C40" stroke-linecap="round" stroke-linejoin="round"/>
<path d="M189.547 328.298C170.368 330.284 185.535 320.829 185.535 320.829" stroke="#022C40" stroke-linecap="round" stroke-linejoin="round"/>
<path d="M220.202 283.426C215.124 297.973 205.12 322.129 193.097 327.347" stroke="#022C40" stroke-linecap="round" stroke-linejoin="round"/>
<path d="M223.794 272.165C223.794 272.165 223.149 274.431 221.984 278.068" stroke="#022C40" stroke-linecap="round" stroke-linejoin="round"/>
<path d="M225.786 321.584C225.786 321.584 232.324 324.605 234.457 325.682C235.144 326.032 238.287 327.221 236 328.298C234.036 329.221 227.835 326.088 227.835 326.088L221.844 324.885L225.786 321.584Z" fill="white"/>
<path opacity="0.2" d="M225.786 321.584C225.786 321.584 232.324 324.605 234.457 325.682C235.144 326.032 238.287 327.221 236 328.298C234.036 329.221 227.835 326.088 227.835 326.088L221.844 324.885L225.786 321.584Z" fill="black"/>
<path d="M225.786 321.584C225.786 321.584 232.324 324.605 234.457 325.682C235.144 326.032 238.287 327.221 236 328.298C234.036 329.221 227.835 326.088 227.835 326.088L221.844 324.885L225.786 321.584Z" stroke="#022C40" stroke-linecap="round" stroke-linejoin="round"/>
<path d="M188.018 314.128L205.99 324.2C209.221 327.008 213.349 328.579 217.635 328.634C219.612 328.678 221.568 328.233 223.331 327.34C225.094 326.446 226.607 325.132 227.736 323.514L231.496 324.018C231.496 324.018 236.112 328.284 237.487 326.41V325.319L234.457 322.423L232.871 321.304L235.495 321.794C236.629 322.932 238.041 323.757 239.592 324.186C239.592 324.186 247.126 328.382 247.925 325.766C247.925 325.766 250.212 326.228 250.731 325.095C251.25 323.962 249.819 322.423 249.819 322.423C250.283 322.487 250.755 322.416 251.179 322.217C251.602 322.018 251.958 321.701 252.204 321.304C252.892 319.975 249.398 318.716 248.444 318.031C247.49 317.346 242.51 313.709 239.774 313.485C237.038 313.261 218.322 317.36 215.572 315.989C212.823 314.618 195.257 300.854 195.257 300.854L185.787 312.352L188.018 314.128Z" fill="white" stroke="#022C40" stroke-linecap="round" stroke-linejoin="round"/>
<path d="M246.901 324.074C246.901 324.074 237.543 318.395 236.168 317.821C234.793 317.248 229.673 317.821 229.673 317.821" stroke="#022C40" stroke-linecap="round" stroke-linejoin="round"/>
<path d="M247.364 320.829C244.93 319.246 242.415 317.789 239.83 316.464C239.316 316.103 238.72 315.875 238.095 315.802C237.47 315.728 236.837 315.812 236.252 316.045" stroke="#022C40" stroke-linecap="round" stroke-linejoin="round"/>
<path d="M171.14 210.396C170.144 209.151 169.12 208.647 168.095 209.179C168.095 209.179 161.936 211.235 158.05 228.762C154.164 246.288 152.115 288.839 155.539 293.846C158.962 298.854 188.186 315.234 188.186 315.234C188.186 315.234 189.589 309.778 199.41 303.862C199.41 303.862 181.382 286.335 178.646 287.076C178.646 287.076 180.764 284.726 176.135 283.887C176.135 283.887 177.538 269.102 177.538 261.353C177.538 261.353 181.185 254.527 180.049 242.931" fill="#275F7A"/>
<path d="M171.14 210.396C170.144 209.151 169.12 208.647 168.095 209.179C168.095 209.179 161.936 211.235 158.05 228.762C154.164 246.288 152.115 288.839 155.539 293.846C158.962 298.854 188.186 315.234 188.186 315.234C188.186 315.234 189.589 309.778 199.41 303.862C199.41 303.862 181.382 286.335 178.646 287.076C178.646 287.076 180.764 284.726 176.135 283.887C176.135 283.887 177.538 269.102 177.538 261.353C177.538 261.353 181.185 254.527 180.049 242.931" stroke="#022C40" stroke-linecap="round" stroke-linejoin="round"/>
<path d="M174.1 243.561C175.503 248.372 177.285 255.338 176.317 257.814C174.774 261.745 172.669 250.149 168.951 247.407" stroke="#022C40" stroke-linecap="round" stroke-linejoin="round"/>
<path d="M172.543 238.707C172.543 238.707 172.852 239.588 173.301 240.987" stroke="#022C40" stroke-linecap="round" stroke-linejoin="round"/>
<path d="M171.14 288.405C169.737 289.006 167.59 289.454 166.735 292.979" stroke="#022C40" stroke-linecap="round" stroke-linejoin="round"/>
<path opacity="0.3" d="M163.816 285.468C163.816 285.468 171.519 283.425 172.234 286.489L163.816 285.468Z" fill="black"/>
<path d="M203.633 305.736C203.633 305.736 196.786 307.96 192.507 318.199L186.18 316.311C186.18 316.311 187.372 307.107 199.522 300.448L203.633 305.736Z" fill="#275F7A"/>
<path opacity="0.6" d="M203.633 305.736C203.633 305.736 196.786 307.96 192.507 318.199L186.18 316.311C186.18 316.311 187.372 307.107 199.522 300.448L203.633 305.736Z" fill="white"/>
<path d="M203.633 305.736C203.633 305.736 196.786 307.96 192.507 318.199L186.18 316.311C186.18 316.311 187.372 307.107 199.522 300.448L203.633 305.736Z" stroke="#022C40" stroke-linecap="round" stroke-linejoin="round"/>
<path d="M226.291 139.548C226.291 139.548 247.336 141.143 243.871 147.059C240.405 152.976 256.203 156.165 251.629 162.53C247.055 168.894 257.073 179.315 251.04 182.322C245.007 185.33 246.831 192.338 249.118 196.212C251.405 200.087 243.871 203.947 238.399 203.206C232.927 202.465 239.802 209.808 237.487 211.179C235.172 212.55 232.689 206.619 228.466 207.304C224.243 207.99 215.348 203.402 212.724 204.101C210.101 204.801 176.654 202.982 176.598 200.702C176.541 198.422 179.965 198.436 179.516 196.156C179.067 193.876 173.343 195.527 172.781 190.561C172.22 185.596 176.71 183.987 176.598 179.371C176.485 174.755 172.781 176.35 172.725 169.985C172.669 163.621 182.027 162.698 182.701 159.522C183.374 156.347 174.213 156.389 177.524 150.668C180.835 144.947 190.235 147.004 192.746 143.814C195.257 140.625 187.372 140.038 192.97 135.855C198.568 131.673 219.052 130.89 226.291 139.548Z" fill="#022C40" stroke="#022C40" stroke-linecap="round" stroke-linejoin="round"/>
<path d="M216.695 210.815C218.294 212.76 222.644 218.97 212.837 218.732C203.03 218.495 188.186 205.332 188.186 205.332C188.186 205.332 194.121 203.038 198.007 193.932C199.705 189.96 203.493 177.553 203.493 177.553L218.505 193.708L213.805 206.675C213.805 206.675 216.049 210.032 216.695 210.815Z" fill="white"/>
<path d="M216.905 205.332C216.905 205.332 203.507 198.45 201.992 187.022C200.476 175.594 203.24 176.07 203.24 176.07L208.529 188.015L215.544 195.513L219.206 201.528L216.905 205.332Z" fill="#022C40"/>
<path d="M216.695 210.815C218.294 212.76 222.644 218.97 212.837 218.732C203.03 218.495 188.186 205.332 188.186 205.332C188.186 205.332 194.121 203.038 198.007 193.932C199.705 189.96 203.493 177.553 203.493 177.553L218.505 193.708L213.805 206.675C213.805 206.675 216.049 210.032 216.695 210.815Z" stroke="#022C40" stroke-linecap="round" stroke-linejoin="round"/>
<path d="M239.058 155.704C239.058 155.704 242.019 169.58 239.62 174.14C237.221 178.7 239.395 184.603 234.597 190.072C229.799 195.541 226.305 205.318 220.455 203.947C212.795 202.143 204.166 191.89 203.619 187.792C203.33 185.179 203.33 182.543 203.619 179.931C202.975 179.977 202.328 179.875 201.73 179.633C201.131 179.39 200.597 179.013 200.168 178.532C198.344 176.825 195.959 169.901 200.168 167.607C203.872 165.607 205.373 169.887 205.373 169.887L216.021 154.641L239.058 155.704Z" fill="white" stroke="#022C40" stroke-linecap="round" stroke-linejoin="round"/>
<path d="M231.089 180.854C230.402 183.008 233.601 186.533 232.577 188.127C231.552 189.722 228.929 188.925 228.929 190.519" stroke="#022C40" stroke-linecap="round" stroke-linejoin="round"/>
<path d="M227.666 193.485C227.666 193.485 222.531 194.156 219.515 190.519" stroke="#022C40" stroke-linecap="round" stroke-linejoin="round"/>
<path d="M234.19 179.189C233.839 180.378 233.994 181.483 234.555 181.651C235.116 181.819 235.846 180.98 236.196 179.777C236.547 178.574 236.393 177.483 235.832 177.329C235.27 177.175 234.555 178 234.19 179.189Z" fill="#022C40"/>
<path d="M223.022 177.049C222.658 178.238 222.826 179.343 223.373 179.511C223.92 179.679 224.664 178.839 225.015 177.637C225.365 176.434 225.211 175.343 224.664 175.175C224.117 175.007 223.373 175.804 223.022 177.049Z" fill="#022C40"/>
<path d="M238.399 175.273C238.399 175.273 236.912 171.971 233.264 176.07" stroke="#022C40" stroke-linecap="round" stroke-linejoin="round"/>
<path d="M228.466 174.014C228.466 174.014 224.58 168.796 220.483 173.119" stroke="#022C40" stroke-linecap="round" stroke-linejoin="round"/>
<path d="M231.538 151.158C231.538 151.158 231.637 160.949 235.832 161.047C240.027 161.145 235.972 168.279 241.836 169.076C247.701 169.873 241.836 157.299 241.836 157.299L237.992 152.697L231.538 151.158Z" fill="#022C40" stroke="#022C40" stroke-linecap="round" stroke-linejoin="round"/>
<path d="M232.801 151.158C232.801 151.158 230.402 160.026 226.123 161.047C221.844 162.068 218.771 162.754 217.916 166.516C217.06 170.279 212.093 170.95 210.031 173.678C207.968 176.406 211.574 187.568 207.127 189.162C207.732 186.638 207.732 184.007 207.127 181.483C206.102 177.441 203.451 173.51 205.373 166.348C207.295 159.187 215.853 151.158 215.853 151.158L224.467 150.137L232.801 151.158Z" fill="#022C40" stroke="#022C40" stroke-linecap="round" stroke-linejoin="round"/>
<path d="M201.837 180.448C201.837 180.448 203.549 189.666 201.837 193.163C200.126 196.66 204.91 198.115 202.609 200.842C200.308 203.57 190.894 205.458 188.832 200.842C186.769 196.226 199.368 179.511 201.837 180.448Z" fill="#022C40" stroke="#022C40" stroke-linecap="round" stroke-linejoin="round"/>
<path d="M242.945 192.17C244.783 197.569 240.055 197.933 235.832 198.87C231.609 199.807 233.264 206.102 233.264 206.102" stroke="#7F7F7F" stroke-width="0.75" stroke-linecap="round" stroke-linejoin="round"/>
<path d="M246.424 181.245C244.348 183.427 242.369 186.491 242.524 189.862" stroke="#7F7F7F" stroke-width="0.75" stroke-linecap="round" stroke-linejoin="round"/>
<path d="M247.027 165.006C246.845 169.915 250.844 177.483 248.43 179.427" stroke="#7F7F7F" stroke-width="0.75" stroke-linecap="round" stroke-linejoin="round"/>
<path d="M240.588 152.697C240.588 152.697 250.942 158.152 247.869 162.25" stroke="#7F7F7F" stroke-width="0.75" stroke-linecap="round" stroke-linejoin="round"/>
<path d="M240.798 147.675C240.111 148.682 238.483 148.584 238.399 150.123" stroke="#7F7F7F" stroke-width="0.75" stroke-linecap="round" stroke-linejoin="round"/>
<path d="M227.666 142.08C227.666 142.08 240.784 143.479 241.079 146.178" stroke="#7F7F7F" stroke-width="0.75" stroke-linecap="round" stroke-linejoin="round"/>
<path d="M177.86 169.104C178.534 172.153 183.837 178.448 180.933 183.232C178.029 188.015 176.149 189.722 180.245 191.428" stroke="#7F7F7F" stroke-width="0.75" stroke-linecap="round" stroke-linejoin="round"/>
<path d="M183.669 152.697C184.188 155.928 189.449 156.11 188.186 161.397C187.302 165.132 182.153 165.929 179.46 167.146" stroke="#7F7F7F" stroke-width="0.75" stroke-linecap="round" stroke-linejoin="round"/>
<path d="M196.801 142.765C196.338 146.738 200.084 147.745 194.458 150.137C191.976 151.167 189.276 151.566 186.601 151.298" stroke="#7F7F7F" stroke-width="0.75" stroke-linecap="round" stroke-linejoin="round"/>
<path d="M223.626 142.08C223.626 142.08 201.388 133.03 197.853 139.688" stroke="#7F7F7F" stroke-width="0.75" stroke-linecap="round" stroke-linejoin="round"/>
<path d="M185.535 192.17C186.236 195.191 182.644 198.87 182.644 198.87" stroke="#7F7F7F" stroke-width="0.75" stroke-linecap="round" stroke-linejoin="round"/>
<path d="M192.76 156.445C191.904 159.858 195.159 161.565 193.966 165.146C192.774 168.727 186.208 167.244 185.549 170.041C184.889 172.839 190.136 176.588 188.2 182.043C187.232 184.84 186.39 186.547 185.885 188.016" stroke="#7F7F7F" stroke-width="0.75" stroke-linecap="round" stroke-linejoin="round"/>
<path d="M201.992 151.158C200.799 154.389 197.783 154.319 195.552 154.641" stroke="#7F7F7F" stroke-width="0.75" stroke-linecap="round" stroke-linejoin="round"/>
<path d="M201.318 144.877C201.426 146.056 201.695 147.213 202.118 148.318" stroke="#7F7F7F" stroke-width="0.75" stroke-linecap="round" stroke-linejoin="round"/>
<path d="M226.333 145.185C226.333 145.185 204.489 136.792 201.992 142.108" stroke="#7F7F7F" stroke-width="0.75" stroke-linecap="round" stroke-linejoin="round"/>
<path d="M195.566 181.665C194.85 183.665 192.381 185.078 192.115 188.015C191.778 191.946 193.153 194.799 190.922 198.143" stroke="#7F7F7F" stroke-width="0.75" stroke-linecap="round" stroke-linejoin="round"/>
<path d="M207.632 152.892C207.181 154.441 206.419 155.883 205.391 157.128C204.364 158.374 203.092 159.398 201.655 160.138C198.049 162.082 198.568 166.796 196.169 169.65C193.77 172.503 194.289 175.902 195.482 179.441" stroke="#7F7F7F" stroke-width="0.75" stroke-linecap="round" stroke-linejoin="round"/>
<path d="M230.065 148.248C230.065 148.248 210.031 144.5 208.501 150.137" stroke="#7F7F7F" stroke-width="0.75" stroke-linecap="round" stroke-linejoin="round"/>
<path d="M235.832 147.745C235.832 147.745 235.228 144.738 230.065 146.122" stroke="#7F7F7F" stroke-width="0.75" stroke-linecap="round" stroke-linejoin="round"/>
<path d="M228.929 152.697C227.986 154.134 226.748 155.356 225.297 156.282C223.846 157.207 222.215 157.816 220.511 158.068C214.59 158.977 214.59 165.579 211.855 167.398C209.119 169.216 205.878 169.65 207.519 178.126" stroke="#7F7F7F" stroke-width="0.75" stroke-linecap="round" stroke-linejoin="round"/>
<path d="M213.805 206.675C213.805 206.675 212.177 209.626 215.601 212.592L213.805 206.675Z" fill="white"/>
<path d="M213.805 206.675C213.805 206.675 212.177 209.626 215.601 212.592" stroke="#022C40" stroke-linecap="round" stroke-linejoin="round"/>
<path d="M248.543 328.116L274.61 281.201C275.129 280.271 275.888 279.495 276.807 278.954C277.727 278.413 278.775 278.127 279.843 278.124H281.99V332.061H250.872C250.408 332.06 249.953 331.939 249.55 331.709C249.148 331.48 248.813 331.149 248.578 330.751C248.343 330.353 248.216 329.9 248.21 329.438C248.203 328.976 248.318 328.52 248.543 328.116Z" fill="#022C40" stroke="#022C40" stroke-linecap="round" stroke-linejoin="round"/>
<path d="M252.724 332.061H305.111C306.024 332.059 306.92 331.814 307.707 331.352C308.494 330.889 309.142 330.226 309.587 329.431L336.454 281.061C336.619 280.76 336.703 280.42 336.697 280.076C336.691 279.733 336.596 279.396 336.42 279.1C336.245 278.804 335.996 278.559 335.696 278.388C335.397 278.216 335.059 278.126 334.714 278.124H281.695C280.626 278.129 279.577 278.416 278.655 278.956C277.733 279.497 276.972 280.272 276.448 281.201L250.395 328.116C250.17 328.52 250.055 328.976 250.062 329.438C250.068 329.9 250.195 330.353 250.43 330.751C250.665 331.149 251 331.48 251.402 331.709C251.805 331.939 252.26 332.06 252.724 332.061Z" fill="white"/>
<path opacity="0.2" d="M252.724 332.061H305.111C306.024 332.059 306.92 331.814 307.707 331.352C308.494 330.889 309.142 330.226 309.587 329.431L336.454 281.061C336.619 280.76 336.703 280.42 336.697 280.076C336.691 279.733 336.596 279.396 336.42 279.1C336.245 278.804 335.996 278.559 335.696 278.388C335.397 278.216 335.059 278.126 334.714 278.124H281.695C280.626 278.129 279.577 278.416 278.655 278.956C277.733 279.497 276.972 280.272 276.448 281.201L250.395 328.116C250.17 328.52 250.055 328.976 250.062 329.438C250.068 329.9 250.195 330.353 250.43 330.751C250.665 331.149 251 331.48 251.402 331.709C251.805 331.939 252.26 332.06 252.724 332.061Z" fill="black"/>
<path d="M252.724 332.061H305.111C306.024 332.059 306.92 331.814 307.707 331.352C308.494 330.889 309.142 330.226 309.587 329.431L336.454 281.061C336.619 280.76 336.703 280.42 336.697 280.076C336.691 279.733 336.596 279.396 336.42 279.1C336.245 278.804 335.996 278.559 335.696 278.388C335.397 278.216 335.059 278.126 334.714 278.124H281.695C280.626 278.129 279.577 278.416 278.655 278.956C277.733 279.497 276.972 280.272 276.448 281.201L250.395 328.116C250.17 328.52 250.055 328.976 250.062 329.438C250.068 329.9 250.195 330.353 250.43 330.751C250.665 331.149 251 331.48 251.402 331.709C251.805 331.939 252.26 332.06 252.724 332.061V332.061Z" stroke="#022C40" stroke-linecap="round" stroke-linejoin="round"/>
<path d="M207.127 332.061H246.578C247.01 332.061 247.424 331.89 247.729 331.585C248.034 331.281 248.206 330.868 248.206 330.438V328.298H203.31C203.309 328.796 203.406 329.29 203.598 329.75C203.789 330.21 204.071 330.627 204.426 330.978C204.782 331.328 205.204 331.604 205.667 331.79C206.131 331.976 206.627 332.068 207.127 332.061Z" fill="white"/>
<path opacity="0.4" d="M207.127 332.061H246.578C247.01 332.061 247.424 331.89 247.729 331.585C248.034 331.281 248.206 330.868 248.206 330.438V328.298H203.31C203.309 328.796 203.406 329.29 203.598 329.75C203.789 330.21 204.071 330.627 204.426 330.978C204.782 331.328 205.204 331.604 205.667 331.79C206.131 331.976 206.627 332.068 207.127 332.061Z" fill="black"/>
<path d="M207.127 332.061H246.578C247.01 332.061 247.424 331.89 247.729 331.585C248.034 331.281 248.206 330.868 248.206 330.438V328.298H203.31C203.309 328.796 203.406 329.29 203.598 329.75C203.789 330.21 204.071 330.627 204.426 330.978C204.782 331.328 205.204 331.604 205.667 331.79C206.131 331.976 206.627 332.068 207.127 332.061Z" stroke="#022C40" stroke-linecap="round" stroke-linejoin="round"/>
</svg>
