<svg width="99" height="98" viewBox="0 0 99 98" fill="none" xmlns="http://www.w3.org/2000/svg">
<circle cx="49.1757" cy="49" r="47.5" fill="white" stroke="#022C40" stroke-width="3"/>
<g clip-path="url(#clip0_1_511)">
<path d="M51.2362 66.01L46.4715 61.42L42.0323 57.16L47.9512 56.29L54.61 55.33L55.4682 53.62H55.409C54.7298 53.6203 54.0711 53.3837 53.5435 52.95C53.016 52.5163 52.6517 51.9118 52.5117 51.238C52.5088 49.387 54.8763 49.987 56.7408 46.867C56.9776 46.807 65.0865 24.997 48.5135 24.997C31.9405 24.997 40.0495 46.807 40.0495 46.807C41.9139 49.807 44.3111 49.357 44.2815 51.157C44.2519 52.957 42.0915 53.557 40.0495 53.767C36.6757 54.157 33.7162 53.377 30.7568 59.047C28.9811 62.317 28.2412 72.997 28.2412 72.997H50.0228V72.487L51.2362 66.01ZM59.5227 73H61.18L60.3513 72.58L59.5227 73Z" fill="#022C40"/>
<path d="M60.3514 69.19L67.6612 73L66.2703 64.93L72.1892 59.23L64.0211 58.06L60.3514 50.71L56.6816 58.06L48.5135 59.23L54.4324 64.93L53.0415 73L60.3514 69.19Z" fill="#022C40"/>
</g>
<defs>
<clipPath id="clip0_1_511">
<rect width="47.3514" height="48" fill="white" transform="translate(24.8378 25)"/>
</clipPath>
</defs>
</svg>
