<svg width="40" height="41" viewBox="0 0 40 41" fill="none" xmlns="http://www.w3.org/2000/svg">
<g clip-path="url(#clip0_2_1029)">
<path d="M22.7006 39.9927H16.2824C15.2104 39.9927 14.3383 39.1412 14.3383 38.0944V23.9589H10.5938C9.52177 23.9589 8.64971 23.1071 8.64971 22.0606V16.0035C8.64971 14.9567 9.52177 14.1052 10.5938 14.1052H14.3383V11.072C14.3383 8.06451 15.3055 5.50577 17.1349 3.67284C18.9726 1.83156 21.5408 0.858521 24.5618 0.858521L29.4566 0.866283C30.5268 0.868075 31.3974 1.7196 31.3974 2.76459V8.38846C31.3974 9.43525 30.5256 10.2868 29.4539 10.2868L26.1583 10.288C25.1532 10.288 24.8973 10.4847 24.8425 10.545C24.7523 10.6451 24.645 10.9278 24.645 11.7086V14.1049H29.2062C29.5496 14.1049 29.8823 14.1876 30.1682 14.3434C30.7849 14.6799 31.1684 15.3162 31.1684 16.0038L31.1659 22.0609C31.1659 23.1071 30.2938 23.9586 29.2218 23.9586H24.645V38.0944C24.645 39.1412 23.7726 39.9927 22.7006 39.9927ZM16.6879 37.6985H22.2951V22.9318C22.2951 22.2329 22.8776 21.6644 23.5931 21.6644H28.8164L28.8185 16.3994H23.5928C22.8773 16.3994 22.2951 15.8309 22.2951 15.132V11.7086C22.2951 10.8123 22.3884 9.79294 23.0813 9.02681C23.9185 8.10064 25.2379 7.99375 26.1577 7.99375L29.0478 7.99256V3.1599L24.56 3.15273C19.7049 3.15273 16.6879 6.1874 16.6879 11.072V15.132C16.6879 15.8306 16.1057 16.3994 15.3902 16.3994H10.9993V21.6644H15.3902C16.1057 21.6644 16.6879 22.2329 16.6879 22.9318V37.6985ZM29.4521 3.1605H29.4524H29.4521Z" fill="white"/>
</g>
<defs>
<clipPath id="clip0_2_1029">
<rect width="40" height="39.1342" fill="white" transform="translate(0 0.934937)"/>
</clipPath>
</defs>
</svg>
