<svg width="574" height="562" viewBox="0 0 574 562" fill="none" xmlns="http://www.w3.org/2000/svg">
<path d="M389.731 77.2387C440.784 78.0403 483.473 97.7104 517.059 137.051C518.137 138.241 518.966 139.641 519.497 141.165C520.027 142.689 520.248 144.307 520.146 145.92C520.043 147.534 519.62 149.109 518.902 150.552C518.183 151.995 517.184 153.275 515.965 154.316C514.78 155.339 513.406 156.112 511.923 156.587C510.439 157.063 508.877 157.232 507.328 157.085C505.779 156.938 504.275 156.477 502.905 155.731C501.534 154.984 500.325 153.966 499.348 152.737C487.361 138.37 472.787 126.45 456.403 117.615C431.219 104.04 402.596 98.4568 374.245 101.588C345.895 104.72 319.127 116.421 297.411 135.176C291.236 140.467 285.742 146.62 280.175 152.602C275.313 157.794 268.251 158.62 263.158 154.168C258.064 149.716 257.748 142.279 262.343 136.903C290.471 103.811 325.875 84.264 368.557 78.2622C371.899 77.7936 375.266 77.436 378.646 77.2756C382.329 77.103 386.036 77.2387 389.731 77.2387Z" fill="#275F7A"/>
<path d="M393.949 125.31C426.246 126.161 456.622 140.109 480.508 168.177C485.224 173.702 484.677 180.83 479.438 185.443C474.466 189.784 467.283 189.204 462.651 183.802C450.18 169.152 435.071 158.41 416.643 153.366C379.095 143.081 346.629 152.454 319.4 180.658C318.392 181.706 317.456 182.828 316.495 183.926C314.445 186.326 311.539 187.803 308.416 188.029C305.293 188.256 302.209 187.215 299.843 185.134C297.476 183.054 296.021 180.105 295.798 176.937C295.575 173.768 296.601 170.64 298.651 168.239C309.157 155.592 322.121 145.281 336.734 137.951C353.496 129.478 371.207 125.396 393.949 125.31Z" fill="#275F7A"/>
<path d="M447.093 207.308C447.099 209.732 446.381 212.101 445.033 214.102C443.686 216.103 441.772 217.643 439.544 218.518C437.279 219.424 434.792 219.587 432.431 218.985C430.07 218.384 427.954 217.047 426.38 215.164C421.458 209.314 415.289 204.675 408.341 201.598C388.893 193.262 367.56 198.441 353.132 214.966C349.716 218.888 345.45 220.306 340.514 218.789C338.633 218.208 336.924 217.159 335.543 215.738C334.162 214.316 333.154 212.567 332.609 210.649C332.064 208.732 332.001 206.706 332.424 204.757C332.847 202.808 333.744 200.997 335.032 199.489C359.732 169.275 405.169 164.959 434.889 190.191C438.287 193.061 441.416 196.244 444.236 199.699C445.877 201.721 446.582 204.521 447.713 206.975L447.093 207.308Z" fill="#275F7A"/>
<path d="M389.683 270.252C384.983 270.267 380.384 268.864 376.471 266.222C372.559 263.58 369.508 259.818 367.706 255.413C365.905 251.009 365.434 246.161 366.354 241.484C367.274 236.808 369.542 232.514 372.872 229.148C376.201 225.782 380.441 223.496 385.054 222.58C389.667 221.664 394.444 222.159 398.779 224.002C403.113 225.846 406.81 228.955 409.4 232.934C411.99 236.913 413.356 241.584 413.325 246.352C413.312 252.702 410.815 258.786 406.381 263.268C401.948 267.75 395.941 270.262 389.683 270.252Z" fill="#275F7A"/>
<path d="M247.548 385.455C258.585 374.258 258.585 356.103 247.548 344.906C236.512 333.708 218.618 333.708 207.581 344.906C196.544 356.103 196.544 374.258 207.581 385.455C218.618 396.653 236.512 396.653 247.548 385.455Z" stroke="#022C40" stroke-width="2" stroke-linecap="round" stroke-linejoin="round"/>
<path d="M227.567 393.859C235.287 393.859 241.545 381.022 241.545 365.187C241.545 349.351 235.287 336.514 227.567 336.514C219.846 336.514 213.588 349.351 213.588 365.187C213.588 381.022 219.846 393.859 227.567 393.859Z" stroke="#022C40" stroke-width="2" stroke-linecap="round" stroke-linejoin="round"/>
<path d="M208.118 344.9C213.415 349.998 220.451 352.818 227.752 352.77C235.053 352.721 242.052 349.808 247.283 344.641" stroke="#022C40" stroke-width="2" stroke-linecap="round" stroke-linejoin="round"/>
<path d="M247.088 385.548C241.783 380.397 234.709 377.545 227.367 377.596C220.024 377.647 212.989 380.596 207.753 385.819" stroke="#022C40" stroke-width="2" stroke-linecap="round" stroke-linejoin="round"/>
<path d="M199.305 365.187H255.828" stroke="#022C40" stroke-width="2" stroke-linecap="round" stroke-linejoin="round"/>
<path d="M227.567 336.514V393.859" stroke="#022C40" stroke-width="2" stroke-linecap="round" stroke-linejoin="round"/>
<path d="M227.7 327.45V324.367" stroke="#022C40" stroke-linecap="round" stroke-linejoin="round"/>
<path d="M227.7 318.102V8.3501" stroke="#022C40" stroke-linecap="round" stroke-linejoin="round" stroke-dasharray="5.07 5.07"/>
<path d="M227.7 5.23006V2.14697" stroke="#022C40" stroke-linecap="round" stroke-linejoin="round"/>
<path d="M182.106 160.309C177.452 160.316 172.99 162.196 169.701 165.537C166.413 168.879 164.566 173.408 164.566 178.13C164.566 187.995 182.13 208.085 182.13 208.085C182.13 208.085 199.682 187.971 199.682 178.13C199.684 175.788 199.23 173.469 198.347 171.305C197.465 169.142 196.17 167.176 194.537 165.521C192.904 163.866 190.966 162.553 188.833 161.659C186.7 160.765 184.414 160.306 182.106 160.309ZM182.106 186.207C180.525 186.21 178.979 185.736 177.664 184.847C176.349 183.958 175.324 182.692 174.718 181.211C174.112 179.73 173.953 178.1 174.26 176.527C174.568 174.954 175.329 173.51 176.447 172.376C177.564 171.242 178.988 170.47 180.539 170.158C182.089 169.845 183.696 170.007 185.155 170.622C186.615 171.236 187.862 172.277 188.739 173.611C189.615 174.946 190.082 176.514 190.08 178.117C190.08 180.264 189.24 182.323 187.745 183.842C186.25 185.361 184.222 186.216 182.106 186.22V186.207Z" fill="#022C40" stroke="#022C40" stroke-linecap="round" stroke-linejoin="round"/>
<path d="M182.106 160.309V157.226" stroke="#022C40" stroke-linecap="round" stroke-linejoin="round"/>
<path d="M182.106 151.146V8.26367" stroke="#022C40" stroke-linecap="round" stroke-linejoin="round" stroke-dasharray="4.93 4.93"/>
<path d="M182.106 5.23006V2.14697" stroke="#022C40" stroke-linecap="round" stroke-linejoin="round"/>
<path d="M140.583 306.485H105.782C103.061 306.485 100.452 307.581 98.5279 309.533C96.604 311.485 95.5231 314.133 95.5231 316.893V332.925C95.5231 335.686 96.604 338.333 98.5279 340.285C100.452 342.237 103.061 343.334 105.782 343.334L106.135 359.489L117.075 343.334H140.607C143.328 343.334 145.938 342.237 147.862 340.285C149.786 338.333 150.866 335.686 150.866 332.925V316.893C150.866 315.524 150.6 314.169 150.083 312.905C149.566 311.64 148.808 310.492 147.853 309.525C146.898 308.558 145.764 307.792 144.516 307.27C143.269 306.748 141.932 306.482 140.583 306.485Z" fill="white" stroke="#022C40" stroke-linecap="round" stroke-linejoin="round"/>
<path d="M127.455 315.155H156.057C158.29 315.171 160.428 316.077 162.009 317.678C163.589 319.28 164.486 321.447 164.505 323.713V336.933C164.486 339.2 163.589 341.367 162.009 342.968C160.428 344.57 158.29 345.476 156.057 345.492L155.777 358.762L146.807 345.492H127.455C125.218 345.492 123.072 344.59 121.49 342.985C119.908 341.38 119.019 339.203 119.019 336.933V323.713C119.019 321.443 119.908 319.266 121.49 317.661C123.072 316.056 125.218 315.155 127.455 315.155Z" fill="#022C40" stroke="#022C40" stroke-linecap="round" stroke-linejoin="round"/>
<path d="M136 330.311C136 329.679 135.815 329.061 135.469 328.535C135.122 328.01 134.63 327.6 134.054 327.359C133.478 327.118 132.845 327.055 132.233 327.179C131.622 327.304 131.062 327.609 130.622 328.057C130.182 328.505 129.883 329.075 129.763 329.696C129.643 330.316 129.707 330.959 129.947 331.542C130.187 332.125 130.593 332.623 131.112 332.973C131.631 333.322 132.241 333.508 132.864 333.505C133.697 333.502 134.495 333.164 135.083 332.565C135.67 331.967 136 331.156 136 330.311Z" fill="#275F7A"/>
<path d="M142.601 333.505C144.34 333.505 145.749 332.075 145.749 330.311C145.749 328.547 144.34 327.117 142.601 327.117C140.862 327.117 139.453 328.547 139.453 330.311C139.453 332.075 140.862 333.505 142.601 333.505Z" fill="#275F7A"/>
<path d="M152.337 333.505C154.076 333.505 155.486 332.075 155.486 330.311C155.486 328.547 154.076 327.117 152.337 327.117C150.599 327.117 149.189 328.547 149.189 330.311C149.189 332.075 150.599 333.505 152.337 333.505Z" fill="#275F7A"/>
<path d="M133.582 295.201V292.118" stroke="#022C40" stroke-linecap="round" stroke-linejoin="round"/>
<path d="M133.582 286.038V9.37378" stroke="#022C40" stroke-linecap="round" stroke-linejoin="round" stroke-dasharray="4.93 4.93"/>
<path d="M133.582 6.32772V3.24463" stroke="#022C40" stroke-linecap="round" stroke-linejoin="round"/>
<path d="M120.6 204.607H59.1422V241.05H120.6V204.607Z" fill="white" stroke="#022C40" stroke-linecap="round" stroke-linejoin="round"/>
<path d="M59.1422 241.049L89.3969 212.71L120.612 241.049H59.1422Z" fill="white" stroke="#022C40" stroke-linecap="round" stroke-linejoin="round"/>
<path d="M59.1422 204.607L89.8831 222.835L120.612 204.607H59.1422Z" fill="white" stroke="#022C40" stroke-linecap="round" stroke-linejoin="round"/>
<path d="M89.336 202.942V199.859" stroke="#022C40" stroke-linecap="round" stroke-linejoin="round"/>
<path d="M89.336 194.076V150.653" stroke="#022C40" stroke-linecap="round" stroke-linejoin="round" stroke-dasharray="4.69 4.69"/>
<path d="M89.336 147.767V144.684" stroke="#022C40" stroke-linecap="round" stroke-linejoin="round"/>
<path d="M105.77 92.0497C102.764 85.9309 97.9995 80.8814 92.1051 77.5686C86.2106 74.2558 79.4641 72.8356 72.7571 73.4958C66.0501 74.1559 59.6985 76.8653 54.5416 81.2659C49.3847 85.6664 45.6653 91.551 43.875 98.1419C43.3402 98.1419 42.8053 98.0556 42.2705 98.0556C37.088 97.9463 32.0633 99.8672 28.2405 103.419C24.4178 106.971 22.0909 111.881 21.7435 117.128C21.3961 122.375 23.0549 127.556 26.3751 131.595C29.6953 135.634 34.4217 138.219 39.572 138.814V139.061H101.747C107.664 139.202 113.413 137.051 117.822 133.045C122.232 129.039 124.972 123.479 125.484 117.496C125.997 111.513 124.244 105.557 120.581 100.839C116.919 96.121 111.623 92.9958 105.77 92.099V92.0497Z" fill="white" stroke="#022C40" stroke-linecap="round" stroke-linejoin="round"/>
<path d="M75.9287 73.3416V70.2585" stroke="#022C40" stroke-linecap="round" stroke-linejoin="round"/>
<path d="M75.9287 64.2404V7.09229" stroke="#022C40" stroke-linecap="round" stroke-linejoin="round" stroke-dasharray="4.88 4.88"/>
<path d="M75.9287 4.08309V1" stroke="#022C40" stroke-linecap="round" stroke-linejoin="round"/>
<path d="M36.4236 293.339C35.0303 293.344 33.677 293.812 32.5704 294.67L17.2668 283.016C17.5513 282.282 17.6957 281.499 17.6922 280.71C17.706 279.245 17.2302 277.818 16.3424 276.662C15.4547 275.506 14.2073 274.689 12.8034 274.344C11.3994 273.999 9.92181 274.147 8.61115 274.763C7.3005 275.379 6.23407 276.427 5.58559 277.736C4.93711 279.046 4.7448 280.539 5.03998 281.974C5.33517 283.409 6.10046 284.7 7.21117 285.636C8.32189 286.573 9.71258 287.101 11.1567 287.134C12.6008 287.166 14.0132 286.702 15.1639 285.816L30.4675 297.458C30.1898 298.198 30.0457 298.984 30.042 299.776C30.0448 300.565 30.189 301.346 30.4675 302.082L15.1639 313.724C14.0171 312.843 12.6105 312.38 11.1722 312.412C9.73396 312.444 8.34842 312.967 7.24041 313.898C6.1324 314.829 5.36693 316.113 5.06819 317.54C4.76945 318.968 4.95496 320.456 5.59464 321.764C6.23431 323.071 7.29061 324.121 8.59217 324.743C9.89372 325.364 11.3642 325.522 12.7649 325.189C14.1657 324.856 15.4146 324.053 16.309 322.91C17.2034 321.767 17.6908 320.351 17.6922 318.891C17.6943 318.098 17.55 317.312 17.2668 316.573L32.5704 304.931C33.3778 305.549 34.3186 305.964 35.3151 306.141C36.3116 306.318 37.3353 306.252 38.3018 305.949C39.2683 305.645 40.1498 305.113 40.8737 304.396C41.5975 303.679 42.143 302.798 42.465 301.825C42.7871 300.852 42.8765 299.815 42.7259 298.8C42.5753 297.785 42.1891 296.821 41.599 295.987C41.0089 295.153 40.2318 294.474 39.332 294.005C38.4322 293.536 37.4353 293.291 36.4236 293.289V293.339Z" fill="#022C40"/>
<path d="M27.0154 80.8272V77.7441" stroke="#022C40" stroke-linecap="round" stroke-linejoin="round"/>
<path d="M27.0154 71.1218V8.22681" stroke="#022C40" stroke-linecap="round" stroke-linejoin="round" stroke-dasharray="5.37 5.37"/>
<path d="M27.0154 4.92171V1.83862" stroke="#022C40" stroke-linecap="round" stroke-linejoin="round"/>
<path d="M27.0154 279.625V276.542" stroke="#022C40" stroke-linecap="round" stroke-linejoin="round"/>
<path d="M27.0154 270.363V149.716" stroke="#022C40" stroke-linecap="round" stroke-linejoin="round" stroke-dasharray="5.02 5.02"/>
<path d="M27.0154 146.62V143.537" stroke="#022C40" stroke-linecap="round" stroke-linejoin="round"/>
<path d="M92.1075 471.035C100.62 471.035 107.52 452.671 107.52 430.018C107.52 407.365 100.62 389.001 92.1075 389.001C83.5951 389.001 76.6945 407.365 76.6945 430.018C76.6945 452.671 83.5951 471.035 92.1075 471.035Z" fill="#275F7A" stroke="#022C40" stroke-miterlimit="10"/>
<path d="M139.997 404.745C144.815 389.361 143.369 375.165 136.767 373.036C130.164 370.907 120.905 381.652 116.086 397.036C111.268 412.42 112.714 426.617 119.316 428.746C125.919 430.874 135.178 420.129 139.997 404.745Z" fill="#275F7A" stroke="#022C40" stroke-miterlimit="10"/>
<path d="M26.906 497.501C11.2134 494.8 -0.565135 486.994 0.589624 480.075C1.74438 473.157 15.407 469.716 31.0874 472.404C46.7678 475.093 58.5585 482.912 57.4038 489.83C56.249 496.748 42.5864 500.189 26.906 497.501Z" fill="#275F7A" stroke="#022C40" stroke-miterlimit="10"/>
<path d="M154.513 459.579C141.41 472.762 125.924 478.484 119.931 472.343C113.938 466.201 119.7 450.551 132.804 437.368C145.907 424.185 161.393 418.463 167.386 424.604C173.378 430.746 167.616 446.395 154.513 459.579Z" fill="#275F7A" stroke="#022C40" stroke-miterlimit="10"/>
<path d="M64.2109 423.408C76.889 442.067 80.6936 461.724 72.6468 467.323C64.5999 472.922 47.8741 462.353 35.1961 443.67C22.5181 424.986 18.7013 405.44 26.7603 399.779C34.8193 394.118 51.5207 404.761 64.2109 423.408Z" fill="#275F7A" stroke="#022C40" stroke-miterlimit="10"/>
<path d="M93.1892 468.988L94.3804 525.384" stroke="#022C40" stroke-miterlimit="10" stroke-linecap="round"/>
<path d="M91.7549 414.763L93.1893 468.988" stroke="#022C40" stroke-miterlimit="10" stroke-linecap="round"/>
<path d="M91.852 405.921L91.7549 410.077" stroke="#022C40" stroke-miterlimit="10" stroke-linecap="round"/>
<path d="M72.5859 464.635C81.4295 483.166 86.6041 503.278 87.8166 523.83" stroke="#022C40" stroke-miterlimit="10" stroke-linecap="round"/>
<path d="M46.1116 423.568C56.6878 436.009 65.5903 449.818 72.586 464.635" stroke="#022C40" stroke-miterlimit="10" stroke-linecap="round"/>
<path d="M37.785 414.627C37.785 414.627 39.3774 416.119 42.0029 418.944" stroke="#022C40" stroke-miterlimit="10" stroke-linecap="round"/>
<path d="M120.891 470.456C110.08 485.832 101.652 502.796 95.8999 520.759" stroke="#022C40" stroke-miterlimit="10" stroke-linecap="round"/>
<path d="M138.614 449.836C132.088 456.154 126.155 463.074 120.891 470.505" stroke="#022C40" stroke-miterlimit="10" stroke-linecap="round"/>
<path d="M157.552 435.136C152.733 437.914 148.208 441.187 144.047 444.903" stroke="#022C40" stroke-miterlimit="10" stroke-linecap="round"/>
<path d="M120.235 424.912C111.726 452.179 100.239 492.457 94.891 527.431" stroke="#022C40" stroke-miterlimit="10" stroke-linecap="round"/>
<path d="M125.437 408.745C123.918 413.345 122.155 418.796 120.235 424.912" stroke="#022C40" stroke-miterlimit="10" stroke-linecap="round"/>
<path d="M130.774 393.107C130.774 393.107 129.279 397.288 126.872 404.441" stroke="#022C40" stroke-miterlimit="10" stroke-linecap="round"/>
<path d="M56.6138 486.056C67.2862 490.163 77.6912 498.08 82.7599 513.076" stroke="#022C40" stroke-miterlimit="10" stroke-linecap="round"/>
<path d="M36.9342 481.987C43.6656 482.337 50.3073 483.709 56.638 486.056" stroke="#022C40" stroke-miterlimit="10" stroke-linecap="round"/>
<path d="M24.1347 482.308C24.1347 482.308 26.0309 482.036 29.167 481.913" stroke="#022C40" stroke-miterlimit="10" stroke-linecap="round"/>
<path d="M161.162 497.501C176.855 494.8 188.633 486.994 187.478 480.075C186.324 473.157 172.661 469.716 156.968 472.404C141.276 475.093 129.51 482.912 130.664 489.83C131.819 496.748 145.469 500.189 161.162 497.501Z" fill="#275F7A" stroke="#022C40" stroke-miterlimit="10"/>
<path d="M131.746 485.933C120.952 489.99 110.377 497.92 105.259 513.064" stroke="#022C40" stroke-miterlimit="10" stroke-linecap="round"/>
<path d="M152.811 481.9C145.624 482.107 138.514 483.468 131.746 485.933" stroke="#022C40" stroke-miterlimit="10" stroke-linecap="round"/>
<path d="M163.921 482.308C163.921 482.308 162.706 482.135 160.53 481.999" stroke="#022C40" stroke-miterlimit="10" stroke-linecap="round"/>
<path d="M131.564 561C136.31 550.915 138.8 539.89 138.857 528.714C138.864 522.025 137.881 515.374 135.94 508.982H53.8423C51.8952 515.373 50.9117 522.025 50.925 528.714C50.987 539.889 53.4772 550.913 58.2182 561H131.564Z" fill="#022C40"/>
<path d="M51.7273 518.207C51.4964 519.724 51.314 521.253 51.1803 522.819H138.59C138.456 521.253 138.273 519.724 138.043 518.207H51.7273Z" fill="#7A7A7A"/>
<path d="M137.666 541.786C137.933 540.257 138.176 538.715 138.359 537.174H51.4235C51.6058 538.715 51.8367 540.257 52.1163 541.786H137.666Z" fill="#7A7A7A"/>
<path d="M61.5367 528.973C61.5367 529.683 61.3293 530.376 60.9406 530.967C60.5519 531.557 59.9995 532.017 59.3532 532.288C58.7068 532.56 57.9956 532.631 57.3095 532.493C56.6233 532.354 55.993 532.012 55.4983 531.51C55.0037 531.009 54.6668 530.369 54.5303 529.673C54.3938 528.977 54.4638 528.255 54.7316 527.6C54.9993 526.944 55.4527 526.383 56.0344 525.989C56.616 525.595 57.2999 525.384 57.9995 525.384C58.9367 525.387 59.8345 525.767 60.4972 526.439C61.1598 527.111 61.5335 528.022 61.5367 528.973Z" fill="#8C8C8C"/>
<path d="M79.2227 528.973C79.2227 529.683 79.0153 530.376 78.6266 530.967C78.2379 531.557 77.6855 532.017 77.0391 532.288C76.3928 532.56 75.6816 532.631 74.9954 532.493C74.3093 532.354 73.679 532.012 73.1843 531.51C72.6896 531.009 72.3527 530.369 72.2163 529.673C72.0798 528.977 72.1498 528.255 72.4175 527.6C72.6853 526.944 73.1386 526.383 73.7203 525.989C74.302 525.595 74.9859 525.384 75.6855 525.384C76.6236 525.384 77.5233 525.762 78.1867 526.435C78.85 527.108 79.2227 528.021 79.2227 528.973Z" fill="#8C8C8C"/>
<path d="M96.9087 528.973C96.9087 529.683 96.7012 530.376 96.3126 530.967C95.9239 531.557 95.3715 532.017 94.7251 532.288C94.0788 532.56 93.3676 532.631 92.6814 532.493C91.9953 532.354 91.365 532.012 90.8703 531.51C90.3756 531.009 90.0387 530.369 89.9022 529.673C89.7658 528.977 89.8358 528.255 90.1035 527.6C90.3713 526.944 90.8246 526.383 91.4063 525.989C91.988 525.595 92.6719 525.384 93.3715 525.384C94.3096 525.384 95.2093 525.762 95.8727 526.435C96.536 527.108 96.9087 528.021 96.9087 528.973Z" fill="#8C8C8C"/>
<path d="M111.058 532.562C113.011 532.562 114.595 530.955 114.595 528.973C114.595 526.991 113.011 525.384 111.058 525.384C109.104 525.384 107.52 526.991 107.52 528.973C107.52 530.955 109.104 532.562 111.058 532.562Z" fill="#8C8C8C"/>
<path d="M132.281 528.973C132.281 529.683 132.073 530.376 131.685 530.967C131.296 531.557 130.744 532.017 130.097 532.288C129.451 532.56 128.74 532.631 128.054 532.493C127.367 532.354 126.737 532.012 126.243 531.51C125.748 531.009 125.411 530.369 125.274 529.673C125.138 528.977 125.208 528.255 125.476 527.6C125.743 526.944 126.197 526.383 126.779 525.989C127.36 525.595 128.044 525.384 128.744 525.384C129.682 525.384 130.582 525.762 131.245 526.435C131.908 527.108 132.281 528.021 132.281 528.973Z" fill="#8C8C8C"/>
<path d="M517.861 279.748C516.634 279.605 515.401 279.959 514.429 280.732C513.458 281.506 512.826 282.636 512.671 283.879L489.114 468.544L504.454 470.295L522.018 284.952C522.135 283.706 521.764 282.462 520.987 281.489C520.21 280.516 519.088 279.891 517.861 279.748Z" fill="#022C40" stroke="#022C40" stroke-linecap="round" stroke-linejoin="round"/>
<path d="M280.977 279.748C282.204 279.605 283.437 279.959 284.409 280.732C285.381 281.506 286.013 282.636 286.168 283.879L309.749 468.544L294.409 470.295L276.82 284.952C276.704 283.706 277.074 282.462 277.851 281.489C278.629 280.516 279.751 279.891 280.977 279.748Z" fill="#022C40" stroke="#022C40" stroke-linecap="round" stroke-linejoin="round"/>
<path d="M544.955 464.82H305.167C302.085 464.82 299.587 467.354 299.587 470.48V555.327C299.587 558.453 302.085 560.988 305.167 560.988H544.955C548.037 560.988 550.535 558.453 550.535 555.327V470.48C550.535 467.354 548.037 464.82 544.955 464.82Z" fill="white" stroke="#022C40" stroke-linecap="round" stroke-linejoin="round"/>
<path d="M550.778 476.684H299.344C296.545 476.684 294.275 478.986 294.275 481.826V544.006C294.275 546.846 296.545 549.149 299.344 549.149H550.778C553.577 549.149 555.847 546.846 555.847 544.006V481.826C555.847 478.986 553.577 476.684 550.778 476.684Z" fill="white" stroke="#022C40" stroke-linecap="round" stroke-linejoin="round"/>
<path d="M413.349 464.82H173.56C170.479 464.82 167.981 467.354 167.981 470.48V555.327C167.981 558.453 170.479 560.988 173.56 560.988H413.349C416.431 560.988 418.929 558.453 418.929 555.327V470.48C418.929 467.354 416.431 464.82 413.349 464.82Z" fill="white" stroke="#022C40" stroke-linecap="round" stroke-linejoin="round"/>
<path d="M419.172 476.684H167.738C164.939 476.684 162.669 478.986 162.669 481.826V544.006C162.669 546.846 164.939 549.149 167.738 549.149H419.172C421.971 549.149 424.241 546.846 424.241 544.006V481.826C424.241 478.986 421.971 476.684 419.172 476.684Z" fill="white" stroke="#022C40" stroke-linecap="round" stroke-linejoin="round"/>
<path d="M398.398 492.568H190.76C187.397 492.568 184.67 495.334 184.67 498.746V525.335C184.67 528.747 187.397 531.513 190.76 531.513H398.398C401.761 531.513 404.488 528.747 404.488 525.335V498.746C404.488 495.334 401.761 492.568 398.398 492.568Z" fill="#022C40" stroke="#022C40" stroke-linecap="round" stroke-linejoin="round"/>
<path d="M196.887 502.002C194.694 502.892 192.874 504.527 191.737 506.627C190.6 508.727 190.216 511.163 190.652 513.518C191.088 515.873 192.316 518.001 194.127 519.54C195.937 521.079 198.218 521.932 200.579 521.955C202.941 521.977 205.237 521.167 207.076 519.664C208.915 518.16 210.182 516.055 210.661 513.709C211.141 511.362 210.803 508.92 209.705 506.799C208.607 504.677 206.817 503.008 204.642 502.076" stroke="#275F7A" stroke-width="3" stroke-miterlimit="10" stroke-linecap="round"/>
<path d="M200.776 497.994V505.652" stroke="#275F7A" stroke-width="3" stroke-miterlimit="10" stroke-linecap="round"/>
<path d="M319.753 522.881C319.753 522.881 309.822 526.05 307.719 526.457C305.616 526.864 299.21 525.224 298.955 527.69C298.7 530.157 302.675 532.537 308.91 535.09C315.146 537.642 321.99 539.727 326.633 539.517C331.276 539.307 330.389 530.021 330.644 528.418C330.899 526.815 319.753 522.881 319.753 522.881Z" fill="white" stroke="#022C40" stroke-linecap="round" stroke-linejoin="round"/>
<path d="M312.168 532.845C304.401 529.589 300.778 527.912 299.198 527.111C299.054 527.289 298.969 527.509 298.955 527.74C298.761 530.317 302.675 532.586 308.91 535.139C315.146 537.692 321.99 539.776 326.633 539.566C328.371 539.48 329.331 538.136 329.866 536.397C323.791 536.442 317.769 535.234 312.168 532.845Z" fill="white" stroke="#022C40" stroke-linecap="round" stroke-linejoin="round"/>
<path d="M380.104 428.316L377.503 429.759V433.594C377.503 433.594 323.254 442.77 322.549 447.567C321.844 452.364 319.692 523.732 319.692 523.732C319.692 523.732 328.444 533.289 330.328 531.131C332.212 528.973 332.698 522.054 332.698 522.054L341.693 458.839C341.693 458.839 402.798 464.536 412.024 461.65C421.25 458.765 425.736 446.309 425.967 440.55C426.197 434.791 426.21 432.151 426.21 432.151L384.578 426.405L380.104 428.316Z" fill="#275F7A" stroke="#022C40" stroke-linecap="round" stroke-linejoin="round"/>
<path d="M361.665 525.458L361.276 526.112C359.314 529.291 357.072 532.283 354.578 535.053C350.555 539.369 343.942 542.97 344.173 544.401C344.404 545.831 348.902 546.806 364.266 542.008C371.182 539.85 376.324 539.85 377.029 537.445C377.734 535.04 372.07 524.743 372.07 524.743L361.665 525.458Z" fill="white" stroke="#022C40" stroke-linecap="round" stroke-linejoin="round"/>
<path d="M377.029 537.396C377.118 536.235 376.908 535.071 376.421 534.017C371.226 536.523 365.814 538.538 360.255 540.035C355.229 541.447 350.105 542.474 344.927 543.106C344.416 543.611 344.124 544.043 344.173 544.339C344.404 545.782 348.902 546.744 364.266 541.946C371.207 539.862 376.324 539.862 377.029 537.396Z" fill="white" stroke="#022C40" stroke-linecap="round" stroke-linejoin="round"/>
<path d="M395.007 438.626C395.007 438.626 389.33 433.594 388.856 436.468C388.382 439.341 387.434 440.069 387.434 440.069C387.434 440.069 347.723 444.903 343.249 447.74C338.776 450.576 337.342 454.461 339.943 460.22C342.544 465.979 360.036 529.059 360.036 529.059C361.858 529.894 363.76 530.534 365.713 530.971C368.314 531.452 373.747 528.812 373.747 528.812C373.747 528.812 373.091 517.06 371.438 513.224C369.785 509.389 363.014 465.128 363.014 465.128C363.014 465.128 391.713 465.239 401.413 465.239C411.113 465.239 421.737 457.087 423.864 450.366C425.991 443.645 425.079 442.215 425.079 442.215" fill="#275F7A"/>
<path d="M395.007 438.626C395.007 438.626 389.33 433.594 388.856 436.468C388.382 439.341 387.434 440.069 387.434 440.069C387.434 440.069 347.723 444.903 343.249 447.74C338.776 450.576 337.342 454.461 339.943 460.22C342.544 465.979 360.036 529.059 360.036 529.059C361.858 529.894 363.76 530.534 365.713 530.971C368.314 531.452 373.747 528.812 373.747 528.812C373.747 528.812 373.091 517.06 371.438 513.224C369.785 509.389 363.014 465.128 363.014 465.128C363.014 465.128 391.713 465.239 401.413 465.239C411.113 465.239 421.737 457.087 423.864 450.366C425.991 443.645 425.079 442.215 425.079 442.215" stroke="#022C40" stroke-linecap="round" stroke-linejoin="round"/>
<path d="M362.99 465.141L361.616 457.593" stroke="#022C40" stroke-linecap="round" stroke-linejoin="round"/>
<path d="M408.122 449.232C408.883 450.308 409.501 451.481 409.958 452.722" stroke="#022C40" stroke-linecap="round" stroke-linejoin="round"/>
<path d="M397.316 440.907C400.815 442.372 403.977 444.556 406.603 447.32" stroke="#022C40" stroke-linecap="round" stroke-linejoin="round"/>
<path d="M406.299 442.264C409.955 443.963 412.985 446.796 414.954 450.354" stroke="#022C40" stroke-linecap="round" stroke-linejoin="round"/>
<path d="M380.688 369.454C380.688 369.454 380.688 369.799 380.627 370.391C380.42 373.782 376.713 378.826 378.925 385.19C383.945 399.545 382.924 410.089 382.475 407.018C383.18 411.815 378.925 422.125 378.925 425.517C378.925 428.908 370.173 429.377 390.035 435.383C409.897 441.388 416.777 441.117 421.712 439.193C426.647 437.269 430.221 435.592 430.695 431.522C431.169 427.453 426.915 420.251 426.684 414.011C426.453 407.77 425.602 388.248 419.694 375.78C413.787 363.312 398.179 354.667 398.179 354.667L380.688 369.454Z" fill="white" stroke="#022C40" stroke-linecap="round" stroke-linejoin="round"/>
<path d="M411.806 416.539C412.839 415.737 413.799 414.923 414.686 414.072" stroke="#022C40" stroke-linecap="round" stroke-linejoin="round"/>
<path d="M386.887 430.647C394.209 427.382 401.276 423.556 408.025 419.203" stroke="#022C40" stroke-linecap="round" stroke-linejoin="round"/>
<path d="M394.508 429.266C391.7 430.691 388.76 431.836 385.732 432.682" stroke="#022C40" stroke-linecap="round" stroke-linejoin="round"/>
<path d="M398.35 427.157C398.35 427.157 397.681 427.576 396.563 428.193" stroke="#022C40" stroke-linecap="round" stroke-linejoin="round"/>
<path d="M401.619 395.45L408.001 387.545" stroke="#022C40" stroke-linecap="round" stroke-linejoin="round"/>
<path d="M378.5 316.264C376.9 317.959 375.475 319.814 374.246 321.802C373.212 323.873 373.03 325.378 371.267 326.734C369.505 328.091 365.858 327.215 365.956 329.349C366.053 331.482 368.241 333.517 368.241 333.517C368.241 333.517 366.466 346.54 367.135 348.612C367.803 350.684 376.993 351.079 376.993 351.079L381.672 366.543L398.192 355.185L398.629 350.684C399.042 348.859 402.008 343.21 404.464 338.968C406.919 334.726 405.825 323.553 399.893 318.743C393.962 313.933 386.109 314.427 383.69 314.254C381.271 314.081 378.5 316.264 378.5 316.264Z" fill="white" stroke="#022C40" stroke-linecap="round" stroke-linejoin="round"/>
<path d="M369.31 336.033C370.09 336.824 371.074 337.375 372.15 337.624C373.225 337.873 374.347 337.809 375.388 337.439" stroke="#022C40" stroke-linecap="round" stroke-linejoin="round"/>
<path d="M376.336 328.202C375.935 329.152 375.303 329.781 374.926 329.62C374.549 329.46 374.574 328.547 374.987 327.598C375.4 326.648 376.02 326.019 376.385 326.179C376.75 326.34 376.737 327.252 376.336 328.202Z" fill="#022C40"/>
<path d="M375.692 323.491C375.692 323.491 379.254 322.776 379.788 326.352" stroke="#022C40" stroke-linecap="round" stroke-linejoin="round"/>
<path d="M376.932 351.017L382.657 350.795L378.731 355.654L376.932 351.017Z" fill="#022C40" stroke="#022C40" stroke-linecap="round" stroke-linejoin="round"/>
<path d="M389.999 344.999L387.519 344.246L386.048 346.589" stroke="#022C40" stroke-linecap="round" stroke-linejoin="round"/>
<path d="M388.613 310.542C388.613 310.542 392.187 306.374 387.896 304.376C383.605 302.378 369.007 305.991 370.575 312.491C372.143 318.99 385.769 319.816 387.069 319.89C388.37 319.964 384.468 321.395 385.538 323.368C386.608 325.341 389.184 326.327 389.318 328.461C389.452 330.594 386.887 333.456 388.103 334.701C389.318 335.947 391.263 334.085 392.503 333.604C393.743 333.123 397.134 336.588 394.46 341.003C391.786 345.418 389.987 344.962 389.987 344.962C389.672 345.774 389.621 346.668 389.839 347.512C390.058 348.357 390.535 349.109 391.202 349.66C393.633 351.744 398.495 351.128 399.711 349.105C400.927 347.083 403.029 345.258 407.405 340.892C411.781 336.526 413.86 325.501 410.833 317.892C407.806 310.283 394.083 307.188 388.613 310.542Z" fill="#022C40" stroke="#022C40" stroke-linecap="round" stroke-linejoin="round"/>
<path d="M398.131 351.042L375.607 367.875L376.895 375.139L402.252 356.184L398.131 351.042Z" fill="white" stroke="#022C40" stroke-linecap="round" stroke-linejoin="round"/>
<path d="M341.9 449.195L381.575 440.377L372.301 434.791L334.656 443.312L341.9 449.195Z" fill="white" stroke="#022C40" stroke-linecap="round" stroke-linejoin="round"/>
<path d="M324.238 411.001L341.9 449.195L334.655 443.312L316.702 407.474L324.238 411.001Z" fill="#022C40" stroke="#022C40" stroke-linecap="round" stroke-linejoin="round"/>
<path d="M356.146 432.953L347.005 435.346L341.341 443.67C341.568 443.894 341.84 444.066 342.137 444.177C342.434 444.287 342.751 444.333 343.067 444.311C344.015 444.151 346.531 441.906 346.531 441.906L353.156 440.143C353.156 440.143 349.692 442.227 349.692 442.708C349.692 443.189 350.324 443.349 351.892 443.189C353.46 443.029 357.252 439.489 357.252 439.489L359.781 436.283L356.146 432.953Z" fill="white" stroke="#022C40" stroke-linecap="round" stroke-linejoin="round"/>
<path d="M380.846 391.307L376.166 412.962L356.146 432.953L360.875 437.43L377.503 429.759L378.658 426.713L382.669 408.572L380.846 391.307Z" fill="white" stroke="#022C40" stroke-linecap="round" stroke-linejoin="round"/>
<path d="M350.603 428.587C350.603 428.587 344.222 429.549 341.864 429.549C339.505 429.549 333.829 430.03 332.881 430.511C331.933 430.992 327.435 433.866 327.678 436.024C327.921 438.182 331.933 436.27 331.933 436.27C332.767 438.211 333.797 440.059 335.008 441.783C336.892 444.422 337.84 443.46 341.621 442.03C345.401 440.599 351.077 436.27 351.077 436.27L354.396 433.15L350.603 428.587Z" fill="white" stroke="#022C40" stroke-linecap="round" stroke-linejoin="round"/>
<path d="M406.117 361.154C406.117 361.154 396.393 359.711 392.88 364.509C388.844 370.295 386.174 376.944 385.076 383.944C384.359 390.172 379.873 402.652 379.873 402.652L349.813 428.045L355.016 435.95C355.016 435.95 391.482 418.685 392.406 417.525C393.329 416.366 405.4 384.66 405.4 384.66" fill="white"/>
<path d="M406.117 361.154C406.117 361.154 396.393 359.711 392.88 364.509C388.844 370.295 386.174 376.944 385.076 383.944C384.359 390.172 379.873 402.652 379.873 402.652L349.813 428.045L355.016 435.95C355.016 435.95 391.482 418.685 392.406 417.525C393.329 416.366 405.4 384.66 405.4 384.66" stroke="#022C40" stroke-linecap="round" stroke-linejoin="round"/>
<path d="M13.2313 561H572.512" stroke="#022C40" stroke-linecap="round" stroke-linejoin="round"/>
</svg>
