<svg width="40" height="41" viewBox="0 0 40 41" fill="none" xmlns="http://www.w3.org/2000/svg">
<g clip-path="url(#clip0_2_1022)">
<path d="M29.1723 0.956543H10.8276C4.85717 0.956543 0 5.70858 0 11.5498V29.4977C0 35.3386 4.85717 40.0907 10.8276 40.0907H29.1726C35.1428 40.0907 39.9999 35.3386 39.9999 29.4977V11.5498C39.9999 5.70858 35.1428 0.956543 29.1723 0.956543V0.956543ZM37.655 29.4977C37.655 34.0736 33.8497 37.7965 29.1723 37.7965H10.8276C6.1502 37.7965 2.34497 34.0736 2.34497 29.4977V11.5498C2.34497 6.97362 6.1502 3.25075 10.8276 3.25075H29.1726C33.8497 3.25075 37.655 6.97362 37.655 11.5498V29.4977Z" fill="white"/>
<path d="M20 9.82312C13.9691 9.82312 9.06279 14.6232 9.06279 20.5236C9.06279 26.4239 13.9691 31.224 20 31.224C26.0308 31.224 30.9371 26.4239 30.9371 20.5236C30.9371 14.6232 26.0308 9.82312 20 9.82312ZM20 28.9298C15.2624 28.9298 11.4078 25.1589 11.4078 20.5236C11.4078 15.8886 15.2624 12.1173 20 12.1173C24.7378 12.1173 28.5922 15.8886 28.5922 20.5236C28.5922 25.1589 24.7378 28.9298 20 28.9298Z" fill="white"/>
<path d="M31.1987 6.02295C29.4164 6.02295 27.9669 7.44145 27.9669 9.1848C27.9669 10.9284 29.4164 12.347 31.1987 12.347C32.9809 12.347 34.4308 10.9284 34.4308 9.1848C34.4308 7.44115 32.9809 6.02295 31.1987 6.02295ZM31.1987 10.0524C30.7098 10.0524 30.3118 9.66311 30.3118 9.1848C30.3118 8.70619 30.7098 8.31716 31.1987 8.31716C31.6879 8.31716 32.0858 8.70619 32.0858 9.1848C32.0858 9.66311 31.6879 10.0524 31.1987 10.0524Z" fill="white"/>
</g>
<defs>
<clipPath id="clip0_2_1022">
<rect width="40" height="39.1342" fill="white" transform="translate(0 0.956543)"/>
</clipPath>
</defs>
</svg>
