<svg width="250" height="229" viewBox="0 0 250 229" fill="none" xmlns="http://www.w3.org/2000/svg">
<path d="M17.6587 129.406V28.2677H26.1574" stroke="#022C40" stroke-linecap="round" stroke-linejoin="round"/>
<path d="M17.6645 145.94V142.254" stroke="#022C40" stroke-linecap="round" stroke-linejoin="round"/>
<path d="M48.0055 28.2677H135.661V158.887H17.6587" stroke="#022C40" stroke-linecap="round" stroke-linejoin="round"/>
<path d="M37.2561 28.2676H44.9587" stroke="#022C40" stroke-linecap="round" stroke-linejoin="round"/>
<path d="M131.223 32.7546H22.097V154.405H131.223V32.7546Z" stroke="#022C40" stroke-linecap="round" stroke-linejoin="round"/>
<path d="M126.149 41.2891V88.603H27.1709V84.2897" stroke="#022C40" stroke-linecap="round" stroke-linejoin="round"/>
<path d="M27.1709 74.1669V37.4509H126.149" stroke="#022C40" stroke-linecap="round" stroke-linejoin="round"/>
<path d="M27.1767 80.9675V76.77" stroke="#022C40" stroke-linecap="round" stroke-linejoin="round"/>
<path d="M109.438 93.5771H131.223" stroke="#022C40" stroke-linecap="round" stroke-linejoin="round"/>
<path d="M101.689 93.5771H104.77" stroke="#022C40" stroke-linecap="round" stroke-linejoin="round"/>
<path d="M22.097 93.5771H98.007" stroke="#022C40" stroke-linecap="round" stroke-linejoin="round"/>
<path d="M71.1763 88.6022V86.3301H80.2993V87.6226H76.6627V88.6022" stroke="#022C40" stroke-linecap="round" stroke-linejoin="round"/>
<path d="M22.286 134.351C22.286 134.351 23.7979 135.511 24.8631 142.526C24.8631 142.526 26.6957 131.319 28.9178 131.145C31.1398 130.971 30.6702 138.439 30.6702 138.439C30.6702 138.439 31.0367 134.757 32.7777 134.925C34.5187 135.093 32.7777 142.526 32.7777 142.526C32.7777 142.526 34.868 136.728 36.8438 136.833C38.8196 136.937 35.5323 147.332 35.5323 147.332C35.5323 147.332 40.6064 143.61 42.6623 145.431C44.7183 147.251 41.5169 151.843 41.5169 151.843C41.5169 151.843 48.7958 150.243 49.924 154.562" stroke="#022C40" stroke-linecap="round" stroke-linejoin="round"/>
<path d="M49.941 150.376C49.941 150.376 53.1137 148.271 55.6049 149.251C55.6049 149.251 54.0186 146.804 55.6049 145.309C57.1913 143.813 59.23 149.251 59.23 149.251C59.23 149.251 59.4591 140.143 62.6318 140.601C65.8045 141.059 62.6318 149.251 62.6318 149.251C62.6318 149.251 68.2957 144.172 69.653 145.941C71.0103 147.709 68.7481 150.376 68.7481 150.376C68.7481 150.376 72.1442 149.274 74.6354 151.843C74.6354 151.843 78.4323 147.918 82.653 147.355C82.653 147.355 79.8469 139.111 81.2099 137.447C82.5729 135.783 85.0354 144.642 85.0354 144.642C85.0354 144.642 86.1178 138.879 89.6627 138.439C89.6627 138.439 86.7077 136.809 87.5839 134.351C88.4601 131.893 92.5376 134.931 92.5376 134.931C92.5376 134.931 90.8597 130.6 93.5112 129.412C96.1628 128.223 97.2681 133.035 97.2681 133.035C97.2681 133.035 98.0068 127.991 101.122 128.27C104.238 128.548 103.23 134.357 103.23 134.357C103.23 134.357 106.168 129.719 107.743 130.212C110.887 131.151 109.93 138.444 109.93 138.444C109.93 138.444 114.323 135.354 115.451 136.775C116.671 138.311 110.869 142.259 110.869 142.259C110.869 142.259 115.228 142.746 117.936 145.315" stroke="#022C40" stroke-linecap="round" stroke-linejoin="round"/>
<path d="M131.223 136.015C131.223 136.015 130.725 131.377 126.149 131.145C121.573 130.914 127.409 141.291 127.409 141.291C127.409 141.291 123.635 138.131 122.283 139.105C120.932 140.079 126.149 145.431 126.149 145.431C126.149 145.431 123.646 143.112 120.995 143.813C118.343 144.515 122.501 151.988 122.501 151.988C118.582 151.187 114.512 151.668 110.881 153.362" stroke="#022C40" stroke-linecap="round" stroke-linejoin="round"/>
<path d="M176.74 198.224V140.433H241.019" stroke="#022C40" stroke-linecap="round" stroke-linejoin="round"/>
<path d="M238.682 146.411H181.912V200.241" stroke="#022C40" stroke-linecap="round" stroke-linejoin="round"/>
<path d="M193.274 175.769V151.843H196.99V156.777H201.95V154.562H206.383V157.246H212.367V151.843H218.489V155.472H221.788V153.362H227.698V167.456" stroke="#022C40" stroke-linecap="round" stroke-linejoin="round"/>
<path d="M221.788 155.472V175.769" stroke="#022C40" stroke-linecap="round" stroke-linejoin="round"/>
<path d="M218.965 158.51V162.133" stroke="#022C40" stroke-linecap="round" stroke-linejoin="round"/>
<path d="M218.965 164.731V179.613" stroke="#022C40" stroke-linecap="round" stroke-linejoin="round"/>
<path d="M212.367 157.252V170.621" stroke="#022C40" stroke-linecap="round" stroke-linejoin="round"/>
<path d="M212.596 175.027V179.19" stroke="#022C40" stroke-linecap="round" stroke-linejoin="round"/>
<path d="M206.383 157.252V164.731" stroke="#022C40" stroke-linecap="round" stroke-linejoin="round"/>
<path d="M206.383 169.329V185.086" stroke="#022C40" stroke-linecap="round" stroke-linejoin="round"/>
<path d="M201.95 156.777V175.352" stroke="#022C40" stroke-linecap="round" stroke-linejoin="round"/>
<path d="M196.99 156.777V163.803" stroke="#022C40" stroke-linecap="round" stroke-linejoin="round"/>
<path d="M196.99 167.456V184.159" stroke="#022C40" stroke-linecap="round" stroke-linejoin="round"/>
<path d="M193.274 179.19V186.732" stroke="#022C40" stroke-linecap="round" stroke-linejoin="round"/>
<path d="M185.605 186.733H230.722" stroke="#022C40" stroke-linecap="round" stroke-linejoin="round"/>
<path d="M221.788 186.732V181.903" stroke="#022C40" stroke-linecap="round" stroke-linejoin="round"/>
<path d="M212.596 183.179V186.506" stroke="#022C40" stroke-linecap="round" stroke-linejoin="round"/>
<path d="M228.202 159.56H232.577" stroke="#022C40" stroke-linecap="round" stroke-linejoin="round"/>
<path d="M185.777 190.942H227.698" stroke="#022C40" stroke-linecap="round" stroke-linejoin="round"/>
<path d="M194.774 203.215V197.592H202.54V201.215H208.788V208.282H212.367V197.806H220.299V200.241H225.173" stroke="#022C40" stroke-linecap="round" stroke-linejoin="round"/>
<path d="M220.299 200.241V206.27" stroke="#022C40" stroke-linecap="round" stroke-linejoin="round"/>
<path d="M212.596 210.833V214.891" stroke="#022C40" stroke-linecap="round" stroke-linejoin="round"/>
<path d="M208.788 208.282V213.628" stroke="#022C40" stroke-linecap="round" stroke-linejoin="round"/>
<path d="M202.54 201.215V204.281" stroke="#022C40" stroke-linecap="round" stroke-linejoin="round"/>
<path d="M238.877 17.0786H101.638V113.069H238.877V17.0786Z" fill="#275F7A" stroke="#022C40" stroke-linecap="round" stroke-linejoin="round"/>
<path d="M238.877 17.0786H101.638V26.5692H238.877V17.0786Z" fill="#022C40"/>
<path d="M157.234 82.893L154.016 78.3593C154.015 77.4124 153.968 76.4662 153.873 75.5243C153.753 75.101 151.8 71.9877 151.754 71.2515C151.747 70.8999 151.702 70.55 151.622 70.2079C151.622 70.2079 150.62 70.463 150.631 71.0833C150.643 71.7037 150.752 73.7966 150.752 73.7966C150.752 73.7966 148.14 72.2544 147.848 71.8486C147.556 71.4428 144.372 69.0774 144.074 68.7237C143.776 68.3701 142.562 68.3469 142.419 68.7237L142.591 69.1585L141.589 69.6397L142.259 71.6515C142.067 72.1044 141.951 72.5863 141.915 73.0777C142.024 73.327 142.379 74.817 142.379 74.817C142.379 74.817 142.161 75.0431 142.19 75.8315C142.219 76.62 146.497 80.6493 147.344 81.0841C148.356 81.5147 149.393 81.8845 150.448 82.1915L153.134 85.7106L157.234 82.893Z" fill="white" stroke="#022C40" stroke-linecap="round" stroke-linejoin="round"/>
<path d="M150.746 73.7964C150.246 74.9481 150.118 76.2299 150.379 77.4596" stroke="#022C40" stroke-linecap="round" stroke-linejoin="round"/>
<path d="M142.585 69.1582C143.45 69.4944 144.532 71.1289 145.03 71.6332C145.481 72.0445 145.964 72.4186 146.474 72.7518" stroke="#022C40" stroke-linecap="round" stroke-linejoin="round"/>
<path d="M142.253 71.634C142.963 71.4833 143.444 71.7615 143.427 72.4628C143.41 73.1642 144.945 74.2307 144.945 74.2307" stroke="#022C40" stroke-linecap="round" stroke-linejoin="round"/>
<path d="M142.373 74.7991C142.373 74.7991 142.871 73.9007 143.267 74.3122C143.662 74.7238 143.788 75.7787 144.515 75.9989" stroke="#022C40" stroke-linecap="round" stroke-linejoin="round"/>
<path d="M199.087 77.965C199.087 77.965 187.787 78.6723 185.296 79.7043C183.252 80.5565 168.872 90.1399 168.872 90.1399C168.872 90.1399 160.413 83.6814 157.956 81.4435C157.482 81.2116 156.973 81.0626 156.45 81.0029L155.161 80.1739L151.994 84.6902L152.882 85.9366C152.882 85.9366 153.025 87.9484 153.42 88.4528C158.678 95.1374 168.746 104.495 170.257 105.416C171.769 106.338 185.182 98.3029 185.182 98.3029L187.673 113.087H227.675C227.675 113.087 227.572 87.1425 225.888 85.154C224.205 83.1654 204.905 75.3677 204.905 75.3677L199.087 77.965Z" fill="#757575" stroke="#022C40" stroke-linecap="round" stroke-linejoin="round"/>
<path d="M212.596 68.5786C212.596 68.5786 209.011 71.0136 210.913 78.7939C210.913 78.7939 205.512 82.7015 200.169 78.7591C200.169 78.7591 201.4 72.5558 200.169 71.3093" fill="white"/>
<path d="M212.596 68.5786C212.596 68.5786 209.011 71.0136 210.913 78.7939C210.913 78.7939 205.512 82.7015 200.169 78.7591C200.169 78.7591 201.4 72.5558 200.169 71.3093" stroke="#022C40" stroke-linecap="round" stroke-linejoin="round"/>
<path d="M225.173 86.3599C225.173 86.3599 220.299 92.0357 219.732 101.752" stroke="#022C40" stroke-linecap="round" stroke-linejoin="round"/>
<path d="M203.725 52.9891C203.725 52.9891 200.53 52.5022 199.413 56.4677C198.763 58.8963 199.026 61.4829 200.152 63.7263L206.028 58.1432L203.725 52.9891Z" fill="#022C40"/>
<path d="M211.502 70.944C215.62 65.9696 218.529 57.6791 212.344 54.3687C200.409 47.9798 196.464 60.462 198.468 72.0571C199.087 75.6342 203.886 74.0399 207.396 72.747" fill="white"/>
<path d="M211.502 70.944C215.62 65.9696 218.529 57.6791 212.344 54.3687C200.409 47.9798 196.464 60.462 198.468 72.0571C199.087 75.6342 203.886 74.0399 207.396 72.747" stroke="#022C40" stroke-linecap="round" stroke-linejoin="round"/>
<path d="M203.164 60.1316C203.164 60.1316 205.134 60.6706 205.632 61.7371" stroke="#022C40" stroke-linecap="round" stroke-linejoin="round"/>
<path d="M200.312 59.6042C200.08 59.4884 199.822 59.4351 199.563 59.4493C199.304 59.4635 199.054 59.5448 198.835 59.6853" stroke="#022C40" stroke-linecap="round" stroke-linejoin="round"/>
<path d="M203.13 62.8794C203.095 63.2329 203.25 63.5402 203.473 63.5633C203.697 63.5865 203.909 63.3141 203.943 62.9837C203.977 62.6533 203.823 62.3172 203.599 62.294C203.376 62.2708 203.164 62.52 203.13 62.8794Z" fill="#022C40"/>
<path d="M198.858 61.807C198.829 62.1664 198.984 62.4736 199.207 62.4968C199.43 62.52 199.642 62.2475 199.676 61.9172C199.711 61.5868 199.556 61.2564 199.327 61.2332C199.098 61.21 198.892 61.4535 198.858 61.807Z" fill="#022C40"/>
<path d="M209.664 65.2044C209.664 65.2044 207.814 67.9176 206.572 68.7873C205.769 69.3078 204.801 69.5024 203.863 69.3323C203.863 69.3323 202.276 67.3495 199.963 67.3205C199.364 66.9345 198.683 66.698 197.976 66.6306L198.107 63.6042C198.107 63.6042 196.349 70.0917 196.515 72.4166C196.681 74.7414 202.328 76.3531 205.151 75.7038C207.975 75.0544 209.412 70.6077 210.271 66.4277C210.334 66.0798 209.664 65.2044 209.664 65.2044Z" fill="#022C40"/>
<path d="M198.319 68.8162C198.319 68.8162 200.553 69.9 202.54 69.645" stroke="white" stroke-linecap="round" stroke-linejoin="round"/>
<path d="M211.514 56.937C212.247 56.3572 210.369 53.8643 209.315 53.9165C208.261 53.9686 203.09 54.1658 203.09 54.1658C203.09 54.1658 202.002 48.403 210.707 51.5163C212.133 52.0265 212.591 53.3773 213.868 54.0672C215.145 54.7571 216.874 58.3864 216.382 61.4823C215.889 64.5782 214.257 70.0105 211.296 71.6396C211.296 71.6396 210.277 71.5353 210.896 70.8222C213.811 67.5002 210.758 61.2504 210.271 66.416L209.246 65.7957C209.238 65.2285 209.296 64.6622 209.418 64.1086C209.636 62.6882 208.084 59.7836 211.514 56.937Z" fill="#022C40"/>
<path d="M211.067 64.8278C211.067 64.8278 212.94 62.5783 214.074 63.3436C215.208 64.1089 214.446 66.8221 213.839 67.5005C213.232 68.1788 212.74 68.3295 211.898 69.4137C211.056 70.4978 209.996 70.1326 210.18 69.2629" fill="white"/>
<path d="M211.067 64.8278C211.067 64.8278 212.94 62.5783 214.074 63.3436C215.208 64.1089 214.446 66.8221 213.839 67.5005C213.232 68.1788 212.74 68.3295 211.898 69.4137C211.056 70.4978 209.996 70.1326 210.18 69.2629" stroke="#022C40" stroke-linecap="round" stroke-linejoin="round"/>
<path d="M205.34 63.1694C205.403 64.4275 204.647 65.4885 203.622 65.5406C202.597 65.5928 201.761 64.6188 201.698 63.3608C201.635 62.1027 202.391 61.0417 203.416 60.9896C204.441 60.9374 205.266 61.9114 205.34 63.1694Z" stroke="#022C40" stroke-width="0.5" stroke-miterlimit="10"/>
<path d="M200.06 62.0271C200.129 63.2852 199.367 64.3461 198.371 64.4041C197.374 64.4621 196.509 63.4765 196.441 62.2184C196.372 60.9603 197.139 59.8994 198.159 59.8472C199.178 59.795 199.997 60.769 200.06 62.0271Z" stroke="#022C40" stroke-width="0.5" stroke-miterlimit="10"/>
<path d="M200.604 60.949C200.604 61.5287 197.638 64.9551 197.603 65.7088C197.569 66.4625 200.364 66.5088 200.364 66.5088" fill="white"/>
<path d="M200.604 60.949C200.604 61.5287 197.638 64.9551 197.603 65.7088C197.569 66.4625 200.364 66.5088 200.364 66.5088" stroke="#022C40" stroke-linecap="round" stroke-linejoin="round"/>
<path d="M200.06 62.0272C200.06 62.0272 200.948 61.8011 201.692 63.0125" stroke="#022C40" stroke-width="0.5" stroke-miterlimit="10"/>
<path d="M205.352 63.6101L206.314 63.755L211.714 64.1376" stroke="#022C40" stroke-width="0.5" stroke-miterlimit="10"/>
<path d="M221.788 89.4495L220.711 88.0986C220.711 88.0986 211.64 89.148 207.631 94.6209C207.631 94.6209 200.186 91.0612 193.486 92.7947L193.291 95.2239L207.946 104.1L213.673 101.688L221.788 89.4495Z" fill="white" stroke="#022C40" stroke-linecap="round" stroke-linejoin="round"/>
<path d="M223.26 88.6321L221.714 99.0677C221.714 99.0677 213.18 102.859 211.405 105.909L210.981 105.967L208.977 106.251L207.895 105.926C205.246 105.146 202.548 104.549 199.82 104.141C198.872 103.993 197.912 103.956 196.956 104.03L191.183 94.9224C191.183 94.9224 200.112 93.6702 206.285 95.8095L209.24 95.6008L209.349 95.508C210.237 94.7717 216.456 89.7684 223.26 88.6321Z" fill="#275F7A"/>
<path opacity="0.3" d="M210.867 103.532L209.349 95.5024C210.231 94.772 216.451 89.7686 223.254 88.6323L221.708 99.068C221.708 99.068 213.175 102.86 211.399 105.909L210.976 105.967L210.867 103.532Z" fill="black" fill-opacity="0.7"/>
<path opacity="0.3" d="M207.929 104.1L207.889 105.921C205.241 105.14 202.543 104.544 199.814 104.135C199.935 102.294 200.647 100.543 201.84 99.1477C203.034 97.7528 204.645 96.7906 206.429 96.4071L207.929 104.1Z" fill="black" fill-opacity="0.7"/>
<path d="M223.26 88.6321L221.714 99.0677C221.714 99.0677 213.18 102.859 211.405 105.909L210.981 105.967L208.977 106.251L207.895 105.926C205.246 105.146 202.548 104.549 199.82 104.141C198.872 103.993 197.912 103.956 196.956 104.03L191.183 94.9224C191.183 94.9224 200.112 93.6702 206.285 95.8095L209.24 95.6008L209.349 95.508C210.237 94.7717 216.456 89.7684 223.26 88.6321Z" stroke="#022C40" stroke-linecap="round" stroke-linejoin="round"/>
<path d="M210.832 108.454C207.774 108.257 201.956 103.515 201.956 103.515C201.606 102.63 201.114 101.809 200.501 101.086C199.671 100.245 200.776 99.5434 200.776 99.5434C200.776 99.5434 199.808 98.9114 199.258 98.5636C198.709 98.2157 199.671 97.2997 199.671 97.2997C199.671 97.2997 203.823 97.8795 204.252 97.7229C204.682 97.5664 208.668 100.175 209.286 100.245C210.126 100.26 210.954 100.042 211.68 99.6129C212.092 99.2651 213.37 97.091 214.2 96.6678C215.03 96.2445 216.491 96.2503 215.792 97.1606C215.093 98.0708 215.219 100.1 214.876 100.384C214.532 100.668 213.965 103.718 213.965 104.767L218.489 108.953L215.912 112.507L210.832 108.454Z" fill="white" stroke="#022C40" stroke-linecap="round" stroke-linejoin="round"/>
<path d="M200.759 99.5435C201.572 99.6355 202.365 99.8606 203.107 100.21" stroke="#022C40" stroke-linecap="round" stroke-linejoin="round"/>
<path d="M203.84 101.201C203.84 101.201 203.582 102.262 203.513 102.425C203.445 102.587 204.367 103.625 204.235 104.1C204.103 104.576 205.169 105.839 205.169 105.839" stroke="#022C40" stroke-linecap="round" stroke-linejoin="round"/>
<path d="M202.798 102.424C202.002 102.037 201.236 101.589 200.507 101.085" stroke="#022C40" stroke-linecap="round" stroke-linejoin="round"/>
<path d="M200.581 76.0227L202.563 80.0636L210.706 75.4951L212.499 79.5418L204.189 84.8814L202.591 80.7013L199.362 83.8494L198.268 78.7592L200.581 76.0227Z" fill="#757575" stroke="#022C40" stroke-linecap="round" stroke-linejoin="round"/>
<path d="M225.911 85.1362C227.887 87.2755 234.914 102.964 235.59 113.069H214.183V112.165L211.846 110.779C211.846 110.779 213.295 105.619 217.424 106.425L218.627 108.164L221.29 110.193C221.29 110.193 225.963 110.315 227.32 111.678" fill="#757575"/>
<path d="M225.911 85.1362C227.887 87.2755 234.914 102.964 235.59 113.069H214.183V112.165L211.846 110.779C211.846 110.779 213.295 105.619 217.424 106.425L218.627 108.164L221.29 110.193C221.29 110.193 225.963 110.315 227.32 111.678" stroke="#022C40" stroke-linecap="round" stroke-linejoin="round"/>
<path d="M221.29 110.216C221.29 110.216 223.884 106.431 227.698 108.031" stroke="#022C40" stroke-linecap="round" stroke-linejoin="round"/>
<path d="M220.299 104.1C221.132 105.665 221.874 107.277 222.521 108.929" stroke="#022C40" stroke-linecap="round" stroke-linejoin="round"/>
<path d="M185.182 98.2854C185.182 98.2854 183.595 88.9282 184.036 85.6931L185.182 98.2854Z" fill="#757575"/>
<path d="M185.182 98.2854C185.182 98.2854 183.595 88.9282 184.036 85.6931" stroke="#022C40" stroke-linecap="round" stroke-linejoin="round"/>
<path d="M182.009 89.3398C182.009 89.3398 182.891 93.9373 184.873 96.4013L182.009 89.3398Z" fill="#757575"/>
<path d="M182.009 89.3398C182.009 89.3398 182.891 93.9373 184.873 96.4013" stroke="#022C40" stroke-linecap="round" stroke-linejoin="round"/>
<path d="M168.872 90.1455C168.872 90.1455 171.363 92.2326 169.776 97.4389L168.872 90.1455Z" fill="#757575"/>
<path d="M168.872 90.1455C168.872 90.1455 171.363 92.2326 169.776 97.4389" stroke="#022C40" stroke-linecap="round" stroke-linejoin="round"/>
<path d="M202.185 84.0117C202.185 84.1197 202.153 84.2252 202.094 84.315C202.034 84.4047 201.95 84.4745 201.851 84.5156C201.753 84.5566 201.644 84.5671 201.539 84.5456C201.435 84.5241 201.339 84.4716 201.264 84.3948C201.189 84.3181 201.138 84.2204 201.118 84.1144C201.098 84.0083 201.109 83.8986 201.151 83.7991C201.193 83.6997 201.262 83.615 201.352 83.5558C201.441 83.4967 201.546 83.4657 201.652 83.4668C201.723 83.4668 201.792 83.481 201.857 83.5084C201.922 83.5359 201.981 83.5761 202.031 83.6268C202.08 83.6774 202.12 83.7375 202.146 83.8036C202.172 83.8697 202.186 83.9404 202.185 84.0117Z" fill="#022C40"/>
<path d="M200.776 91.9889C201.073 91.9889 201.314 91.7449 201.314 91.444C201.314 91.1431 201.073 90.8992 200.776 90.8992C200.479 90.8992 200.238 91.1431 200.238 91.444C200.238 91.7449 200.479 91.9889 200.776 91.9889Z" fill="#022C40"/>
<path d="M199.963 108.726C200.26 108.726 200.501 108.482 200.501 108.182C200.501 107.881 200.26 107.637 199.963 107.637C199.665 107.637 199.424 107.881 199.424 108.182C199.424 108.482 199.665 108.726 199.963 108.726Z" fill="#022C40"/>
<path d="M130.284 59.0008H137.03L140.409 53.0815L137.03 47.168H130.284L126.911 53.0815L130.284 59.0008Z" stroke="#022C40" stroke-linecap="round" stroke-linejoin="round"/>
<path d="M129.304 71.9758L125.931 66.0623H119.185" stroke="#022C40" stroke-linecap="round" stroke-linejoin="round"/>
<path d="M120.09 53.0816H126.836L130.209 47.1681L126.836 41.2488H120.09L116.717 47.1681L120.09 53.0816Z" stroke="#022C40" stroke-linecap="round" stroke-linejoin="round"/>
<path d="M130.284 47.168H137.03L140.409 41.2487L137.03 35.3352H130.284L126.911 41.2487L130.284 47.168Z" stroke="#022C40" stroke-linecap="round" stroke-linejoin="round"/>
<path d="M129.304 47.1678C129.303 46.9851 129.356 46.8061 129.456 46.6537C129.555 46.5012 129.697 46.3822 129.864 46.3117C130.031 46.2413 130.214 46.2225 130.391 46.2579C130.568 46.2933 130.731 46.3812 130.859 46.5104C130.987 46.6396 131.073 46.8044 131.108 46.9837C131.143 47.163 131.125 47.3488 131.055 47.5174C130.986 47.686 130.868 47.8299 130.717 47.9307C130.567 48.0316 130.39 48.0848 130.209 48.0836C129.969 48.0836 129.739 47.9872 129.57 47.8154C129.4 47.6437 129.304 47.4107 129.304 47.1678Z" fill="#022C40"/>
<path d="M116.121 35.6651C116.621 35.6651 117.026 35.2551 117.026 34.7493C117.026 34.2435 116.621 33.8335 116.121 33.8335C115.621 33.8335 115.216 34.2435 115.216 34.7493C115.216 35.2551 115.621 35.6651 116.121 35.6651Z" fill="#022C40"/>
<path d="M128.4 71.9756C128.4 71.7945 128.453 71.6174 128.552 71.4668C128.651 71.3162 128.793 71.1988 128.958 71.1295C129.123 71.0602 129.305 71.0421 129.481 71.0774C129.656 71.1127 129.818 71.2 129.944 71.328C130.071 71.4561 130.157 71.6193 130.192 71.7969C130.227 71.9746 130.209 72.1587 130.14 72.3261C130.072 72.4934 129.956 72.6364 129.807 72.7371C129.658 72.8377 129.483 72.8914 129.304 72.8914C129.064 72.8914 128.834 72.7949 128.665 72.6232C128.495 72.4514 128.4 72.2185 128.4 71.9756Z" fill="#022C40"/>
<path d="M119.185 66.9781C119.685 66.9781 120.09 66.5681 120.09 66.0623C120.09 65.5565 119.685 65.1465 119.185 65.1465C118.685 65.1465 118.28 65.5565 118.28 66.0623C118.28 66.5681 118.685 66.9781 119.185 66.9781Z" fill="#022C40"/>
<path d="M146.926 41.4052C146.926 41.2227 146.98 41.0443 147.08 40.8926C147.18 40.7409 147.323 40.6228 147.489 40.5532C147.656 40.4837 147.84 40.4657 148.016 40.5018C148.193 40.5378 148.355 40.6262 148.483 40.7556C148.61 40.8851 148.696 41.0499 148.73 41.229C148.765 41.4082 148.746 41.5936 148.676 41.7619C148.606 41.9302 148.489 42.0738 148.338 42.1743C148.188 42.2749 148.011 42.328 147.831 42.3268C147.712 42.3268 147.593 42.3029 147.483 42.2565C147.373 42.2102 147.273 42.1422 147.189 42.0565C147.105 41.9709 147.038 41.8692 146.993 41.7575C146.948 41.6457 146.925 41.526 146.926 41.4052Z" fill="#022C40"/>
<path d="M125.863 66.9781C126.362 66.9781 126.767 66.5681 126.767 66.0623C126.767 65.5565 126.362 65.1465 125.863 65.1465C125.363 65.1465 124.958 65.5565 124.958 66.0623C124.958 66.5681 125.363 66.9781 125.863 66.9781Z" fill="#022C40"/>
<path d="M139.481 41.4052C139.481 41.223 139.535 41.0448 139.635 40.8932C139.735 40.7417 139.877 40.6235 140.043 40.5538C140.21 40.484 140.393 40.4658 140.569 40.5014C140.746 40.5369 140.908 40.6247 141.036 40.7536C141.163 40.8825 141.25 41.0467 141.285 41.2254C141.32 41.4042 141.302 41.5895 141.233 41.7579C141.164 41.9263 141.047 42.0702 140.898 42.1715C140.748 42.2728 140.572 42.3268 140.392 42.3268C140.15 42.3268 139.919 42.2297 139.748 42.0569C139.577 41.8841 139.481 41.6497 139.481 41.4052Z" fill="#022C40"/>
<path d="M129.304 59.0006C129.303 58.8178 129.356 58.6389 129.456 58.4864C129.555 58.334 129.697 58.215 129.864 58.1445C130.031 58.074 130.214 58.0553 130.391 58.0907C130.568 58.126 130.731 58.2139 130.859 58.3432C130.987 58.4724 131.073 58.6371 131.108 58.8165C131.143 58.9958 131.125 59.1815 131.055 59.3502C130.986 59.5188 130.868 59.6627 130.717 59.7635C130.567 59.8643 130.39 59.9176 130.209 59.9164C129.97 59.9149 129.741 59.8179 129.571 59.6465C129.402 59.4751 129.306 59.243 129.304 59.0006Z" fill="#022C40"/>
<path d="M140.409 41.4055H147.837" stroke="#022C40" stroke-linecap="round" stroke-linejoin="round"/>
<path d="M130.209 59.0007L125.863 66.0622" stroke="#022C40" stroke-linecap="round" stroke-linejoin="round"/>
<path d="M120.09 41.2486L116.121 34.7495" stroke="#022C40" stroke-linecap="round" stroke-linejoin="round"/>
<path d="M112.313 87.5885C112.921 87.0342 113.603 86.5698 114.34 86.209C114.37 86.3951 114.469 86.5625 114.617 86.6768C114.765 86.7912 114.951 86.8436 115.136 86.8234C115.543 86.7596 116.001 86.3539 116.281 86.6495C116.396 86.7654 116.419 86.9509 116.539 87.061C116.906 87.403 117.53 86.6669 117.942 86.9451C118.051 87.0204 118.108 87.148 118.223 87.2233C118.313 87.2629 118.411 87.2833 118.509 87.2833C118.608 87.2833 118.705 87.2629 118.796 87.2233C119.819 86.9874 120.869 86.8957 121.917 86.9509L126.722 86.9857L126.355 86.7944" stroke="#022C40" stroke-linecap="round" stroke-linejoin="round"/>
<path d="M112.055 91.6467C112.095 91.4562 112.2 91.2859 112.351 91.1653C112.502 91.0446 112.69 90.9812 112.882 90.9861C113.074 90.9909 113.259 91.0636 113.404 91.1917C113.549 91.3197 113.645 91.495 113.676 91.6873C113.795 91.6311 113.901 91.5506 113.988 91.4509C114.074 91.3511 114.14 91.2342 114.18 91.1076C114.489 91.809 115.445 91.8669 116.207 91.8148L119.603 91.5713C120.622 91.496 121.814 91.3105 122.272 90.4121C122.775 91.3419 122.976 92.4089 122.844 93.4609C123.159 92.7037 123.569 91.9907 124.064 91.3395C124.167 91.7104 124.27 92.0814 124.368 92.4524C126.733 90.7773 129.969 91.8727 132.832 91.5076" stroke="#022C40" stroke-linecap="round" stroke-linejoin="round"/>
<path d="M112.359 97.0212C112.348 96.9146 112.376 96.8077 112.439 96.721C112.501 96.6343 112.593 96.5741 112.696 96.5517C112.728 96.6569 112.781 96.7542 112.852 96.8378C112.923 96.9214 113.01 96.9895 113.107 97.0378C113.205 97.0862 113.311 97.1137 113.42 97.1189C113.529 97.124 113.637 97.1065 113.739 97.0676C114.147 96.8939 114.498 96.604 114.747 96.233C114.832 96.3031 114.931 96.354 115.038 96.3822C115.144 96.4105 115.255 96.4154 115.363 96.3968C115.472 96.3781 115.575 96.3363 115.666 96.2741C115.757 96.2118 115.834 96.1306 115.892 96.0359C116.148 96.4546 116.359 96.8996 116.522 97.3632C116.831 96.5633 117.879 96.4358 118.733 96.4416H125.605" stroke="#022C40" stroke-linecap="round" stroke-linejoin="round"/>
<path d="M165.481 33.9207C163.841 33.8804 162.232 34.3832 160.9 35.3527C159.25 36.4195 157.681 38.2167 158.094 40.1531C158.506 42.0895 160.762 43.1157 162.749 43.5041C164.458 43.841 166.197 43.9965 167.938 43.9679C168.608 43.9781 169.278 43.9061 169.931 43.7534C170.592 43.564 171.232 43.3096 171.844 42.9939L176.276 40.8836C176.883 40.5937 177.565 40.2227 177.731 39.5617C177.937 38.7443 177.244 37.9848 176.586 37.492C174.098 35.6907 171.029 34.9079 167.995 35.3005" stroke="#022C40" stroke-linecap="round" stroke-linejoin="round"/>
<path d="M160.218 38.2571C160.479 37.9609 160.816 37.7441 161.192 37.6311C161.117 37.8528 161.117 38.0933 161.192 38.3151C161.295 38.5237 161.61 38.628 161.765 38.4542C161.919 38.2803 161.953 38.0021 162.125 38.089L162.331 38.5527C162.612 38.4542 162.83 38.2223 163.105 38.1006C163.418 37.9943 163.751 37.9626 164.078 38.0079C166.537 38.1356 169.002 38.06 171.449 37.7818" stroke="#022C40" stroke-linecap="round" stroke-linejoin="round"/>
<path d="M164.227 40.7501C164.263 40.6317 164.325 40.5234 164.41 40.4338C164.494 40.3442 164.598 40.2759 164.714 40.2343C164.582 40.3792 164.742 40.6284 164.937 40.6632C165.135 40.6668 165.33 40.6252 165.51 40.5415C165.727 40.4847 165.95 40.4536 166.174 40.4487L170.349 40.1589" stroke="#022C40" stroke-linecap="round" stroke-linejoin="round"/>
<path d="M166.008 46.6404C164.8 50.9982 162.296 54.8737 158.836 57.7398C155.375 60.6059 151.127 62.3235 146.668 62.6591" stroke="#022C40" stroke-linecap="round" stroke-linejoin="round"/>
<path d="M146.737 61.4011C145.927 61.9076 145.205 62.546 144.601 63.2907C144.958 63.2149 145.33 63.2409 145.673 63.3657C146.017 63.4905 146.32 63.7093 146.548 63.9978" stroke="#022C40" stroke-linecap="round" stroke-linejoin="round"/>
<path d="M164.634 62.781L165.155 63.9402L165.899 63.0476C166.039 63.1528 166.136 63.3049 166.174 63.4765C166.232 63.6388 166.317 63.8185 166.478 63.8649C166.638 63.9113 166.839 63.691 166.718 63.5693C166.824 63.6415 166.943 63.6897 167.069 63.7107C167.194 63.7318 167.323 63.725 167.446 63.691C167.554 63.691 167.652 63.6099 167.761 63.5809C167.89 63.5521 168.023 63.5404 168.156 63.5461H175.893" stroke="#022C40" stroke-linecap="round" stroke-linejoin="round"/>
<path d="M164.994 69.1582C165.031 69.0653 165.09 68.9836 165.167 68.9209C165.244 68.8582 165.336 68.8167 165.433 68.8003C165.53 68.784 165.63 68.7934 165.723 68.8277C165.816 68.862 165.898 68.9199 165.962 68.9959C165.988 69.0701 166.027 69.1389 166.077 69.1988C166.146 69.248 166.23 69.2694 166.314 69.2587C166.398 69.2479 166.475 69.2059 166.529 69.1408C166.655 69.0249 166.735 68.8684 166.867 68.764C167.228 68.48 167.743 68.7003 168.184 68.822C168.749 68.9416 169.328 68.9728 169.902 68.9147L174.295 68.6829" stroke="#022C40" stroke-linecap="round" stroke-linejoin="round"/>
<path d="M165.132 74.086C165.278 74.0899 165.421 74.044 165.539 73.9557C165.656 73.8675 165.741 73.7419 165.779 73.5991C165.852 73.6115 165.919 73.6458 165.972 73.6975C166.025 73.7492 166.062 73.8159 166.077 73.8889C166.287 73.7573 166.467 73.5814 166.604 73.373C169.433 73.4078 172.266 73.4078 175.102 73.373" stroke="#022C40" stroke-linecap="round" stroke-linejoin="round"/>
<path d="M165.126 77.7677C165.301 77.841 165.497 77.846 165.676 77.7818C165.855 77.7176 166.004 77.5887 166.094 77.4199C166.273 77.5671 166.399 77.7714 166.449 77.9995C166.562 77.9222 166.689 77.8693 166.823 77.8444C166.958 77.8194 167.095 77.8229 167.228 77.8546C167.337 77.8546 167.446 77.93 167.554 77.959C167.829 78.0302 168.113 78.0556 168.396 78.0343L178.269 77.8894" stroke="#022C40" stroke-linecap="round" stroke-linejoin="round"/>
<path d="M138.616 101.207L143.1 100.766C143.144 100.772 143.189 100.767 143.23 100.751C143.271 100.735 143.307 100.708 143.336 100.674C143.364 100.64 143.384 100.6 143.393 100.556C143.402 100.512 143.4 100.467 143.387 100.424V97.5256C143.398 97.4293 143.373 97.3323 143.318 97.2531C143.281 97.2191 143.238 97.1929 143.19 97.1759C143.143 97.159 143.093 97.1518 143.043 97.1546C142.07 97.0676 139.876 96.5748 139.034 97.2415C138.193 97.9083 138.622 100.216 138.616 101.207Z" stroke="#022C40" stroke-linecap="round" stroke-linejoin="round"/>
<path d="M139.899 98.6216C139.957 98.894 140.008 99.1664 140.065 99.4446C140.745 99.301 141.442 99.2639 142.133 99.3345" stroke="#022C40" stroke-linecap="round" stroke-linejoin="round"/>
<path d="M142.184 102.459C142.142 102.525 142.119 102.601 142.118 102.679C142.116 102.756 142.136 102.833 142.176 102.9C142.215 102.967 142.272 103.021 142.34 103.057C142.409 103.093 142.485 103.109 142.562 103.103C142.866 103.045 143.106 102.633 143.387 102.761" stroke="#022C40" stroke-linecap="round" stroke-linejoin="round"/>
<path d="M139.097 95.7751C139.154 95.6888 139.234 95.6211 139.328 95.5802C139.422 95.5393 139.526 95.527 139.627 95.5448C139.728 95.5627 139.821 95.6098 139.896 95.6806C139.971 95.7513 140.024 95.8426 140.048 95.9432L141.125 95.8157" stroke="#022C40" stroke-linecap="round" stroke-linejoin="round"/>
<path d="M148.031 105.388C149.559 105.388 151.086 105.388 152.613 105.388C153.8 105.403 154.987 105.332 156.164 105.173C156.296 105.166 156.421 105.113 156.519 105.022C156.6 104.904 156.634 104.759 156.616 104.617V97.5667C156.616 97.4855 149.601 97.2594 148.782 97.8334C147.132 99.0045 148.031 103.585 148.031 105.388Z" stroke="#022C40" stroke-linecap="round" stroke-linejoin="round"/>
<path d="M150.517 99.6536L151.611 99.6825C151.414 100.436 151.103 101.153 150.689 101.81C150.54 102.013 150.362 102.268 150.471 102.494C151.044 102.586 151.714 102.639 152.074 102.192C152.544 101.613 152.132 100.703 152.487 100.053L152.624 101.427L153.1 101.885C153.223 102.025 153.378 102.132 153.552 102.198C153.639 102.229 153.734 102.228 153.82 102.197C153.907 102.165 153.98 102.104 154.027 102.024" stroke="#022C40" stroke-linecap="round" stroke-linejoin="round"/>
<path d="M153.701 106.57C154.062 106.437 154.211 107.12 154.583 107.219C154.955 107.318 155.156 106.819 155.471 106.599C155.62 106.499 155.8 106.456 155.978 106.48C156.156 106.503 156.319 106.591 156.438 106.726" stroke="#022C40" stroke-linecap="round" stroke-linejoin="round"/>
<path d="M150.746 95.4153C151.089 95.5022 150.952 96.0818 151.21 96.3311C151.467 96.5803 151.897 96.3311 152.189 96.0934C152.481 95.8558 153.014 95.7515 153.122 96.0934" stroke="#022C40" stroke-linecap="round" stroke-linejoin="round"/>
<path d="M238.877 112.936H101.638V122.745H238.877V112.936Z" fill="#BFBFBF" stroke="#022C40" stroke-linecap="round" stroke-linejoin="round"/>
<path d="M213.484 116.797H123.812V118.883H213.484V116.797Z" fill="#022C40"/>
<path d="M174.667 117.857C174.667 118.159 174.579 118.454 174.413 118.704C174.248 118.955 174.013 119.15 173.737 119.266C173.462 119.381 173.159 119.411 172.867 119.353C172.575 119.294 172.307 119.149 172.096 118.935C171.885 118.722 171.742 118.451 171.684 118.155C171.626 117.859 171.655 117.553 171.769 117.274C171.883 116.995 172.076 116.757 172.324 116.59C172.572 116.422 172.863 116.333 173.161 116.333C173.56 116.333 173.944 116.494 174.226 116.779C174.508 117.065 174.667 117.453 174.667 117.857Z" fill="#275F7A" stroke="#022C40" stroke-linecap="round" stroke-linejoin="round"/>
<path d="M234.433 115.962H230.722V119.718H234.433V115.962Z" stroke="#022C40" stroke-linecap="round" stroke-linejoin="round"/>
<path d="M228.208 115.962H224.497V119.718H228.208V115.962Z" stroke="#022C40" stroke-linecap="round" stroke-linejoin="round"/>
<path d="M112.353 115.921H105.887V119.758H112.353V115.921Z" stroke="#022C40" stroke-linecap="round" stroke-linejoin="round"/>
<path d="M105.813 21.8213H130.209" stroke="white" stroke-linecap="round" stroke-linejoin="round"/>
<path d="M235.401 21.734C235.402 22.0222 235.319 22.3043 235.161 22.5444C235.004 22.7845 234.779 22.9719 234.516 23.0827C234.253 23.1936 233.964 23.2229 233.684 23.1669C233.405 23.111 233.148 22.9723 232.947 22.7685C232.746 22.5647 232.609 22.3049 232.553 22.0222C232.498 21.7394 232.527 21.4464 232.637 21.1803C232.746 20.9143 232.931 20.6871 233.168 20.5277C233.406 20.3683 233.684 20.2838 233.969 20.2849C234.349 20.2849 234.713 20.4376 234.982 20.7093C235.25 20.9811 235.401 21.3497 235.401 21.734V21.734Z" stroke="white" stroke-linecap="round" stroke-linejoin="round"/>
<path d="M229.737 21.8209C229.737 22.1075 229.653 22.3876 229.496 22.6259C229.338 22.8642 229.115 23.0499 228.853 23.1596C228.592 23.2693 228.304 23.298 228.026 23.2421C227.748 23.1862 227.493 23.0481 227.293 22.8455C227.093 22.6428 226.956 22.3846 226.901 22.1036C226.846 21.8225 226.874 21.5311 226.983 21.2663C227.091 21.0016 227.274 20.7753 227.51 20.616C227.745 20.4568 228.022 20.3718 228.305 20.3718C228.685 20.3718 229.049 20.5245 229.318 20.7962C229.586 21.068 229.737 21.4366 229.737 21.8209V21.8209Z" stroke="white" stroke-linecap="round" stroke-linejoin="round"/>
<path d="M224.073 21.9136C224.072 22.1999 223.987 22.4795 223.829 22.717C223.671 22.9546 223.447 23.1394 223.185 23.2482C222.924 23.357 222.636 23.3848 222.359 23.3283C222.081 23.2717 221.827 23.1332 221.627 22.9304C221.427 22.7275 221.291 22.4693 221.237 22.1884C221.182 21.9074 221.211 21.6164 221.319 21.3519C221.428 21.0875 221.611 20.8615 221.847 20.7025C222.082 20.5436 222.358 20.4587 222.641 20.4587C222.83 20.4587 223.016 20.4964 223.191 20.5696C223.365 20.6428 223.523 20.75 223.656 20.8852C223.789 21.0204 223.894 21.1808 223.966 21.3573C224.037 21.5337 224.074 21.7228 224.073 21.9136V21.9136Z" stroke="white" stroke-linecap="round" stroke-linejoin="round"/>
<path d="M115.296 213.634H101.735L94.3932 211.28L92.1024 210.544L91.4324 217.541L11.1299 217.692C11.1299 217.692 12.3555 214.562 14.3542 209.97C18.6665 200.062 26.5696 183.33 33.482 176.495C39.0943 170.946 53.1138 170.79 53.1138 170.79C54.545 169.829 56.2243 169.317 57.9415 169.317C60.5186 169.445 80.0015 171.584 81.2099 172.216C82.0511 172.71 82.7731 173.387 83.3231 174.199C83.3231 174.199 90.1496 171.143 96.8558 173.897C103.562 176.651 115.296 213.634 115.296 213.634Z" fill="#F2F6FA"/>
<path opacity="0.2" d="M94.3932 211.28L92.1024 210.544L91.4324 217.541L11.1299 217.692C11.1299 217.692 12.3555 214.561 14.3542 209.97C17.4524 209.894 20.9458 209.732 20.9458 209.732L22.7441 203.778C22.7441 203.778 25.5674 200.757 29.0952 202.537C28.9775 202.087 29.002 201.61 29.1653 201.175C29.3286 200.739 29.6225 200.366 30.0057 200.108C31.3687 199.192 36.9582 202.131 36.9582 202.131C36.9582 202.131 39.6498 196.914 40.5661 193.499C41.4824 190.084 42.0895 198.328 42.0895 198.328C42.0895 198.328 44.3803 194.537 44.3803 193.499C44.3803 192.461 48.6067 203.778 48.6067 203.778C48.6067 203.778 54.1961 204.456 55.708 205.036C57.2199 205.616 72.2702 206.196 77.1152 205.036C81.9601 203.876 73.679 210.834 73.679 210.834C73.679 210.834 82.1892 213.732 86.9998 211.831C91.8104 209.929 93.9637 207.894 93.9637 207.894C93.9637 207.894 94.1412 209.303 94.3932 211.28Z" fill="black" fill-opacity="0.7"/>
<path d="M115.296 213.634H101.735L94.3932 211.28L92.1024 210.544L91.4324 217.541L11.1299 217.692C11.1299 217.692 12.3555 214.562 14.3542 209.97C18.6665 200.062 26.5696 183.33 33.482 176.495C39.0943 170.946 53.1138 170.79 53.1138 170.79C54.545 169.829 56.2243 169.317 57.9415 169.317C60.5186 169.445 80.0015 171.584 81.2099 172.216C82.0511 172.71 82.7731 173.387 83.3231 174.199C83.3231 174.199 90.1496 171.143 96.8558 173.897C103.562 176.651 115.296 213.634 115.296 213.634Z" stroke="#022C40" stroke-linecap="round" stroke-linejoin="round"/>
<path d="M89.9721 195.754C88.7795 197.457 87.4191 199.032 85.9118 200.456" stroke="#022C40" stroke-linecap="round" stroke-linejoin="round"/>
<path d="M81.9431 203.836C76.1086 208.199 69.2514 210.946 62.0479 211.807" stroke="#022C40" stroke-linecap="round" stroke-linejoin="round"/>
<path d="M107.021 201.859C107.021 201.859 109.106 200.549 110.933 200.978C112.759 201.407 114.271 203.233 114.271 203.233C114.271 203.233 129.436 201.963 132.878 202.074C136.32 202.184 144.023 204.468 144.023 204.468C144.023 204.468 147.756 203.703 148.157 203.859C148.558 204.016 147.35 216.88 147.35 216.88H98.0986C95.6818 216.88 93.8893 213.338 92.0739 210.555C95.2015 199.482 96.8011 188.024 96.8272 176.506" fill="#F2F6FA"/>
<path opacity="0.2" d="M120.537 216.869H98.11C95.6933 216.869 93.9008 213.327 92.0853 210.544C93.8809 204.297 95.1586 197.909 95.9052 191.447C95.9052 191.447 98.2876 195.024 96.8386 199.169L98.2876 195.024C98.2876 195.024 99.6792 199.465 98.2876 203.227C96.8959 206.99 95.9052 208.068 95.9052 208.068C95.9052 208.068 97.6232 210.341 99.4444 209.732C101.266 209.123 103.247 212.811 103.247 212.811C103.247 212.811 107.622 212.979 108.533 212.811C108.951 212.735 114.615 214.712 120.537 216.869Z" fill="black" fill-opacity="0.7"/>
<path d="M107.021 201.859C107.021 201.859 109.106 200.549 110.933 200.978C112.759 201.407 114.271 203.233 114.271 203.233C114.271 203.233 129.436 201.963 132.878 202.074C136.32 202.184 144.023 204.468 144.023 204.468C144.023 204.468 147.756 203.703 148.157 203.859C148.558 204.016 147.35 216.88 147.35 216.88H98.0986C95.6818 216.88 93.8893 213.338 92.0739 210.555C95.2015 199.482 96.8011 188.024 96.8272 176.506" stroke="#022C40" stroke-linecap="round" stroke-linejoin="round"/>
<path d="M78.8677 161.798V174.181C77.3169 175.251 75.7111 176.236 74.0571 177.132C70.7183 178.924 66.4346 180.698 63.8861 179.689C59.2645 177.851 56.2694 170.79 56.2694 170.79C61.2575 166.94 61.8588 161.798 62.6148 159.351L78.8677 161.798Z" fill="#F2F6FA" stroke="#022C40" stroke-linecap="round" stroke-linejoin="round"/>
<path d="M53.8527 171.735C53.8527 171.735 58.0849 181.063 63.2219 182.75C68.3589 184.437 77.0581 177.851 77.0581 177.851" stroke="#022C40" stroke-linecap="round" stroke-linejoin="round"/>
<path d="M30.7446 183.023C30.7446 183.023 38.7622 189.342 40.1081 191.47C41.4539 193.597 40.1081 213.634 40.1081 213.634" stroke="#022C40" stroke-linecap="round" stroke-linejoin="round"/>
<path d="M19.8292 203.412C24.5539 200.328 27.8755 203.702 30.7447 204.311C33.6138 204.92 39.9592 201.638 44.7183 204.311C49.4773 206.984 49.4773 206.05 49.4773 206.05C49.4773 206.05 54.4597 209.9 51.8884 217.605L11.1129 217.68C11.1129 217.68 8.39261 211.796 17.3323 203.401" fill="#F2F6FA"/>
<path d="M19.8292 203.412C24.5539 200.328 27.8755 203.702 30.7447 204.311C33.6138 204.92 39.9592 201.638 44.7183 204.311C49.4773 206.984 49.4773 206.05 49.4773 206.05C49.4773 206.05 54.4597 209.9 51.8884 217.605L11.1129 217.68C11.1129 217.68 8.39261 211.796 17.3323 203.401" stroke="#022C40" stroke-linecap="round" stroke-linejoin="round"/>
<path d="M59.7856 191.487L70.5464 211.413L70.8843 213.651L69.1662 212.103L58.0675 192.322C58.2307 192.017 58.4846 191.773 58.7931 191.623C59.1016 191.473 59.4488 191.425 59.7856 191.487Z" fill="#275F7A" stroke="#022C40" stroke-linecap="round" stroke-linejoin="round"/>
<path d="M49.5688 207.094C50.3815 206.855 51.2163 206.702 52.06 206.636C52.9706 206.636 58.5715 202.444 60.4728 202.131C62.3742 201.818 65.7931 204.688 67.5341 205.146C69.2751 205.604 69.1663 207.9 70.1857 208.816C71.205 209.732 69.7332 210.764 68.4676 209.732C68.5579 210.09 68.5636 210.465 68.4839 210.825C68.4043 211.186 68.2418 211.522 68.0094 211.807C68.0094 211.807 68.353 213.06 68.0094 213.634H47.8508C47.8508 213.634 47.5472 209.732 49.5688 207.094Z" fill="#F2F6FA" stroke="#022C40" stroke-linecap="round" stroke-linejoin="round"/>
<path d="M68.5078 209.731L66.6924 207.917L62.0479 206.41" stroke="#022C40" stroke-linecap="round" stroke-linejoin="round"/>
<path d="M68.0554 211.807L65.2778 210.543L61.4809 209.819" stroke="#022C40" stroke-linecap="round" stroke-linejoin="round"/>
<path d="M61.4809 212.811L65.2778 212.985L68.0554 213.634" stroke="#022C40" stroke-linecap="round" stroke-linejoin="round"/>
<path d="M60.49 202.131C58.772 203.656 60.49 205.262 59.6711 206.41C58.8521 207.558 57.953 207.9 58.6517 209.732" stroke="#022C40" stroke-linecap="round" stroke-linejoin="round"/>
<path d="M85.0069 214.602H176.74C176.74 215.421 176.419 216.207 175.846 216.786C175.274 217.366 174.497 217.691 173.688 217.691H92.3659C92.047 217.691 91.7301 217.64 91.4267 217.54L84.8923 215.407C84.799 215.379 84.7189 215.318 84.6665 215.235C84.6141 215.152 84.5929 215.052 84.6068 214.955C84.6207 214.857 84.6687 214.768 84.7421 214.703C84.8155 214.638 84.9095 214.602 85.0069 214.602Z" fill="#275F7A"/>
<path opacity="0.2" d="M176.74 214.602C176.739 215.421 176.418 216.207 175.847 216.787L175.755 216.868C175.194 217.397 174.455 217.691 173.688 217.691H92.366C92.0471 217.691 91.7302 217.64 91.4268 217.541L84.8924 215.408C84.7981 215.379 84.7172 215.317 84.6648 215.233C84.6124 215.148 84.592 215.048 84.6074 214.949C84.6228 214.851 84.6729 214.761 84.7485 214.697C84.8241 214.634 84.92 214.6 85.0184 214.602H176.74Z" fill="black" fill-opacity="0.7"/>
<path opacity="0.2" d="M176.74 214.602C176.739 215.421 176.418 216.207 175.847 216.787L175.755 216.868H123.268C122.674 216.868 122.104 216.629 121.683 216.205C121.262 215.78 121.025 215.203 121.023 214.602H176.74Z" fill="black" fill-opacity="0.7"/>
<path d="M85.0069 214.602H176.74C176.74 215.421 176.419 216.207 175.846 216.786C175.274 217.366 174.497 217.691 173.688 217.691H92.3659C92.047 217.691 91.7301 217.64 91.4267 217.54L84.8923 215.407C84.799 215.379 84.7189 215.318 84.6665 215.235C84.6141 215.152 84.5929 215.052 84.6068 214.955C84.6207 214.857 84.6687 214.768 84.7421 214.703C84.8155 214.638 84.9095 214.602 85.0069 214.602V214.602Z" stroke="#022C40" stroke-linecap="round" stroke-linejoin="round"/>
<path d="M121.023 214.602C121.025 215.203 121.262 215.78 121.683 216.205C122.104 216.629 122.674 216.868 123.268 216.868H131.979" stroke="#022C40" stroke-linecap="round" stroke-linejoin="round"/>
<path d="M193.159 176.483V176.558L182.484 214.156C182.325 214.638 182.025 215.061 181.623 215.366C181.22 215.672 180.736 215.846 180.234 215.866H124.625C124.415 215.883 124.204 215.846 124.011 215.759C123.818 215.671 123.65 215.536 123.522 215.366C123.394 215.195 123.311 214.995 123.28 214.784C123.248 214.572 123.27 214.356 123.343 214.156L134.006 176.558C134.164 176.075 134.465 175.652 134.867 175.347C135.269 175.041 135.754 174.867 136.257 174.848H191.865C192.069 174.83 192.274 174.863 192.463 174.944C192.651 175.025 192.817 175.153 192.945 175.314C193.073 175.476 193.16 175.668 193.197 175.871C193.234 176.075 193.221 176.285 193.159 176.483Z" fill="#275F7A"/>
<path opacity="0.4" d="M193.159 176.483V176.558L182.484 214.156C182.325 214.638 182.025 215.061 181.623 215.366C181.221 215.672 180.736 215.846 180.234 215.866H124.992V215.791L135.65 178.193C135.809 177.711 136.109 177.288 136.512 176.983C136.914 176.677 137.398 176.503 137.901 176.483H193.159Z" fill="#F2F6FA"/>
<path d="M193.159 176.483V176.558L182.484 214.156C182.325 214.638 182.025 215.061 181.623 215.366C181.22 215.672 180.736 215.846 180.234 215.866H124.625C124.415 215.883 124.204 215.846 124.011 215.759C123.818 215.671 123.65 215.536 123.522 215.366C123.394 215.195 123.311 214.995 123.28 214.784C123.248 214.572 123.27 214.356 123.343 214.156L134.006 176.558C134.164 176.075 134.465 175.652 134.867 175.347C135.269 175.041 135.754 174.867 136.257 174.848H191.865C192.069 174.83 192.274 174.863 192.463 174.944C192.651 175.025 192.817 175.153 192.945 175.314C193.073 175.476 193.16 175.668 193.197 175.871C193.234 176.075 193.221 176.285 193.159 176.483Z" stroke="#022C40" stroke-linecap="round" stroke-linejoin="round"/>
<path d="M162.251 196.05C161.777 197.037 161.048 197.875 160.14 198.474C159.232 199.074 158.18 199.412 157.097 199.453C154.76 199.453 153.38 197.621 154.022 195.36C154.405 194.203 155.127 193.191 156.091 192.459C157.056 191.727 158.218 191.309 159.422 191.261H159.525C159.417 191.484 159.329 191.717 159.262 191.957C158.603 194.2 159.949 196.015 162.251 196.05Z" fill="#F2F6FA" stroke="#022C40" stroke-linecap="round" stroke-linejoin="round"/>
<path d="M125.278 214.022L135.684 177.324C135.777 177.042 135.952 176.796 136.186 176.618C136.421 176.44 136.703 176.338 136.996 176.327H190.897" stroke="#022C40" stroke-linecap="round" stroke-linejoin="round"/>
<path d="M99.4444 217.692H22.704L23.6318 215.732C23.6318 215.732 30.882 216.416 36.6261 214.602C39.1631 213.802 43.0689 213.442 46.9861 213.489C49.4544 213.523 55.4619 213.547 59.1901 213.529C60.5187 213.529 61.561 213.529 62.0535 213.494C62.2425 213.494 62.4315 213.494 62.6262 213.494C63.6894 213.481 64.751 213.583 65.7932 213.796C66.7989 213.681 67.8107 213.63 68.8227 213.645C70.5923 213.645 78.2034 213.616 80.2765 213.645C83.0082 213.68 86.1637 214.225 89.1589 214.642L89.2391 214.613V214.654C92.8585 215.164 96.2488 215.512 98.4021 214.613L99.4444 217.692Z" fill="#F2F6FA"/>
<path opacity="0.4" d="M99.4444 217.692H39.9592L41.1675 215.587C41.1675 215.587 44.4147 217.506 47.5874 216.167C50.7601 214.828 53.9557 214.097 59.1901 213.517C60.3315 213.394 61.4819 213.378 62.6262 213.471C64.9047 213.648 67.1451 214.164 69.2751 215.002C69.2751 215.002 72.3963 213.622 80.2765 213.622C83.0082 213.657 86.1637 214.202 89.1589 214.619L89.2391 214.59V214.631C92.8585 215.141 96.2488 215.489 98.4021 214.59L99.4444 217.692Z" fill="#275F7A"/>
<path d="M41.1676 215.587L23.6548 215.732L22.7271 217.691H39.9593L41.1676 215.587Z" fill="#275F7A"/>
<path d="M40.4517 216.827L41.1676 215.586C42.7159 216.269 44.3868 216.62 46.0755 216.618C48.6412 216.543 52.6958 213.326 60.4901 213.482" stroke="#022C40" stroke-linecap="round" stroke-linejoin="round"/>
<path d="M65.776 213.784C67.2135 214.317 69.258 215.013 69.258 215.013C69.258 215.013 71.9038 213.471 77.7166 213.633" stroke="#022C40" stroke-linecap="round" stroke-linejoin="round"/>
<path d="M41.1675 215.587C41.1675 215.587 32.1076 215.75 28.4825 215.831" stroke="#022C40" stroke-linecap="round" stroke-linejoin="round"/>
<path d="M68.0496 217.691C68.099 217.314 68.2643 216.961 68.5222 216.683C68.7801 216.406 69.1176 216.217 69.4871 216.144C70.7699 215.929 71.6003 217.535 71.6003 217.535" stroke="#022C40" stroke-linecap="round" stroke-linejoin="round"/>
<path d="M69.2579 215.013L69.4878 216.143" stroke="#022C40" stroke-linecap="round" stroke-linejoin="round"/>
<path d="M70.5466 216.143C70.5466 216.143 74.6241 214.259 78.5642 214.601" stroke="#022C40" stroke-linecap="round" stroke-linejoin="round"/>
<path d="M68.8685 216.37C68.5077 216.086 62.3856 214.173 56.1204 215.587" stroke="#022C40" stroke-linecap="round" stroke-linejoin="round"/>
<path d="M68.0496 217.152C68.0496 217.152 62.8954 216.161 58.4112 216.851" stroke="#022C40" stroke-linecap="round" stroke-linejoin="round"/>
<path d="M71.1191 216.862C74.5404 215.897 78.121 215.652 81.6394 216.144C85.1044 216.665 88.6055 216.902 92.1082 216.851" stroke="#022C40" stroke-linecap="round" stroke-linejoin="round"/>
<path d="M99.4444 217.692H22.704L23.6318 215.732C23.6318 215.732 30.882 216.416 36.6261 214.602C39.1631 213.802 43.0689 213.442 46.9861 213.489C49.4544 213.523 55.4619 213.547 59.1901 213.529C60.5187 213.529 61.561 213.529 62.0535 213.494C62.2425 213.494 62.4315 213.494 62.6262 213.494C63.6894 213.481 64.751 213.583 65.7932 213.796C66.7989 213.681 67.8107 213.63 68.8227 213.645C70.5923 213.645 78.2034 213.616 80.2765 213.645C83.0082 213.68 86.1637 214.225 89.1589 214.642L89.2391 214.613V214.654C92.8585 215.164 96.2488 215.512 98.4021 214.613L99.4444 217.692Z" stroke="#022C40" stroke-linecap="round" stroke-linejoin="round"/>
<path d="M78.8676 172.123V174.181C77.3169 175.251 75.7111 176.236 74.057 177.132C70.3861 173.718 69.865 167.23 69.865 167.23L78.8676 172.123Z" fill="#022C40"/>
<path d="M63.2218 160.267C58.9038 153.803 59.7857 141.715 65.3351 135.117C73.4902 125.482 94.7713 132.52 94.7541 146.133C94.7374 148.025 94.5766 149.913 94.2731 151.78C93.9924 153.577 92.4519 155.392 91.9823 157.183C91.5127 158.974 91.7017 161.821 91.5127 163.56C91.0889 167.52 85.677 175.376 84.2109 176.228C82.1607 177.388 71.0791 174.239 68.6624 167.045" fill="#F2F6FA"/>
<path d="M63.2218 160.267C58.9038 153.803 59.7857 141.715 65.3351 135.117C73.4902 125.482 94.7713 132.52 94.7541 146.133C94.7374 148.025 94.5766 149.913 94.2731 151.78C93.9924 153.577 92.4519 155.392 91.9823 157.183C91.5127 158.974 91.7017 161.821 91.5127 163.56C91.0889 167.52 85.677 175.376 84.2109 176.228C82.1607 177.388 71.0791 174.239 68.6624 167.045" stroke="#022C40" stroke-linecap="round" stroke-linejoin="round"/>
<path d="M78.3236 152.278C78.3236 152.278 81.3417 151.165 84.0505 152.278" stroke="#022C40" stroke-linecap="round" stroke-linejoin="round"/>
<path d="M90.2299 152.278C90.2299 152.278 92.4291 151.165 93.9009 152.278" stroke="#022C40" stroke-linecap="round" stroke-linejoin="round"/>
<path d="M81.1468 157.472C80.9865 158.255 80.4596 158.811 80.0015 158.713C79.5433 158.614 79.2398 157.89 79.4001 157.101C79.5605 156.313 80.0874 155.762 80.5742 155.867C81.0609 155.971 81.3072 156.701 81.1468 157.472Z" fill="#022C40"/>
<path d="M90.8599 157.472C90.6995 158.255 90.1726 158.811 89.7145 158.713C89.2563 158.614 88.9528 157.89 89.1132 157.101C89.2735 156.313 89.7947 155.762 90.2872 155.867C90.7797 155.971 91.0202 156.701 90.8599 157.472Z" fill="#022C40"/>
<path d="M89.2735 153.467C89.2735 153.467 87.836 155.989 87.6871 158.105C87.5382 160.221 89.9779 164.604 89.2735 165.978C88.5691 167.352 85.5739 167.282 84.5889 166.442" fill="#F2F6FA"/>
<path d="M89.2735 153.467C89.2735 153.467 87.836 155.989 87.6871 158.105C87.5382 160.221 89.9779 164.604 89.2735 165.978C88.5691 167.352 85.5739 167.282 84.5889 166.442" stroke="#022C40" stroke-linecap="round" stroke-linejoin="round"/>
<path d="M85.1213 169.213C83.1423 169.496 81.1245 169.205 79.3028 168.372" stroke="#022C40" stroke-linecap="round" stroke-linejoin="round"/>
<path d="M67.5514 154.307C67.5514 154.307 68.9602 152.927 70.621 153.466C72.2818 154.006 72.5853 158.586 72.5853 158.586L73.7937 157.281C73.7937 157.281 73.3412 154.69 75.1509 151.055C76.9606 147.42 76.0558 143.141 76.0558 143.141C76.0558 143.141 79.177 144.208 80.2593 146.654C80.2593 146.654 81.4391 144.057 80.2593 142.068C80.2593 142.068 85.1215 143.292 86.3298 146.962C86.3298 146.962 87.2862 144.208 86.9598 142.834C86.9598 142.834 90.2528 143.9 91.4611 147.112C91.4611 147.112 92.5607 144.666 92.0854 142.677C92.0854 142.677 93.414 143.837 93.9237 147.269C94.9157 145.176 95.2072 142.813 94.7541 140.538C94.7541 140.538 96.4722 142.526 96.7471 144.208C96.7471 144.208 98.1444 139.315 89.9721 132.74C81.7999 126.166 67.8091 127.656 65.6329 132.74C65.6329 132.74 66.3544 128.995 67.8091 127.656C67.8091 127.656 63.8002 129.464 63.8861 133.198C63.8861 133.198 60.3469 132.74 58.5372 135.036C59.6464 134.951 60.7616 135.002 61.8588 135.187C61.8588 135.187 57.0253 138.085 57.3289 144.973C57.6324 151.86 61.8588 161.786 61.8588 161.786L65.169 160.806C65.169 160.806 65.6958 156.122 67.5514 154.307Z" fill="#022C40"/>
<path d="M71.2222 155.989C71.2222 155.989 68.6566 151.403 67.2993 151.095C65.942 150.788 63.3707 152.626 63.972 155.073C64.5733 157.519 65.0315 161.647 65.7874 162.105C66.5434 162.563 67.7517 165.317 68.9601 164.552C69.1191 164.469 69.2566 164.349 69.3618 164.203C69.467 164.057 69.5369 163.887 69.5658 163.709C69.5948 163.53 69.582 163.347 69.5285 163.174C69.475 163.001 69.3824 162.844 69.2579 162.714" fill="#F2F6FA"/>
<path d="M71.2222 155.989C71.2222 155.989 68.6566 151.403 67.2993 151.095C65.942 150.788 63.3707 152.626 63.972 155.073C64.5733 157.519 65.0315 161.647 65.7874 162.105C66.5434 162.563 67.7517 165.317 68.9601 164.552C69.1191 164.469 69.2566 164.349 69.3618 164.203C69.467 164.057 69.5369 163.887 69.5658 163.709C69.5948 163.53 69.582 163.347 69.5285 163.174C69.475 163.001 69.3824 162.844 69.2579 162.714" stroke="#022C40" stroke-linecap="round" stroke-linejoin="round"/>
<path d="M99.9198 191.447C99.6602 192.577 99.3274 193.688 98.9233 194.774" stroke="#022C40" stroke-linecap="round" stroke-linejoin="round"/>
<path d="M98.0013 196.989C97.0885 199.096 95.7503 200.986 94.0726 202.537" stroke="#022C40" stroke-linecap="round" stroke-linejoin="round"/>
<path d="M114.283 203.233C113.498 203.129 111.9 204.131 110.434 205.424" stroke="#022C40" stroke-linecap="round" stroke-linejoin="round"/>
<path d="M109.358 206.451C108.212 207.65 107.325 208.92 107.325 209.731" stroke="#022C40" stroke-linecap="round" stroke-linejoin="round"/>
<path d="M26.0886 200.108C26.0886 200.108 29.3472 201.024 29.3759 203.852" stroke="#022C40" stroke-linecap="round" stroke-linejoin="round"/>
<path d="M38.2983 184.663C38.8393 185.276 39.3314 185.931 39.7701 186.622" stroke="#022C40" stroke-linecap="round" stroke-linejoin="round"/>
<path d="M41.0587 189.011C41.6997 190.42 42.0449 191.948 42.0724 193.499C42.0724 198.27 40.7151 201.036 40.7151 201.036" stroke="#022C40" stroke-linecap="round" stroke-linejoin="round"/>
<path d="M58.0848 179.985C58.9488 180.798 59.8736 181.542 60.8509 182.21" stroke="#022C40" stroke-linecap="round" stroke-linejoin="round"/>
<path d="M63.7258 183.95C66.6522 185.446 70.4377 186.57 74.3664 185.579" stroke="#022C40" stroke-linecap="round" stroke-linejoin="round"/>
<g opacity="0.2">
<path opacity="0.2" d="M69.865 132.983C70.8881 132.825 71.9228 132.757 72.9575 132.78" stroke="#F2F6FA" stroke-linecap="round" stroke-linejoin="round"/>
<path opacity="0.2" d="M74.4637 132.862C77.2641 133.129 80.7117 134.12 82.8536 137.112" stroke="#F2F6FA" stroke-linecap="round" stroke-linejoin="round"/>
<path opacity="0.2" d="M76.6628 130.659C76.6628 130.659 81.9144 130.717 85.677 133.377" stroke="#F2F6FA" stroke-linecap="round" stroke-linejoin="round"/>
<path opacity="0.2" d="M87.1546 134.671C87.8281 135.384 88.3676 136.214 88.7467 137.123" stroke="#F2F6FA" stroke-linecap="round" stroke-linejoin="round"/>
<path opacity="0.2" d="M68.5078 135.251C68.5078 135.251 73.662 137.088 75.4546 140.376" stroke="#F2F6FA" stroke-linecap="round" stroke-linejoin="round"/>
<path opacity="0.2" d="M66.0109 137.112C67.1277 138.678 67.9312 140.451 68.3761 142.329" stroke="#F2F6FA" stroke-linecap="round" stroke-linejoin="round"/>
<path opacity="0.2" d="M68.6975 144.909C68.7044 145.602 68.6408 146.293 68.5078 146.973" stroke="#F2F6FA" stroke-linecap="round" stroke-linejoin="round"/>
<path opacity="0.2" d="M62.5403 139.251C62.275 139.933 62.055 140.632 61.8817 141.343" stroke="#F2F6FA" stroke-linecap="round" stroke-linejoin="round"/>
<path opacity="0.2" d="M61.4759 143.367C61.1741 145.175 61.1509 147.019 61.407 148.834" stroke="#F2F6FA" stroke-linecap="round" stroke-linejoin="round"/>
</g>
<path d="M130.129 228H202.402V217.692H1.06779V228H41.7746" fill="#F2F6FA"/>
<path d="M130.129 228H202.402V217.692H1.06779V228H41.7746" stroke="#022C40" stroke-linecap="round" stroke-linejoin="round"/>
<path d="M124.941 228H114.678" stroke="#022C40" stroke-linecap="round" stroke-linejoin="round"/>
</svg>
