<svg width="249" height="229" viewBox="0 0 249 229" fill="none" xmlns="http://www.w3.org/2000/svg">
<path d="M11.5468 25.6601C13.5094 26.457 18.3085 26.3592 18.3138 26.3592C18.319 26.3592 17.2671 23.426 17.1938 23.2451C16.1366 21.1869 12.8028 17.804 10.1076 18.1266C9.65768 18.1933 9.22792 18.3478 8.84631 18.5801C8.4647 18.8124 8.13983 19.1173 7.89289 19.4748C7.64595 19.8323 7.48251 20.2345 7.41322 20.655C7.34393 21.0756 7.37036 21.505 7.49078 21.9154C7.9461 23.6704 9.87204 24.9757 11.5468 25.6601Z" fill="#275F7A"/>
<path d="M60.1142 26.6426C60.1561 26.6426 60.9882 23.6654 61.0196 23.4698C61.3546 21.2063 60.5852 16.6549 58.1202 15.5452C57.7058 15.3712 57.2569 15.2807 56.8026 15.2793C56.3483 15.278 55.8987 15.3659 55.4831 15.5374C55.0676 15.7089 54.6953 15.9601 54.3904 16.2748C54.0855 16.5895 53.8549 16.9605 53.7136 17.3638C53.0541 19.0602 53.8915 21.1428 54.8859 22.5703C56.0477 24.252 60.1142 26.6426 60.1142 26.6426Z" fill="#275F7A"/>
<path d="M74.449 10.388C71.7275 10.1142 68.4984 13.5999 67.504 15.6825C67.4151 15.8634 66.4207 18.8259 66.4573 18.8259H66.5149C65.9915 19.3686 65.4682 19.9601 64.8715 20.6201C63.8248 21.8374 62.6159 23.2258 61.4331 24.8195C60.1322 26.5218 58.9403 28.2947 57.8638 30.1286C56.6441 32.175 55.6247 34.3201 54.8179 36.5377C54.8179 36.5622 54.8179 36.5915 54.8179 36.616C54.8179 35.868 54.8179 33.7756 54.776 33.6143C54.462 31.3508 52.4314 27.1514 49.7413 26.687C49.2909 26.6198 48.8303 26.6422 48.3897 26.7527C47.9492 26.8633 47.5386 27.0596 47.1848 27.3286C46.8311 27.5977 46.5421 27.9335 46.337 28.3141C46.1318 28.6947 46.0149 29.1114 45.9941 29.5371C45.8371 31.3362 47.2345 33.1352 48.6109 34.2694C50.1443 35.5502 54.4044 36.792 54.7446 36.8848C53.9802 39.1606 53.3788 41.4813 52.9443 43.8317C52.6826 45.1957 52.4628 46.5792 52.2639 47.9724C52.2639 47.3222 52.2639 46.7454 52.2273 46.6672C51.9133 44.4037 49.8826 40.1994 47.1926 39.735C46.7437 39.67 46.2852 39.694 45.8469 39.8053C45.4086 39.9167 45.0002 40.1129 44.6484 40.3812C44.2965 40.6495 44.0089 40.9839 43.8044 41.3627C43.5998 41.7416 43.4829 42.1564 43.4611 42.5802C43.3041 44.3792 44.6962 46.1783 46.0779 47.3125C47.4595 48.4467 51.034 49.5808 51.9761 49.8742C51.908 50.407 51.8295 50.9399 51.7615 51.4728C51.4318 54.0393 51.1178 56.601 50.7148 59.104C50.5787 59.984 50.406 60.8493 50.2385 61.7146C50.2385 61.1378 50.2385 60.6538 50.2071 60.5804C49.8931 58.317 47.8625 54.1176 45.1724 53.6531C44.7233 53.5866 44.2642 53.6095 43.8252 53.7202C43.3862 53.8309 42.9772 54.027 42.6249 54.2956C42.2726 54.5642 41.9851 54.8992 41.781 55.2788C41.577 55.6584 41.4611 56.074 41.4409 56.4984C41.2787 58.2925 42.676 60.0965 44.0577 61.2306C45.4394 62.3648 48.6999 63.3963 49.8146 63.7386C49.6157 64.6234 49.4169 65.5034 49.1813 66.3491C49.0086 66.9211 48.8778 67.4882 48.658 68.0553C48.4382 68.6224 48.2707 69.1797 48.0771 69.7321C47.6688 70.7881 47.2502 71.8783 46.821 72.9C46.5279 73.6138 46.2349 74.2835 45.947 74.963C46.0935 74.088 46.3448 72.3671 46.35 72.2205C46.3196 70.2117 45.7375 68.2439 44.6596 66.5056C44.6691 66.2816 44.6551 66.0572 44.6177 65.8358C44.5602 65.4179 44.41 65.0159 44.1766 64.6554C43.9432 64.2949 43.6318 63.9839 43.2623 63.7423C42.8928 63.5007 42.4734 63.3338 42.0309 63.2523C41.5884 63.1709 41.1325 63.1766 40.6925 63.2692C38.0757 63.9243 36.3748 68.2606 36.2492 70.5388C36.2492 70.6756 36.3382 72.1423 36.4115 73.0662C36.2806 72.5285 36.155 72.0054 36.0137 71.4529C35.7363 70.3628 35.4223 69.2775 35.0926 68.114L34.5693 66.4225C34.3965 65.8554 34.1401 65.2785 33.9308 64.6967C33.4074 63.3621 32.8056 62.0324 32.1723 60.7027C33.1928 60.4729 36.8145 59.6125 38.2694 58.5712C39.7243 57.5299 41.2525 55.8335 41.2368 54.0296C41.2493 53.6053 41.166 53.1832 40.9923 52.791C40.8185 52.3988 40.5582 52.0452 40.2284 51.7532C39.8985 51.4613 39.5065 51.2375 39.0779 51.0965C38.6493 50.9555 38.1937 50.9005 37.7408 50.935C35.0193 51.2088 32.659 55.2566 32.1671 57.4957C32.1357 57.6325 31.9734 59.2752 31.9054 60.1747C31.5181 59.3827 31.136 58.5858 30.7121 57.7939C29.4979 55.506 28.1896 53.2278 26.8969 50.9497C26.4991 50.2506 26.1171 49.5515 25.7245 48.8524C26.0909 48.7742 30.4347 47.8356 32.0467 46.6672C33.4964 45.6308 35.0298 43.9344 35.0193 42.1304C35.031 41.7057 34.947 41.2834 34.7727 40.891C34.5984 40.4985 34.3377 40.1447 34.0076 39.8524C33.6775 39.5602 33.2852 39.336 32.8563 39.1945C32.4275 39.053 31.9715 38.9973 31.5181 39.031C28.8019 39.3096 26.4415 43.3575 25.9444 45.5916C25.9077 45.7579 25.6827 48.1191 25.6565 48.7253C24.7616 47.1903 23.9399 45.6699 23.1915 44.0957C22.1539 42.004 21.2623 39.8517 20.5224 37.6524C20.6951 37.6181 25.2326 36.6746 26.8864 35.4622C28.3309 34.4209 29.8695 32.7245 29.8538 30.9206C29.8659 30.4943 29.7814 30.0704 29.6058 29.6767C29.4302 29.283 29.1675 28.9284 28.8349 28.6363C28.5023 28.3441 28.1074 28.1208 27.676 27.9812C27.2446 27.8416 26.7865 27.7887 26.3316 27.8261C23.6102 28.0998 21.2499 32.1477 20.7579 34.3818C20.7265 34.5285 20.5486 36.3373 20.4858 37.1879H20.3287C19.6486 34.9496 19.1827 32.6592 18.9366 30.3437C18.7849 29.0727 18.7168 27.8554 18.6749 26.6625C19.528 26.6039 23.4846 26.115 25.1122 25.191C26.7399 24.2671 28.4251 22.776 28.5978 20.9819C28.6573 20.5622 28.6219 20.1356 28.4939 19.7296C28.3659 19.3236 28.1481 18.9471 27.8546 18.6246C27.5611 18.3021 27.1985 18.0407 26.7901 17.8573C26.3818 17.6739 25.9367 17.5725 25.4838 17.5598C22.7467 17.5598 19.9258 21.3387 19.1721 23.5093C19.1355 23.6266 18.8581 24.8684 18.6488 25.7777C18.6488 25.2399 18.6174 24.6875 18.6174 24.1693C18.6174 22.2383 18.7535 20.4685 18.8843 18.9042C18.9628 18.0144 19.057 17.2078 19.1512 16.4598C19.9467 15.9709 23.1078 13.8639 24.0812 12.3728C25.0547 10.8818 25.8083 8.81873 25.1279 7.1419C24.9761 6.74128 24.7356 6.37508 24.422 6.06722C24.1083 5.75936 23.7287 5.51676 23.3079 5.35527C22.8871 5.19379 22.4345 5.11706 21.9798 5.13008C21.5251 5.1431 21.0784 5.24559 20.6689 5.43085C18.2406 6.60415 17.5968 11.1702 17.9998 13.4239C18.0365 13.6195 18.9523 16.6016 18.9942 16.5771C19.0114 16.5677 19.0273 16.5562 19.0413 16.5429C18.9366 17.2664 18.832 18.0388 18.7325 18.8895C18.565 20.4539 18.3923 22.2236 18.3452 24.1644C18.2694 26.2547 18.3235 28.3473 18.5075 30.4317C18.6999 32.7658 19.115 35.0792 19.7478 37.3444C19.7501 37.372 19.7501 37.3998 19.7478 37.4275C19.3448 36.7822 18.0783 35.0516 17.9579 34.9147C16.3879 33.189 12.201 30.7348 9.668 31.7321C9.25492 31.9091 8.88632 32.1653 8.58616 32.484C8.286 32.8028 8.06098 33.1769 7.92574 33.5822C7.7905 33.9875 7.74805 34.4148 7.80116 34.8364C7.85427 35.258 8.00174 35.6644 8.234 36.0293C9.16558 37.6084 11.3741 38.3906 13.1954 38.635C15.2365 38.9137 19.5175 37.755 19.8577 37.6573C20.5713 39.9491 21.4455 42.1946 22.4745 44.3792C23.0659 45.6503 23.6992 46.9214 24.3534 48.1827C23.9661 47.6449 23.6102 47.1707 23.5526 47.112C21.9564 45.3814 17.7957 42.9273 15.2627 43.9246C14.8496 44.1016 14.481 44.3577 14.1808 44.6765C13.8807 44.9952 13.6557 45.3694 13.5204 45.7746C13.3852 46.1799 13.3427 46.6072 13.3958 47.0288C13.4489 47.4504 13.5964 47.8569 13.8287 48.2218C14.7602 49.8057 16.9688 50.583 18.7901 50.8323C20.6114 51.0817 24.2958 50.1577 25.2692 49.9035C25.5257 50.3924 25.7926 50.8812 26.0333 51.3701C27.2737 53.6776 28.5245 55.9753 29.6968 58.2632C30.0998 59.0698 30.4714 59.8814 30.843 60.7075C30.4923 60.2187 30.194 59.8374 30.1469 59.7787C28.5454 58.053 24.39 55.5988 21.8517 56.5961C21.4386 56.7731 21.07 57.0293 20.7699 57.348C20.4697 57.6668 20.2447 58.0409 20.1095 58.4462C19.9742 58.8515 19.9318 59.2788 19.9849 59.7004C20.038 60.122 20.1855 60.5284 20.4177 60.8933C21.3493 62.4724 23.5579 63.2546 25.3844 63.499C27.2109 63.7434 30.529 62.9172 31.6646 62.619C32.0153 63.455 32.3712 64.2959 32.6747 65.1221C32.8684 65.6891 33.0934 66.222 33.2556 66.8038C33.4179 67.3855 33.5958 67.9429 33.779 68.5051C34.0616 69.6001 34.3547 70.7245 34.6007 71.7952C34.7786 72.5382 34.9304 73.2618 35.0874 73.9658C34.6949 73.1591 33.8837 71.5947 33.7999 71.4725C32.502 69.5415 28.7757 66.5202 26.1223 67.1509C25.6874 67.2695 25.2839 67.4721 24.938 67.7455C24.5921 68.0189 24.3115 68.357 24.1142 68.738C23.9169 69.119 23.8074 69.5344 23.7927 69.9575C23.778 70.3805 23.8584 70.8017 24.0289 71.1938C24.6935 72.8902 26.766 73.9755 28.514 74.4742C30.4347 75.0266 34.6844 74.5231 35.2182 74.4742C35.4747 75.6572 35.7102 76.8159 35.9143 77.8963C36.6208 81.6557 37.0604 84.8138 37.3378 87.0431H39.1905C39.1905 86.9893 39.1905 86.9453 39.1905 86.8915C38.8608 84.6427 38.3374 81.4357 37.5262 77.603C37.275 76.3954 36.9767 75.1146 36.6574 73.7946C37.9389 73.3176 39.1885 72.7691 40.3994 72.152C41.7968 73.5698 45.387 75.227 45.8528 75.4372C45.3609 76.5617 44.8741 77.6469 44.3979 78.6638C42.7702 82.1641 41.2577 85.0191 40.211 87.0284H42.2469C43.2517 85.0436 44.5392 82.3988 45.9104 79.2553C46.4337 78.1163 46.9204 76.8941 47.4333 75.6328C47.9567 75.7306 52.1435 76.5323 54.1218 76.1217C55.9012 75.7452 58.0575 74.8066 58.832 73.1591C59.034 72.7791 59.148 72.3636 59.1663 71.9397C59.1847 71.5158 59.1072 71.093 58.9388 70.699C58.7703 70.305 58.5148 69.9486 58.1889 69.6531C57.863 69.3576 57.474 69.1297 57.0474 68.9841C54.4306 68.1677 50.495 70.9396 49.0453 72.7533C48.9563 72.8658 48.1713 74.1368 47.6846 74.9484C47.8939 74.4302 48.098 73.9315 48.3021 73.3938C48.7208 72.3427 49.0976 71.277 49.5111 70.1379L50.0344 68.4464C50.2281 67.8842 50.3537 67.2682 50.5211 66.6767C50.8718 65.2932 51.1596 63.8754 51.4108 62.4382C52.4 62.7755 55.9274 63.9048 57.7591 63.8021C59.5909 63.6994 61.8623 63.059 62.9142 61.5484C63.1776 61.2002 63.3592 60.8039 63.4472 60.3856C63.5352 59.9672 63.5276 59.5362 63.4248 59.1208C63.322 58.7053 63.1264 58.3149 62.8508 57.975C62.5752 57.6351 62.2259 57.3535 61.8256 57.1486C59.3972 55.9753 55.022 58.1263 53.3054 59.7445C53.1955 59.8471 52.0912 61.1329 51.4998 61.8466C51.6463 60.9862 51.7981 60.1258 51.9133 59.2458C52.2482 56.7135 52.5047 54.1371 52.7716 51.5705C52.8553 50.7835 52.9495 50.0013 53.0332 49.2191C53.3839 49.3413 57.5498 50.7883 59.5961 50.6563C61.4174 50.5341 63.6992 49.9133 64.7564 48.3978C65.0206 48.0498 65.203 47.6535 65.2914 47.235C65.3799 46.8165 65.3724 46.3852 65.2696 45.9696C65.1667 45.5539 64.9708 45.1633 64.6948 44.8235C64.4187 44.4837 64.0687 44.2023 63.6678 43.9979C61.2342 42.8246 56.8642 44.9757 55.1476 46.5938C55.0168 46.716 53.431 48.5493 53.0542 49.0382C53.2531 47.3076 53.4624 45.6161 53.745 43.905C54.1119 41.6253 54.6364 39.3702 55.3151 37.1537C55.4773 37.2124 59.8159 38.7426 61.9094 38.6203C63.7306 38.503 66.0125 37.8773 67.0696 36.3666C67.333 36.0184 67.5147 35.6222 67.6027 35.2038C67.6907 34.7854 67.683 34.3544 67.5802 33.939C67.4775 33.5236 67.2819 33.1331 67.0063 32.7933C66.7307 32.4534 66.3813 32.1717 65.9811 31.9668C63.5475 30.7935 59.1774 32.9445 57.4608 34.5627C57.3457 34.6703 56.1367 36.0782 55.5768 36.7626L55.4407 36.6942C56.1746 34.4969 57.1169 32.3651 58.2563 30.3242C58.8791 29.19 59.5438 28.134 60.2137 27.1221C60.9882 27.4838 64.5575 29.0776 66.4573 29.1753C68.3571 29.2731 70.6442 28.8527 71.8531 27.4594C72.1528 27.1406 72.3774 26.7664 72.5122 26.3613C72.6471 25.9561 72.6893 25.529 72.636 25.1077C72.5827 24.6863 72.4351 24.2801 72.2029 23.9155C71.9706 23.5509 71.6589 23.2359 71.2879 22.9911C69.0061 21.5783 64.4215 23.2747 62.5112 24.6973C62.4065 24.7755 61.4645 25.675 60.7527 26.335C61.0615 25.8803 61.3703 25.4061 61.6791 24.9808C62.82 23.3675 63.9766 21.9596 65.0076 20.7228C65.6042 20.0237 66.1538 19.3979 66.6771 18.821C67.6349 18.821 71.5077 18.6939 73.2034 17.9557C74.899 17.2175 76.7412 15.878 77.139 14.1132C77.2482 13.7021 77.2639 13.2742 77.1849 12.8572C77.1059 12.4401 76.9341 12.0431 76.6805 11.692C76.427 11.3409 76.0973 11.0434 75.7129 10.8188C75.3285 10.5941 74.8979 10.4474 74.449 10.388Z" fill="#275F7A"/>
<path d="M244.048 204.299C242.054 203.57 237.244 203.844 237.244 203.844C237.244 203.844 238.395 206.738 238.495 206.914C239.63 208.933 243.1 212.214 245.796 211.774C246.241 211.689 246.662 211.517 247.032 211.27C247.402 211.023 247.712 210.707 247.942 210.341C248.173 209.975 248.318 209.568 248.369 209.146C248.421 208.724 248.376 208.297 248.24 207.892C247.711 206.156 245.738 204.925 244.048 204.299Z" fill="#275F7A"/>
<path d="M195.464 205.042C195.417 205.017 194.711 208.048 194.69 208.249C194.444 210.517 195.402 215.039 197.908 216.071C198.328 216.231 198.779 216.306 199.232 216.293C199.685 216.28 200.131 216.177 200.539 215.993C200.947 215.809 201.309 215.546 201.601 215.223C201.894 214.899 202.11 214.522 202.237 214.115C202.828 212.394 201.907 210.346 200.855 208.953C199.625 207.29 195.464 205.042 195.464 205.042Z" fill="#275F7A"/>
<path d="M181.805 221.8C184.532 221.976 187.619 218.378 188.53 216.261C188.608 216.08 189.482 213.084 189.43 213.084H189.373C189.865 212.521 190.388 211.91 190.943 211.231C191.953 209.974 193.088 208.547 194.208 206.909C195.438 205.161 196.556 203.348 197.558 201.478C198.689 199.388 199.619 197.209 200.337 194.966C200.34 194.938 200.34 194.91 200.337 194.883C200.337 195.636 200.478 197.723 200.504 197.885C200.913 200.133 203.121 204.24 205.822 204.626C206.273 204.676 206.73 204.637 207.164 204.511C207.597 204.385 207.998 204.175 208.339 203.894C208.679 203.614 208.953 203.269 209.142 202.883C209.33 202.497 209.429 202.078 209.433 201.654C209.522 199.85 208.051 198.1 206.643 197.014C205.073 195.792 200.75 194.702 200.41 194.619C201.079 192.319 201.584 189.98 201.923 187.618C202.127 186.24 202.289 184.851 202.446 183.453C202.483 184.098 202.524 184.675 202.535 184.758C202.943 187.007 205.152 191.114 207.852 191.5C208.303 191.55 208.761 191.511 209.194 191.385C209.628 191.259 210.028 191.048 210.369 190.768C210.71 190.487 210.984 190.143 211.172 189.757C211.361 189.371 211.46 188.952 211.463 188.528C211.552 186.724 210.082 184.973 208.674 183.888C207.266 182.803 203.597 181.791 202.624 181.542C202.676 181.004 202.729 180.466 202.776 179.933C203.001 177.357 203.21 174.785 203.498 172.273C203.603 171.388 203.733 170.518 203.87 169.647C203.901 170.219 203.932 170.703 203.948 170.777C204.351 173.025 206.565 177.132 209.26 177.523C209.712 177.572 210.169 177.533 210.603 177.406C211.037 177.279 211.438 177.069 211.779 176.788C212.12 176.507 212.394 176.162 212.583 175.776C212.772 175.39 212.872 174.971 212.876 174.546C212.96 172.742 211.49 170.997 210.087 169.906C208.684 168.816 205.377 167.907 204.21 167.604C204.372 166.719 204.534 165.829 204.733 164.974C204.885 164.397 204.984 163.83 205.173 163.253C205.361 162.676 205.513 162.114 205.696 161.556C206.062 160.486 206.434 159.381 206.821 158.345C207.083 157.626 207.345 156.942 207.612 156.252C207.502 157.132 207.318 158.863 207.324 159.009C207.436 161.013 208.096 162.957 209.239 164.656C209.243 164.881 209.267 165.105 209.312 165.326C209.383 165.747 209.548 166.149 209.797 166.507C210.046 166.864 210.373 167.168 210.756 167.399C211.14 167.63 211.571 167.782 212.022 167.846C212.473 167.91 212.934 167.884 213.374 167.77C215.99 167.022 217.487 162.627 217.519 160.349C217.519 160.212 217.367 158.75 217.252 157.826C217.409 158.359 217.55 158.877 217.718 159.425C218.042 160.505 218.398 161.576 218.764 162.73C218.968 163.282 219.172 163.835 219.377 164.397C219.581 164.959 219.853 165.531 220.088 166.103C220.664 167.418 221.318 168.723 222.009 170.014C220.994 170.278 217.409 171.27 216.001 172.365C214.593 173.461 213.133 175.201 213.217 177.005C213.222 177.429 213.323 177.848 213.513 178.233C213.703 178.619 213.978 178.962 214.32 179.242C214.661 179.522 215.062 179.732 215.496 179.857C215.93 179.983 216.387 180.022 216.838 179.972C219.544 179.601 221.737 175.475 222.14 173.221C222.14 173.084 222.26 171.437 222.292 170.532C222.716 171.314 223.129 172.092 223.584 172.869C224.893 175.113 226.29 177.342 227.677 179.576C228.101 180.256 228.514 180.945 228.933 181.63C228.572 181.718 224.28 182.813 222.705 184.035C221.297 185.125 219.832 186.875 219.921 188.679C219.926 189.104 220.026 189.523 220.216 189.908C220.406 190.294 220.68 190.638 221.022 190.918C221.364 191.198 221.765 191.408 222.199 191.533C222.633 191.659 223.091 191.697 223.542 191.647C226.248 191.275 228.441 187.144 228.844 184.895C228.875 184.724 229.006 182.358 229.006 181.752C229.927 183.262 230.828 184.773 231.649 186.298C232.775 188.354 233.754 190.477 234.58 192.654C234.413 192.698 229.933 193.817 228.3 195.069C226.897 196.159 225.432 197.909 225.521 199.713C225.526 200.137 225.626 200.555 225.816 200.941C226.005 201.326 226.279 201.67 226.62 201.95C226.961 202.23 227.362 202.44 227.796 202.566C228.229 202.691 228.686 202.73 229.137 202.68C231.848 202.309 234.041 198.178 234.439 195.929C234.465 195.782 234.57 193.974 234.596 193.118H234.753C235.523 195.324 236.082 197.59 236.422 199.889C236.626 201.15 236.747 202.367 236.83 203.555C235.977 203.683 232.063 204.313 230.477 205.291C228.891 206.269 227.29 207.818 227.164 209.617C227.119 210.04 227.17 210.467 227.313 210.87C227.457 211.273 227.689 211.643 227.996 211.956C228.302 212.27 228.676 212.52 229.093 212.689C229.509 212.859 229.96 212.945 230.414 212.942C233.146 212.849 235.815 208.972 236.48 206.772C236.511 206.655 236.736 205.403 236.888 204.489C236.914 205.027 236.961 205.579 236.977 206.093C237.056 208.024 236.977 209.798 236.93 211.368C236.883 212.257 236.825 213.064 236.762 213.812C235.988 214.35 232.911 216.55 232 218.07C231.089 219.59 230.43 221.688 231.199 223.34C231.368 223.734 231.624 224.09 231.95 224.386C232.275 224.681 232.664 224.91 233.091 225.056C233.517 225.202 233.971 225.263 234.425 225.234C234.878 225.205 235.319 225.088 235.721 224.89C238.102 223.629 238.552 219.023 238.06 216.804C238.018 216.613 236.977 213.66 236.94 213.69C236.923 213.699 236.907 213.711 236.893 213.724C236.972 213 237.045 212.223 237.108 211.373C237.207 209.798 237.307 208.024 237.275 206.083C237.27 203.991 237.131 201.902 236.862 199.825C236.57 197.507 236.06 195.216 235.339 192.981L235.307 192.903C235.763 193.519 237.097 195.201 237.218 195.318C238.887 196.985 243.158 199.292 245.633 198.202C246.039 198.011 246.396 197.742 246.683 197.413C246.97 197.085 247.18 196.703 247.298 196.293C247.417 195.884 247.441 195.456 247.371 195.037C247.301 194.618 247.136 194.217 246.889 193.861C245.895 192.311 243.639 191.612 241.823 191.417C239.777 191.211 235.543 192.522 235.208 192.629C234.419 190.355 233.468 188.132 232.361 185.976C231.723 184.719 231.032 183.477 230.325 182.241C230.739 182.759 231.11 183.218 231.173 183.282C232.842 184.949 237.113 187.256 239.589 186.166C239.994 185.975 240.352 185.706 240.639 185.377C240.925 185.049 241.135 184.667 241.253 184.257C241.372 183.848 241.397 183.42 241.326 183.001C241.256 182.582 241.092 182.181 240.845 181.825C239.85 180.275 237.595 179.576 235.779 179.381C233.962 179.185 230.304 180.246 229.346 180.534C229.069 180.046 228.823 179.591 228.52 179.117C227.185 176.858 225.845 174.604 224.6 172.356C224.16 171.564 223.762 170.772 223.359 169.98C223.726 170.439 224.04 170.825 224.092 170.879C225.761 172.546 230.032 174.854 232.508 173.769C232.913 173.577 233.271 173.308 233.558 172.978C233.845 172.649 234.054 172.267 234.173 171.857C234.291 171.447 234.316 171.019 234.245 170.599C234.175 170.18 234.011 169.779 233.764 169.422C232.769 167.873 230.514 167.174 228.698 166.978C226.881 166.783 223.579 167.746 222.417 168.083C222.03 167.262 221.637 166.435 221.303 165.639C221.088 165.076 220.837 164.548 220.654 163.976L220.078 162.295C219.753 161.214 219.408 160.1 219.12 159.039C218.916 158.301 218.733 157.572 218.55 156.883C218.974 157.675 219.842 159.21 219.931 159.327C221.313 161.209 225.165 164.094 227.782 163.37C228.213 163.238 228.611 163.023 228.947 162.738C229.284 162.453 229.553 162.105 229.737 161.717C229.92 161.329 230.015 160.909 230.013 160.485C230.012 160.06 229.915 159.641 229.729 159.254C229.001 157.587 226.881 156.57 225.118 156.135C223.176 155.646 218.947 156.311 218.419 156.394C218.115 155.216 217.833 154.067 217.581 152.972C216.723 149.242 216.153 146.098 215.786 143.884L213.934 143.952C213.934 144.001 213.934 144.045 213.96 144.099C214.384 146.333 215.033 149.52 216.001 153.304C216.304 154.502 216.655 155.778 217.048 157.078C215.791 157.605 214.568 158.197 213.384 158.853C211.929 157.489 208.276 155.959 207.805 155.768C208.245 154.629 208.69 153.524 209.124 152.493C210.605 148.934 211.987 146.02 212.986 143.986L210.956 144.06C210.029 146.074 208.862 148.763 207.606 151.955C207.151 153.109 206.69 154.351 206.23 155.631C205.706 155.548 201.473 154.898 199.526 155.382C197.767 155.822 195.648 156.849 194.92 158.511C194.734 158.898 194.638 159.318 194.637 159.742C194.636 160.167 194.731 160.587 194.916 160.975C195.101 161.363 195.371 161.71 195.709 161.994C196.047 162.278 196.445 162.492 196.877 162.622C199.494 163.341 203.346 160.452 204.728 158.565C204.812 158.457 205.544 157.157 205.994 156.33C205.811 156.854 205.623 157.357 205.44 157.9C205.068 158.965 204.733 160.046 204.367 161.2C204.21 161.762 204.053 162.334 203.896 162.911C203.739 163.488 203.624 164.099 203.482 164.695C203.184 166.088 202.959 167.516 202.765 168.958C201.76 168.66 198.186 167.638 196.365 167.824C194.543 168.01 192.293 168.714 191.304 170.268C191.058 170.625 190.895 171.026 190.826 171.445C190.756 171.865 190.782 172.293 190.902 172.702C191.021 173.112 191.232 173.493 191.519 173.822C191.806 174.15 192.165 174.419 192.57 174.609C195.046 175.695 199.316 173.377 200.981 171.71C201.085 171.603 202.132 170.283 202.697 169.545C202.587 170.41 202.472 171.275 202.388 172.16C202.158 174.702 202.006 177.283 201.865 179.86C201.818 180.647 201.755 181.434 201.698 182.221C201.347 182.109 197.123 180.808 195.082 181.018C193.272 181.199 191.016 181.908 190.022 183.463C189.776 183.82 189.613 184.221 189.543 184.64C189.474 185.059 189.5 185.488 189.62 185.897C189.739 186.306 189.949 186.688 190.237 187.016C190.524 187.345 190.882 187.613 191.288 187.804C193.764 188.884 198.034 186.572 199.698 184.905C199.824 184.778 201.331 182.871 201.692 182.368C201.567 184.098 201.425 185.824 201.211 187.52C200.933 189.811 200.498 192.082 199.908 194.321C199.745 194.267 195.349 192.893 193.256 193.108C191.445 193.289 189.184 193.998 188.195 195.553C187.949 195.91 187.786 196.311 187.717 196.731C187.647 197.151 187.673 197.579 187.793 197.989C187.912 198.399 188.122 198.78 188.41 199.109C188.697 199.438 189.056 199.707 189.462 199.899C191.937 200.979 196.208 198.667 197.872 196.995C197.982 196.887 199.128 195.435 199.662 194.731L199.803 194.795C199.14 197.032 198.265 199.21 197.186 201.302C196.611 202.46 195.993 203.536 195.365 204.572C194.575 204.24 190.937 202.749 189.038 202.744C187.138 202.739 184.887 203.233 183.72 204.651C183.433 204.979 183.222 205.361 183.103 205.771C182.984 206.181 182.959 206.609 183.03 207.029C183.101 207.448 183.265 207.849 183.513 208.205C183.761 208.561 184.087 208.864 184.469 209.094C186.803 210.424 191.314 208.566 193.167 207.075C193.266 206.992 194.214 206.063 194.857 205.379C194.564 205.843 194.276 206.327 193.983 206.767C192.937 208.415 191.811 209.862 190.843 211.138C190.278 211.861 189.749 212.502 189.273 213.093C188.315 213.142 184.448 213.392 182.789 214.193C181.13 214.995 179.335 216.393 179.01 218.168C178.917 218.58 178.917 219.005 179.009 219.417C179.102 219.829 179.286 220.219 179.549 220.56C179.812 220.902 180.148 221.189 180.537 221.403C180.925 221.616 181.357 221.751 181.805 221.8Z" fill="#275F7A"/>
<g opacity="0.2">
<path opacity="0.2" d="M188.535 7.43506C188.535 7.43506 188.258 7.43506 187.755 7.43506" stroke="black" stroke-linecap="round" stroke-linejoin="round"/>
<path opacity="0.2" d="M186.185 7.47406C180.465 7.77227 165.638 9.83531 156.652 22.81C146.578 37.3588 152.827 62.5943 152.162 78.9128C151.299 100.076 146.321 124.285 126.177 136.981C103.699 151.158 73.8995 148.191 49.1761 156.849C16.2623 168.376 11.1177 198.623 21.9198 213.993C41.1845 241.419 83.1838 223.281 100.538 204.528C108.111 196.34 114.182 186.049 123.126 179.107C130.82 173.138 140.805 170.42 150.482 168.841C175.211 164.783 201.598 160.686 223.972 149.481C247.151 137.876 252.453 112.606 242.635 91.0173C232.884 69.5901 210.186 55.3297 186.478 50.1917C134.174 38.8254 117.971 55.5252 91.3272 26.3396" stroke="black" stroke-linecap="round" stroke-linejoin="round" stroke-dasharray="3 3"/>
<path opacity="0.2" d="M90.8194 25.7723L90.2961 25.2102" stroke="black" stroke-linecap="round" stroke-linejoin="round"/>
</g>
<path opacity="0.2" d="M60.198 204.763C60.1877 204.071 59.9304 203.401 59.4669 202.861C59.0033 202.321 58.36 201.941 57.6389 201.781C56.9179 201.621 56.1602 201.69 55.4862 201.978C54.8121 202.266 54.2601 202.756 53.9177 203.37C53.5754 202.756 53.0234 202.266 52.3493 201.978C51.6753 201.69 50.9176 201.621 50.1966 201.781C49.4755 201.941 48.8322 202.321 48.3686 202.861C47.9051 203.401 47.6478 204.071 47.6375 204.763C47.6375 206.352 48.9354 207.97 50.2229 208.909C51.3981 209.726 52.6211 210.482 53.8863 211.172C55.1531 210.484 56.3763 209.728 57.5498 208.909C58.7797 208.019 60.198 206.278 60.198 204.763Z" stroke="black" stroke-linecap="round" stroke-linejoin="round"/>
<path opacity="0.2" d="M45.926 213.753C45.9247 212.835 45.592 211.944 44.9816 211.224C44.3711 210.504 43.5187 209.998 42.562 209.786C41.6053 209.575 40.6003 209.671 39.7093 210.059C38.8183 210.447 38.0934 211.105 37.6518 211.925C37.2101 211.105 36.4853 210.447 35.5943 210.059C34.7033 209.671 33.6982 209.575 32.7415 209.786C31.7849 209.998 30.9324 210.504 30.322 211.224C29.7116 211.944 29.3788 212.835 29.3775 213.753C29.3775 215.841 31.0784 217.958 32.7689 219.195C33.6167 219.815 37.4791 222.23 37.5994 222.162C37.7094 222.23 41.577 219.815 42.4248 219.195C44.0263 218.021 45.926 215.743 45.926 213.753Z" stroke="black" stroke-linecap="round" stroke-linejoin="round"/>
<path opacity="0.2" d="M168.831 217.596C168.828 216.678 168.493 215.787 167.88 215.069C167.267 214.351 166.413 213.847 165.456 213.639C164.498 213.431 163.494 213.531 162.605 213.922C161.715 214.314 160.994 214.974 160.557 215.797C160.119 214.973 159.395 214.311 158.503 213.92C157.611 213.528 156.604 213.43 155.645 213.642C154.686 213.853 153.832 214.361 153.221 215.084C152.611 215.806 152.28 216.7 152.282 217.62C152.282 219.708 153.989 221.825 155.679 223.061C156.527 223.682 160.389 226.097 160.504 226.029C160.62 226.097 164.482 223.682 165.33 223.061C166.936 221.864 168.831 219.586 168.831 217.596Z" stroke="black" stroke-linecap="round" stroke-linejoin="round"/>
<path opacity="0.2" d="M226.327 14.5091C226.328 13.8893 226.106 13.2872 225.695 12.8007C225.283 12.3141 224.708 11.9717 224.063 11.829C223.417 11.6862 222.739 11.7517 222.138 12.0146C221.537 12.2775 221.049 12.7224 220.753 13.2772C220.456 12.7251 219.968 12.2829 219.368 12.0219C218.768 11.7609 218.092 11.6964 217.448 11.8389C216.804 11.9813 216.231 12.3223 215.82 12.8068C215.409 13.2914 215.185 13.8911 215.185 14.5091C215.185 15.9122 216.331 17.3397 217.472 18.1708C218.514 18.8911 219.597 19.5585 220.716 20.1702C221.838 19.5599 222.923 18.8924 223.966 18.1708C225.045 17.3788 226.327 15.8486 226.327 14.5091Z" stroke="black" stroke-linecap="round" stroke-linejoin="round"/>
<path opacity="0.2" d="M22.1448 205.697C22.149 205.076 21.9279 204.473 21.5176 203.985C21.1072 203.497 20.5318 203.153 19.8854 203.01C19.2391 202.867 18.5599 202.933 17.9588 203.197C17.3578 203.462 16.8704 203.908 16.5762 204.465C16.2803 203.91 15.7923 203.465 15.1914 203.202C14.5906 202.939 13.9122 202.874 13.2665 203.017C12.6208 203.159 12.0458 203.502 11.6348 203.988C11.2238 204.475 11.0009 205.077 11.0025 205.697C11.0025 207.1 12.1539 208.522 13.2896 209.358C14.3314 210.08 15.4165 210.746 16.5396 211.353C17.6627 210.746 18.7478 210.08 19.7897 209.358C20.8887 208.566 22.1448 207.031 22.1448 205.697Z" stroke="black" stroke-linecap="round" stroke-linejoin="round"/>
<path opacity="0.2" d="M149.755 211.295C149.756 210.675 149.533 210.073 149.122 209.586C148.711 209.1 148.136 208.757 147.491 208.614C146.845 208.472 146.167 208.537 145.566 208.8C144.965 209.063 144.477 209.508 144.181 210.063C143.884 209.511 143.395 209.068 142.796 208.807C142.196 208.546 141.52 208.482 140.876 208.624C140.232 208.767 139.658 209.108 139.248 209.592C138.837 210.077 138.613 210.676 138.612 211.295C138.612 212.698 139.759 214.125 140.9 214.956C141.942 215.676 143.025 216.344 144.144 216.956C145.266 216.345 146.351 215.678 147.394 214.956C148.478 214.169 149.755 212.634 149.755 211.295Z" stroke="black" stroke-linecap="round" stroke-linejoin="round"/>
<path opacity="0.2" d="M131.966 17.0461C131.97 16.4256 131.749 15.8221 131.339 15.3342C130.928 14.8462 130.353 14.5027 129.706 14.3597C129.06 14.2167 128.381 14.2827 127.78 14.5469C127.179 14.811 126.691 15.2578 126.397 15.8141C126.103 15.2578 125.616 14.811 125.015 14.5469C124.414 14.2827 123.734 14.2167 123.088 14.3597C122.442 14.5027 121.866 14.8462 121.456 15.3342C121.046 15.8221 120.825 16.4256 120.829 17.0461C120.829 18.4491 121.975 19.8718 123.111 20.7077C124.156 21.4225 125.241 22.0851 126.361 22.6925C127.483 22.0842 128.568 21.4183 129.611 20.698C130.689 19.9158 131.966 18.3807 131.966 17.0461Z" stroke="black" stroke-linecap="round" stroke-linejoin="round"/>
<path opacity="0.2" d="M95.1897 15.4672C95.1927 14.8471 94.9708 14.2444 94.56 13.7573C94.1492 13.2702 93.5739 12.9276 92.9278 12.7852C92.2817 12.6428 91.6031 12.7092 91.0025 12.9734C90.402 13.2376 89.9151 13.6841 89.6212 14.2401C89.3254 13.6857 88.8378 13.241 88.2375 12.978C87.6372 12.7151 86.9593 12.6493 86.314 12.7914C85.6686 12.9334 85.0935 13.275 84.6821 13.7608C84.2707 14.2465 84.047 14.8478 84.0474 15.4672C84.0474 16.8702 85.1988 18.2977 86.3345 19.1288C87.3765 19.8522 88.4616 20.5197 89.5845 21.1283C90.7075 20.5197 91.7926 19.8522 92.8346 19.1288C93.9127 18.3417 95.1897 16.8262 95.1897 15.4672Z" stroke="black" stroke-linecap="round" stroke-linejoin="round"/>
<path opacity="0.2" d="M209.019 5.40619C209.022 4.43899 208.674 3.49947 208.032 2.74026C207.391 1.98105 206.493 1.44676 205.486 1.2242C204.478 1.00163 203.42 1.10385 202.482 1.51427C201.544 1.92469 200.783 2.61919 200.321 3.48493C199.86 2.61919 199.098 1.92469 198.16 1.51427C197.223 1.10385 196.164 1.00163 195.157 1.2242C194.149 1.44676 193.252 1.98105 192.61 2.74026C191.969 3.49947 191.621 4.43899 191.623 5.40619C191.623 7.59634 193.413 9.80604 195.192 11.126C196.082 11.7762 200.143 14.3134 200.264 14.245C200.384 14.3134 204.45 11.8006 205.34 11.126C207.025 9.89403 209.019 7.49856 209.019 5.40619Z" stroke="black" stroke-linecap="round" stroke-linejoin="round"/>
<path d="M226.217 197.982L147.986 200.104C145.972 200.158 144.017 199.463 142.552 198.171C141.087 196.879 140.231 195.097 140.172 193.216L135.315 37.1047C135.286 36.1728 135.453 35.2447 135.808 34.3733C136.163 33.5019 136.698 32.7043 137.383 32.026C138.067 31.3478 138.889 30.8022 139.799 30.4204C140.71 30.0386 141.692 29.8281 142.689 29.8009L220.92 27.6792C221.918 27.6512 222.912 27.8072 223.845 28.1384C224.779 28.4695 225.633 28.9693 226.359 29.609C227.085 30.2488 227.669 31.016 228.078 31.8668C228.486 32.7177 228.711 33.6353 228.739 34.5674L233.58 190.679C233.638 192.559 232.896 194.383 231.515 195.753C230.135 197.122 228.229 197.924 226.217 197.982Z" fill="#022C40" stroke="#022C40" stroke-linecap="round" stroke-linejoin="round"/>
<path d="M222.59 197.983L144.369 200.104C143.372 200.132 142.378 199.975 141.445 199.644C140.512 199.312 139.659 198.813 138.932 198.173C138.206 197.533 137.622 196.766 137.214 195.916C136.805 195.065 136.58 194.148 136.55 193.216L131.694 37.1048C131.636 35.2224 132.381 33.3955 133.765 32.0259C135.148 30.6563 137.058 29.8561 139.073 29.8011L217.304 27.6794C218.301 27.652 219.295 27.8085 220.227 28.14C221.16 28.4714 222.013 28.9712 222.739 29.611C223.465 30.2507 224.048 31.0177 224.457 31.8682C224.865 32.7186 225.089 33.6359 225.118 34.5676L229.975 190.679C230.005 191.612 229.837 192.541 229.482 193.413C229.127 194.286 228.591 195.084 227.905 195.762C227.219 196.441 226.396 196.986 225.484 197.367C224.572 197.748 223.589 197.957 222.59 197.983Z" fill="white" stroke="#022C40" stroke-miterlimit="10"/>
<path d="M186.149 193.426C186.13 192.84 185.925 192.271 185.561 191.793C185.196 191.316 184.688 190.949 184.101 190.741C183.514 190.533 182.873 190.492 182.261 190.623C181.649 190.755 181.092 191.053 180.661 191.48C180.231 191.907 179.945 192.444 179.841 193.023C179.736 193.601 179.818 194.196 180.075 194.731C180.333 195.266 180.754 195.718 181.287 196.03C181.819 196.341 182.438 196.499 183.066 196.481C183.483 196.47 183.894 196.382 184.275 196.222C184.656 196.063 184.999 195.834 185.285 195.55C185.572 195.267 185.795 194.933 185.943 194.569C186.091 194.204 186.161 193.816 186.149 193.426V193.426Z" stroke="white" stroke-linecap="round" stroke-linejoin="round"/>
<path d="M221.098 39.1658L135.984 41.47L140.595 190.103L225.709 187.799L221.098 39.1658Z" fill="white" stroke="#022C40" stroke-linecap="round" stroke-linejoin="round"/>
<path d="M218.25 40.7853L211.193 40.9763L211.305 44.5915L218.363 44.4005L218.25 40.7853Z" stroke="#022C40" stroke-width="0.821067" stroke-linecap="round" stroke-linejoin="round"/>
<path d="M216.697 40.8273L211.194 40.9763L211.306 44.5915L216.809 44.4425L216.697 40.8273Z" fill="#022C40" stroke="#022C40" stroke-width="0.725073" stroke-linecap="round" stroke-linejoin="round"/>
<path d="M219.262 41.7705L218.268 41.7974L218.317 43.39L219.311 43.3631L219.262 41.7705Z" fill="#022C40" stroke="#022C40" stroke-width="0.725073" stroke-linecap="round" stroke-linejoin="round"/>
<path d="M139.277 44.0414L137.985 44.0764L138.049 46.1478L139.341 46.1128L139.277 44.0414Z" fill="#022C40" stroke="#022C40" stroke-width="0.883086" stroke-linecap="round" stroke-linejoin="round"/>
<path d="M141.292 43.2444L140 43.2795L140.087 46.0789L141.38 46.0437L141.292 43.2444Z" fill="#022C40" stroke="#022C40" stroke-width="0.883086" stroke-linecap="round" stroke-linejoin="round"/>
<path d="M143.299 42.3296L142.007 42.3647L142.121 46.0239L143.413 45.9887L143.299 42.3296Z" fill="#022C40" stroke="#022C40" stroke-width="0.883086" stroke-linecap="round" stroke-linejoin="round"/>
<path d="M107.865 201.033L29.7229 196.961C28.7263 196.909 27.7503 196.674 26.8509 196.27C25.9514 195.866 25.146 195.3 24.4806 194.605C23.8153 193.91 23.3031 193.099 22.9732 192.219C22.6433 191.339 22.5023 190.407 22.5581 189.476L31.8739 33.5264C31.99 31.6497 32.8982 29.8927 34.3993 28.6408C35.9005 27.3889 37.8719 26.7443 39.8812 26.8484L118.029 30.9207C120.041 31.0267 121.926 31.8745 123.269 33.2779C124.613 34.6813 125.305 36.5255 125.193 38.4053L115.878 194.355C115.76 196.232 114.851 197.989 113.349 199.241C111.847 200.493 109.875 201.137 107.865 201.033Z" fill="#022C40" stroke="#022C40" stroke-linecap="round" stroke-linejoin="round"/>
<path d="M110.529 201.033L32.3868 196.961C31.3901 196.909 30.4142 196.674 29.5147 196.27C28.6153 195.866 27.8098 195.3 27.1445 194.605C26.4792 193.91 25.9669 193.099 25.6371 192.219C25.3072 191.339 25.1662 190.407 25.222 189.476L34.5377 33.5261C34.6552 31.6481 35.5653 29.8904 37.0684 28.6384C38.5715 27.3865 40.5449 26.7426 42.5556 26.8481L120.693 30.9204C122.706 31.0251 124.592 31.8724 125.937 33.276C127.281 34.6795 127.974 36.5244 127.863 38.405L118.547 194.355C118.431 196.233 117.521 197.992 116.018 199.244C114.514 200.496 112.54 201.14 110.529 201.033Z" fill="white" stroke="#022C40" stroke-miterlimit="10"/>
<path d="M74.6215 193.612C74.6568 193.026 74.5052 192.443 74.186 191.938C73.8667 191.432 73.3942 191.027 72.8281 190.772C72.262 190.517 71.6277 190.425 71.0056 190.507C70.3834 190.589 69.8013 190.842 69.3328 191.233C68.8643 191.624 68.5305 192.136 68.3736 192.704C68.2168 193.273 68.2438 193.872 68.4514 194.426C68.659 194.98 69.0377 195.464 69.5398 195.817C70.0419 196.17 70.6447 196.375 71.2721 196.408C72.1132 196.452 72.9386 196.182 73.5667 195.658C74.1949 195.134 74.5743 194.398 74.6215 193.612V193.612Z" stroke="white" stroke-linecap="round" stroke-linejoin="round"/>
<path d="M123.443 42.6469L38.4248 38.2207L29.5667 186.685L114.585 191.112L123.443 42.6469Z" fill="#FAFAFA" stroke="#022C40" stroke-linecap="round" stroke-linejoin="round"/>
<path d="M120.462 44.033L113.413 43.666L113.197 47.2771L120.246 47.6441L120.462 44.033Z" stroke="#022C40" stroke-width="0.821067" stroke-linecap="round" stroke-linejoin="round"/>
<path d="M118.907 43.9571L113.41 43.6709L113.194 47.282L118.691 47.5682L118.907 43.9571Z" fill="#022C40" stroke="#022C40" stroke-width="0.725073" stroke-linecap="round" stroke-linejoin="round"/>
<path d="M121.376 45.0986L120.384 45.0469L120.289 46.6377L121.282 46.6894L121.376 45.0986Z" fill="#022C40" stroke="#022C40" stroke-width="0.725073" stroke-linecap="round" stroke-linejoin="round"/>
<path d="M41.4701 41.0482L40.1794 40.981L40.0559 43.05L41.3466 43.1172L41.4701 41.0482Z" fill="#022C40" stroke="#022C40" stroke-width="0.883086" stroke-linecap="round" stroke-linejoin="round"/>
<path d="M43.5398 40.4275L42.2491 40.3604L42.0823 43.1565L43.373 43.2237L43.5398 40.4275Z" fill="#022C40" stroke="#022C40" stroke-width="0.883086" stroke-linecap="round" stroke-linejoin="round"/>
<path d="M45.6182 39.6778L44.3275 39.6104L44.1088 43.2653L45.3994 43.3327L45.6182 39.6778Z" fill="#022C40" stroke="#022C40" stroke-width="0.883086" stroke-linecap="round" stroke-linejoin="round"/>
<path d="M195.606 77.5634C195.606 77.5634 200.128 82.8237 200.97 87.7124C201.813 92.6011 198.102 95.0748 196.783 96.9325C195.547 98.6837 194.782 100.688 194.554 102.775C194.381 104.603 197.144 104.847 197.144 104.847C197.144 104.847 195.245 106.505 190.686 107.38C186.128 108.255 183.501 104.896 183.501 104.896C183.501 104.896 188.09 101.474 189.038 98.6387C189.985 95.8032 190.315 88.0008 190.027 86.1871C189.739 84.3734 188.875 82.3642 188.86 81.8264C188.844 81.2886 190.142 75.8915 195.606 77.5634Z" fill="#022C40" stroke="#022C40" stroke-linecap="round" stroke-linejoin="round"/>
<path d="M206.832 188.655C206.267 184.69 204.424 173.5 204.424 173.5C204.424 173.5 190.65 168.254 176.587 169.1C162.525 169.946 159.787 172.625 159.787 172.625L157.317 189.843H162.551L206.832 188.655Z" fill="#022C40" stroke="#022C40" stroke-linecap="round" stroke-linejoin="round"/>
<path d="M196.762 146.04L196.176 142.359L210.139 142.72C210.139 142.72 198.871 127.355 197.783 122.799C196.694 118.243 193.047 113.022 189.477 110.308C185.908 107.595 180.214 107.605 180.214 107.605L177.215 107.835L178.037 103.669L168.302 96.1017L168.035 97.7345C168.035 97.7345 166.915 102.496 166.366 105.17C165.816 107.844 164.738 108.763 164.738 108.763C164.738 108.763 158.882 103.601 155.218 102.961C151.555 102.32 146.73 104.818 146.06 108.68C145.39 112.542 148.676 145.307 149.043 147.663C149.409 150.019 154.135 159.767 155.019 162.701C155.904 165.634 159.787 173.363 159.787 173.363C159.787 173.363 167.407 179.073 180.245 179.757C193.083 180.442 205.235 174.052 205.235 174.052C205.235 174.052 201.049 161.449 199.96 157.044C198.871 152.64 196.762 146.04 196.762 146.04ZM163.268 158.335C163.268 158.335 161.101 149.672 160.693 146.871C160.284 144.07 159.567 136.116 159.567 136.116L165.795 148.069L163.268 158.335Z" fill="#275F7A" stroke="#022C40" stroke-linecap="round" stroke-linejoin="round"/>
<path d="M155.972 127.306L155.145 125.287" stroke="#022C40" stroke-linecap="round" stroke-linejoin="round"/>
<path d="M159.573 136.111L157.223 130.357" stroke="#022C40" stroke-linecap="round" stroke-linejoin="round"/>
<path d="M193.758 145.238C193.758 145.238 190.21 153.314 185.646 159.357" stroke="#022C40" stroke-linecap="round" stroke-linejoin="round"/>
<path d="M179.732 170.821C179.298 171.236 178.864 171.627 178.445 171.979" stroke="#022C40" stroke-linecap="round" stroke-linejoin="round"/>
<path d="M191.848 155.045C191.848 155.045 186.552 163.497 181.381 169.114" stroke="#022C40" stroke-linecap="round" stroke-linejoin="round"/>
<path d="M180.198 107.605L177.199 107.835L178.021 103.67L168.287 96.1018L168.02 97.7346C168.02 97.7346 166.9 102.496 166.35 105.17C165.801 107.845 164.723 108.764 164.723 108.764C162.875 107.162 160.882 105.713 158.767 104.432C159.568 106.877 162.634 115.285 167.711 118.292C173.677 121.826 180.073 118.844 181.381 115.114C182.141 112.741 182.615 110.296 182.794 107.825C181.935 107.695 181.068 107.622 180.198 107.605Z" fill="white" stroke="#022C40" stroke-linecap="round" stroke-linejoin="round"/>
<path d="M176.257 107.375L175.996 111.094L179.11 107.825L176.257 107.375Z" fill="#022C40" stroke="#022C40" stroke-linecap="round" stroke-linejoin="round"/>
<path d="M189.231 122.735C189.231 122.735 190.001 116.947 189.933 114.733C189.865 112.518 188.436 107.233 187.755 105.772C187.075 104.31 183.522 101.895 183.244 103.234C182.967 104.574 183.553 108.123 183.579 108.842C183.605 109.56 183.223 112.699 183.223 112.699C183.223 112.699 183.291 109.888 181.988 108.739C180.685 107.59 179.748 107.913 179.774 108.651V109.389C179.774 109.389 181.271 111.716 181.344 113.637C181.418 115.559 181.208 119.406 181.245 120.589C181.282 121.772 183.752 124.808 184.249 125.532C184.746 126.255 189.341 131.457 189.341 131.457L193.669 128.088L189.231 122.735Z" fill="white" stroke="#022C40" stroke-linecap="round" stroke-linejoin="round"/>
<path d="M189.383 112.234C189.383 112.234 186.672 106.544 185.578 107.013C184.484 107.482 187.148 112.293 187.148 112.293L187.672 113.466C187.672 113.466 185.578 117.377 185.296 118.555C185.013 119.734 185.05 120.78 185.379 121.215" fill="white"/>
<path d="M189.383 112.234C189.383 112.234 186.672 106.544 185.578 107.013C184.484 107.482 187.148 112.293 187.148 112.293L187.672 113.466C187.672 113.466 185.578 117.377 185.296 118.555C185.013 119.734 185.05 120.78 185.379 121.215" stroke="#022C40" stroke-linecap="round" stroke-linejoin="round"/>
<path d="M191.67 124.74L183.6 135.006C183.6 135.006 189.43 139.283 192.837 141.997C196.244 144.71 203.404 150.879 205.796 151.403C208.187 151.926 211.976 151.681 212.16 147.389C212.343 143.097 210.726 141.958 207.941 139.078C205.157 136.199 191.67 124.74 191.67 124.74Z" fill="#275F7A" stroke="#022C40" stroke-linecap="round" stroke-linejoin="round"/>
<path d="M192.45 83.4644C193.852 85.5112 194.623 87.8792 194.68 90.3086C194.653 92.6111 192.037 96.6639 191.445 98.6927C190.854 100.722 188.923 103.581 183.433 105.6C179.246 107.136 176.985 108.656 175.137 107.17C173.29 105.684 168.522 99.0985 168.522 99.0985C168.522 99.0985 177.88 90.1668 180.915 87.478C183.951 84.7892 188.467 82.1933 192.45 83.4644Z" fill="white" stroke="#022C40" stroke-linecap="round" stroke-linejoin="round"/>
<path d="M186.081 99.3525C185.669 99.6182 185.197 99.7925 184.702 99.8619C184.207 99.9314 183.701 99.8942 183.223 99.7533" stroke="#022C40" stroke-linecap="round" stroke-linejoin="round"/>
<path d="M178.858 99.5481C178.858 99.5481 179.261 101.361 182.155 102.246" stroke="#022C40" stroke-linecap="round" stroke-linejoin="round"/>
<path d="M181.098 91.7553C181.101 91.9216 181.153 92.0839 181.249 92.2237C181.346 92.3635 181.483 92.475 181.644 92.5455C181.805 92.616 181.985 92.6426 182.161 92.6222C182.338 92.6019 182.505 92.5354 182.643 92.4304C182.782 92.3255 182.885 92.1862 182.942 92.0288C183 91.8713 183.008 91.7019 182.967 91.5401C182.926 91.3783 182.837 91.2305 182.71 91.1138C182.583 90.9972 182.424 90.9162 182.25 90.8804C182.113 90.8669 181.974 90.8788 181.842 90.9155C181.709 90.9522 181.586 91.013 181.479 91.0943C181.372 91.1756 181.284 91.2758 181.218 91.3893C181.153 91.5027 181.112 91.6271 181.098 91.7553Z" fill="#022C40"/>
<path d="M184.82 91.9019C184.84 91.7056 184.812 91.5075 184.737 91.3229C184.663 91.1384 184.544 90.9723 184.389 90.8377C184.235 90.703 184.05 90.6033 183.847 90.5463C183.645 90.4893 183.432 90.4765 183.223 90.509" stroke="#022C40" stroke-linecap="round" stroke-linejoin="round"/>
<path d="M189.095 94.278C189.097 94.415 189.139 94.5488 189.219 94.6641C189.298 94.7794 189.41 94.8715 189.543 94.9298C189.676 94.9881 189.824 95.0102 189.969 94.9936C190.115 94.977 190.253 94.9224 190.367 94.836C190.48 94.7496 190.566 94.635 190.613 94.5053C190.66 94.3756 190.668 94.236 190.634 94.1027C190.6 93.9694 190.526 93.8477 190.422 93.7516C190.317 93.6555 190.186 93.5889 190.042 93.5595C189.815 93.5402 189.589 93.6046 189.412 93.7388C189.235 93.873 189.122 94.0665 189.095 94.278Z" fill="#022C40"/>
<path d="M191.885 94.6002C191.906 94.4034 191.877 94.2048 191.803 94.0198C191.728 93.8349 191.608 93.6685 191.453 93.5337C191.298 93.399 191.112 93.2994 190.909 93.2428C190.706 93.1862 190.492 93.174 190.283 93.2073" stroke="#022C40" stroke-linecap="round" stroke-linejoin="round"/>
<path d="M187.394 89.6677C186.643 89.0312 185.711 88.6103 184.71 88.4556C183.73 88.3769 182.75 88.5964 181.915 89.0812" stroke="#022C40" stroke-linecap="round" stroke-linejoin="round"/>
<path d="M190.875 91.907C190.875 91.907 192.188 92.0145 192.78 93.7251" stroke="#022C40" stroke-linecap="round" stroke-linejoin="round"/>
<path d="M196.862 79.2844C196.862 79.2844 190.922 84.5936 187.572 87.0526C184.223 89.5116 182.862 89.1254 179.722 92.968C176.582 96.8105 173.688 100.091 169.417 101.597C165.147 103.102 159.882 101.597 157.903 100.101C155.925 98.6046 155.438 97.3874 155.438 97.3874C155.438 97.3874 158.537 97.2896 158.327 94.5226C157.422 82.7603 157.369 81.2497 158.442 77.4658C159.515 73.682 165.864 68.715 175.253 68.8813C184.642 69.0475 193.01 74.6597 194.831 75.7255C196.653 76.7912 197.563 77.7347 196.862 79.2844Z" fill="#022C40" stroke="#022C40" stroke-linecap="round" stroke-linejoin="round"/>
<path d="M162.749 94.6149C162.157 94.4541 161.613 94.1674 161.159 93.7774C160.705 93.3874 160.354 92.9045 160.133 92.3667" stroke="#696969" stroke-linecap="round" stroke-linejoin="round"/>
<path d="M188.609 80.0225C185.034 82.7601 179.628 87.0475 176.048 90.6016C173.433 93.2577 169.81 94.8541 165.952 95.0504" stroke="#696969" stroke-linecap="round" stroke-linejoin="round"/>
<path d="M192.288 77.2654C192.288 77.2654 191.764 77.6417 190.906 78.2869" stroke="#696969" stroke-linecap="round" stroke-linejoin="round"/>
<path d="M167.92 88.8566C167.17 89.249 166.373 89.556 165.544 89.7708C161.054 90.7828 159.688 85.2634 159.688 85.2634" stroke="#696969" stroke-linecap="round" stroke-linejoin="round"/>
<path d="M182.354 79.3137C178.597 82.184 174.686 84.8746 170.637 87.3752" stroke="#696969" stroke-linecap="round" stroke-linejoin="round"/>
<path d="M161.023 82.1142C161.023 82.1142 162.252 83.4143 165.811 83.0917C169.37 82.7692 173.316 79.5532 173.316 79.5532" stroke="#696969" stroke-linecap="round" stroke-linejoin="round"/>
<path d="M163.273 158.335L159.897 171.882" stroke="#022C40" stroke-linecap="round" stroke-linejoin="round"/>
<path d="M95.7598 190.073L99.261 165.062C99.261 165.062 97.0891 161.64 88.3229 161.151C79.5567 160.662 58.6434 168.484 58.6434 168.484L53.4726 187.853L95.7598 190.073Z" fill="#022C40" stroke="#022C40" stroke-linecap="round" stroke-linejoin="round"/>
<path d="M65.7978 96.5122L48.1607 89.3747L63.0921 78.1649L61.187 74.2881C61.187 74.2881 43.9896 79.6119 40.0696 81.6212C36.1497 83.6305 28.111 86.7348 28.0063 88.5241C27.9016 90.3133 47.8415 106.651 53.1274 109.37C58.4133 112.088 65.2902 116.668 65.2902 116.668C65.2902 116.668 63.1967 144.089 63.0973 145.419C62.9979 146.749 55.3569 176.012 55.3045 176.897C55.2522 177.782 58.7168 178.936 64.4319 178.794C70.1469 178.652 78.1385 172.18 80.1325 170.508C82.1265 168.836 87.0042 166.871 89.1499 166.758C91.2957 166.646 99.235 165.062 99.235 165.062L111.063 130.156C111.063 130.156 115.825 110.201 111.963 107.551C108.101 104.901 92.0755 102.076 92.0755 102.076L74.5954 100.277L65.7978 96.5122Z" fill="#275F7A" stroke="#022C40" stroke-linecap="round" stroke-linejoin="round"/>
<path d="M75.3962 166.18C77.2175 164.949 79.5831 163.678 81.9277 163.341C85.1818 162.905 88.4637 162.674 91.7511 162.652" fill="#275F7A"/>
<path d="M75.3962 166.18C77.2175 164.949 79.5831 163.678 81.9277 163.341C85.1818 162.905 88.4637 162.674 91.7511 162.652" stroke="#022C40" stroke-linecap="round" stroke-linejoin="round"/>
<path d="M72.0519 168.865C72.0519 168.865 72.4392 168.489 73.0986 167.927L72.0519 168.865Z" fill="#275F7A"/>
<path d="M72.0519 168.865C72.0519 168.865 72.4392 168.489 73.0986 167.927" stroke="#022C40" stroke-linecap="round" stroke-linejoin="round"/>
<path d="M78.845 161.757C78.0565 161.962 77.2907 162.237 76.5579 162.578L78.845 161.757Z" fill="#275F7A"/>
<path d="M78.845 161.757C78.0565 161.962 77.2907 162.237 76.5579 162.578" stroke="#022C40" stroke-linecap="round" stroke-linejoin="round"/>
<path d="M89.2755 161.317C86.6244 160.981 83.9376 160.971 81.2838 161.288L89.2755 161.317Z" fill="#275F7A"/>
<path d="M89.2755 161.317C86.6244 160.981 83.9376 160.971 81.2838 161.288" stroke="#022C40" stroke-linecap="round" stroke-linejoin="round"/>
<path d="M61.9146 105.258L61.3493 103.361" stroke="#022C40" stroke-linecap="round" stroke-linejoin="round"/>
<path d="M65.3057 116.669L62.5267 107.316" stroke="#022C40" stroke-linecap="round" stroke-linejoin="round"/>
<path d="M48.1606 89.3502C45.7125 89.6027 43.2366 89.4738 40.8336 88.969" stroke="#022C40" stroke-linecap="round" stroke-linejoin="round"/>
<path d="M100.727 125.038L108.969 145.81C108.969 145.81 98.8006 160.823 97.0212 162.725C95.5422 164.219 93.9562 165.617 92.2743 166.91L89.197 166.748C87.7735 166.675 84.2618 165.824 83.4715 167.115C82.6812 168.406 82.8225 169.97 80.1796 170.498C77.5366 171.026 79.8603 171.813 81.5194 171.901C83.1784 171.989 84.9578 170.082 85.6644 170.117L87.3234 170.205L94.7079 177.914L98.2249 170.772C98.2249 170.772 113.58 156.472 116.108 153.94C118.636 151.408 122.718 146.739 122.718 146.739C122.718 146.739 115.302 115.72 114.559 111.907C113.816 108.094 111.612 105.551 104.437 106.27" fill="#275F7A"/>
<path d="M100.727 125.038L108.969 145.81C108.969 145.81 98.8006 160.823 97.0212 162.725C95.5422 164.219 93.9562 165.617 92.2743 166.91L89.197 166.748C87.7735 166.675 84.2618 165.824 83.4715 167.115C82.6812 168.406 82.8225 169.97 80.1796 170.498C77.5366 171.026 79.8603 171.813 81.5194 171.901C83.1784 171.989 84.9578 170.082 85.6643 170.117L87.3234 170.205L94.7079 177.914L98.2249 170.772C98.2249 170.772 113.58 156.472 116.108 153.94C118.636 151.408 122.718 146.739 122.718 146.739C122.718 146.739 115.302 115.72 114.559 111.907C113.816 108.094 111.612 105.551 104.437 106.27" stroke="#022C40" stroke-linecap="round" stroke-linejoin="round"/>
<path d="M94.1635 165.379C93.1168 166.269 92.2533 166.919 92.2533 166.919L89.1759 166.758C87.7524 166.685 84.2407 165.834 83.4504 167.125C82.6602 168.415 82.8015 169.98 80.1585 170.508C77.5156 171.036 79.8393 171.823 81.4983 171.911C83.1574 171.999 84.9368 170.092 85.6433 170.126L87.3023 170.214L94.6869 177.924L98.2038 170.781L99.1511 169.897L94.1635 165.379Z" fill="white" stroke="#022C40" stroke-linecap="round" stroke-linejoin="round"/>
<path d="M81.4777 117.113L77.4897 113.227L72.0573 117.015L78.5992 106.446L82.3255 107.693L81.4777 117.113Z" fill="white" stroke="#022C40" stroke-linecap="round" stroke-linejoin="round"/>
<path d="M77.1702 106.779C77.1702 106.779 79.6823 111.902 80.3941 114.043C81.1059 116.184 81.4774 117.123 81.4774 117.123L92.5778 100.878C92.5778 100.878 89.5633 94.811 89.2545 92.9533C89.1222 91.9741 88.7976 91.0261 88.2968 90.157C88.2968 90.157 87.8362 95.5346 83.6546 99.5091C81.2689 101.75 79.0991 104.182 77.1702 106.779Z" fill="white" stroke="#022C40" stroke-linecap="round" stroke-linejoin="round"/>
<path d="M77.1702 106.778C77.1702 106.778 78.107 108.69 79.002 110.689L83.9267 102.315L82.163 100.995C80.3496 102.806 78.6809 104.739 77.1702 106.778Z" fill="#022C40" stroke="#022C40" stroke-linecap="round" stroke-linejoin="round"/>
<path d="M82.744 112.445L81.4774 117.113L86.1929 113.545L82.744 112.445Z" fill="white" stroke="#022C40" stroke-linecap="round" stroke-linejoin="round"/>
<path d="M92.0441 98.0815L82.7441 112.445L88.6476 119.587L96.1368 103.322L92.0441 98.0815Z" fill="white" stroke="#022C40" stroke-linecap="round" stroke-linejoin="round"/>
<path d="M60.1717 84.8821C60.1717 84.8821 62.6419 93.1929 63.7305 96.2777C64.8191 99.3625 66.7764 101.973 69.6444 103.572C72.5124 105.17 73.6481 107.483 76.8824 107.644C80.1168 107.805 83.2935 104.285 84.0786 103.005C84.8636 101.724 88.6056 98.1159 88.9091 95.3488C89.2127 92.5818 89.3802 89.8344 89.3802 89.8344C90.1503 89.0057 90.7204 88.0319 91.0518 86.9792C91.3832 85.9265 91.4682 84.8194 91.3009 83.7333C90.6676 80.1401 88.4695 79.1036 88.4695 79.1036C88.4695 79.1036 86.0621 72.1226 78.5258 70.6755C70.9894 69.2284 61.255 75.97 60.8416 78.4534C60.5427 80.4122 60.3679 82.3858 60.3182 84.3639L60.1717 84.8821Z" fill="white" stroke="#022C40" stroke-linecap="round" stroke-linejoin="round"/>
<path d="M67.8649 92.3716C67.8649 92.3716 66.9909 95.2266 67.6294 96.3119C68.2679 97.3972 70.1729 96.3119 71.0469 95.823" stroke="#022C40" stroke-linecap="round" stroke-linejoin="round"/>
<path d="M68.6134 98.7368C68.6134 98.7368 70.5237 99.8905 73.4545 98.067C75.2094 96.9706 76.5413 95.3769 77.254 93.5205" stroke="#022C40" stroke-linecap="round" stroke-linejoin="round"/>
<path d="M77.0604 88.1229C77.0518 88.3137 76.9858 88.4985 76.87 88.656C76.7541 88.8134 76.5931 88.9372 76.4053 89.0131C76.2176 89.089 76.0107 89.114 75.8085 89.0852C75.6063 89.0563 75.4168 88.9749 75.2619 88.8501C75.107 88.7253 74.9928 88.5623 74.9325 88.3797C74.8723 88.1972 74.8683 88.0024 74.9211 87.8178C74.9739 87.6333 75.0813 87.4663 75.2311 87.3361C75.3808 87.206 75.5668 87.1178 75.7677 87.0818C76.0856 87.0654 76.3979 87.1647 76.639 87.3588C76.88 87.553 77.0311 87.8268 77.0604 88.1229Z" fill="#022C40"/>
<path d="M72.7951 88.2009C72.7766 87.9752 72.8144 87.7485 72.9054 87.5387C72.9964 87.3289 73.1382 87.1416 73.3197 86.9915C73.5012 86.8415 73.7174 86.7327 73.9515 86.6737C74.1855 86.6147 74.431 86.6071 74.6687 86.6516" stroke="#022C40" stroke-linecap="round" stroke-linejoin="round"/>
<path d="M67.8283 90.7826C67.8229 90.9406 67.7696 91.0939 67.6746 91.2247C67.5796 91.3555 67.4468 91.4585 67.2916 91.5218C67.1365 91.585 66.9653 91.6058 66.798 91.5818C66.6307 91.5578 66.4741 91.49 66.3464 91.3862C66.2187 91.2825 66.1251 91.147 66.0765 90.9956C66.028 90.8442 66.0263 90.683 66.0719 90.5308C66.1175 90.3785 66.2083 90.2415 66.3339 90.1355C66.4596 90.0296 66.6148 89.959 66.7816 89.9321C67.0397 89.9211 67.2924 90.0032 67.4873 90.1616C67.6822 90.3199 67.8043 90.5423 67.8283 90.7826Z" fill="#022C40"/>
<path d="M64.6097 91.0705C64.5911 90.8443 64.6289 90.6171 64.7202 90.4069C64.8115 90.1966 64.9538 90.009 65.1359 89.8589C65.318 89.7087 65.535 89.6 65.7697 89.5414C66.0044 89.4828 66.2505 89.4759 66.4886 89.5212" stroke="#022C40" stroke-linecap="round" stroke-linejoin="round"/>
<path d="M62.7571 89.6674C62.7571 89.6674 62.8774 88.7681 64.4109 88.0056C65.9443 87.2432 66.3944 87.2041 66.3944 87.2041" stroke="#022C40" stroke-linecap="round" stroke-linejoin="round"/>
<path d="M69.9166 85.5563C70.767 85.0516 71.7378 84.7511 72.7427 84.6814C73.9131 84.6099 75.0878 84.7324 76.2125 85.0431" stroke="#022C40" stroke-linecap="round" stroke-linejoin="round"/>
<path d="M68.1319 63.4254C68.1319 63.4254 63.9136 61.9979 60.6165 62.4966C57.3193 62.9952 50.6151 68.3973 51.6566 70.8563C52.6981 73.3153 57.1257 71.2767 56.7384 72.7287C56.3511 74.1806 50.8873 76.3023 50.0709 80.0031C49.2544 83.7038 51.6723 87.9814 55.6655 88.1868C59.6587 88.3921 61.6894 81.8314 62.1708 83.7136C62.6523 85.5958 64.4213 85.8353 67.687 83.3323C70.9527 80.8293 74.051 76.1703 75.014 77.4267C75.977 78.6831 76.0607 82.6967 77.0655 82.8825C78.0704 83.0683 79.7922 81.9537 80.9384 82.6821C82.0845 83.4105 82.8172 85.9917 83.7383 85.5029C84.6594 85.014 84.2878 83.7918 84.785 82.7505C85.2822 81.7092 85.3503 79.6071 87.653 79.4213C88.5375 79.3529 88.9928 79.3578 88.9928 79.3578C88.9928 79.3578 90.7304 72.626 88.1764 68.2164C85.6224 63.8067 76.6626 62.2619 74.5691 62.6872C73.3342 62.933 72.1229 63.2731 70.9475 63.7041L68.1319 63.4254Z" fill="#022C40" stroke="#022C40" stroke-linecap="round" stroke-linejoin="round"/>
<path d="M86.2243 74.6743C86.8608 74.9279 87.4439 75.2854 87.9461 75.73" stroke="#696969" stroke-linecap="round" stroke-linejoin="round"/>
<path d="M76.6992 76.468C76.6992 76.468 80.6715 73.8776 84.4658 74.2491" stroke="#696969" stroke-linecap="round" stroke-linejoin="round"/>
<path d="M68.9118 72.6846C66.2008 73.8188 62.956 75.7694 62.0244 78.8297C60.3445 84.3637 68.3989 79.8074 69.6811 78.3408C70.9634 76.8742 66.923 76.6395 65.892 77.9204" stroke="#696969" stroke-linecap="round" stroke-linejoin="round"/>
<path d="M72.952 71.3892C72.0908 71.5834 71.2432 71.8266 70.4137 72.1174" stroke="#696969" stroke-linecap="round" stroke-linejoin="round"/>
<path d="M74.3337 66.9258C71.7616 67.3187 69.2593 68.0391 66.8968 69.067C61.7522 71.4723 54.4933 77.3241 53.5146 81.7239" stroke="#696969" stroke-linecap="round" stroke-linejoin="round"/>
<path d="M79.1904 66.3735C79.1904 66.3735 77.7983 66.4273 75.7991 66.701" stroke="#696969" stroke-linecap="round" stroke-linejoin="round"/>
<path d="M147.682 47.9576H169.663C170.635 47.9576 171.566 48.3181 172.253 48.9599C172.94 49.6016 173.326 50.4721 173.326 51.3797V62.4624C173.326 63.37 172.94 64.2404 172.253 64.8822C171.566 65.5239 170.635 65.8845 169.663 65.8845H153.962L154.821 71.7509L149.503 65.8845H147.666C146.695 65.8845 145.763 65.5239 145.076 64.8822C144.389 64.2404 144.003 63.37 144.003 62.4624V51.3797C144.003 50.929 144.098 50.4828 144.283 50.0667C144.468 49.6505 144.739 49.2726 145.081 48.9547C145.423 48.6367 145.829 48.3849 146.275 48.2138C146.721 48.0427 147.2 47.9556 147.682 47.9576Z" fill="white" stroke="#022C40" stroke-linecap="round" stroke-linejoin="round"/>
<path d="M155.858 59.9363C157.877 58.1743 157.985 55.2169 156.099 53.3307C154.212 51.4445 151.046 51.3438 149.027 53.1058C147.008 54.8678 146.9 57.8252 148.786 59.7114C150.673 61.5976 153.839 61.6983 155.858 59.9363Z" fill="#275F7A" stroke="#022C40" stroke-linecap="round" stroke-linejoin="round"/>
<path d="M150.44 54.8946C150.752 54.6571 151.131 54.5087 151.531 54.4671C151.931 54.4255 152.335 54.4925 152.696 54.66" stroke="#022C40" stroke-linecap="round" stroke-linejoin="round"/>
<path d="M155.197 54.8946C155.331 54.8016 155.487 54.7399 155.651 54.7145C155.816 54.6891 155.985 54.7008 156.143 54.7486C156.302 54.7964 156.446 54.879 156.564 54.9894C156.682 55.0998 156.769 55.2349 156.82 55.3833" stroke="#022C40" stroke-linecap="round" stroke-linejoin="round"/>
<path d="M151.445 57.1143C151.694 57.387 152.001 57.6084 152.347 57.7642C152.692 57.92 153.069 58.0069 153.452 58.0193C153.836 58.0317 154.218 57.9694 154.574 57.8363C154.931 57.7032 155.253 57.5022 155.522 57.2462" stroke="#022C40" stroke-linecap="round" stroke-linejoin="round"/>
<path opacity="0.2" d="M151.445 56.7079C151.445 56.4653 151.368 56.2281 151.224 56.0264C151.079 55.8247 150.874 55.6674 150.634 55.5746C150.394 55.4817 150.13 55.4574 149.875 55.5048C149.62 55.5521 149.386 55.6689 149.202 55.8405C149.019 56.0121 148.894 56.2307 148.843 56.4686C148.792 56.7066 148.818 56.9532 148.918 57.1774C149.017 57.4016 149.185 57.5932 149.401 57.728C149.617 57.8627 149.871 57.9347 150.131 57.9347C150.48 57.9347 150.814 57.8054 151.06 57.5754C151.307 57.3453 151.445 57.0333 151.445 56.7079Z" fill="black"/>
<path opacity="0.2" d="M157.197 56.9671C157.196 56.7537 157.127 56.5453 156.999 56.3683C156.871 56.1914 156.691 56.0537 156.479 55.9727C156.268 55.8917 156.035 55.871 155.811 55.9132C155.587 55.9554 155.382 56.0587 155.22 56.2099C155.059 56.3612 154.95 56.5537 154.905 56.763C154.861 56.9724 154.884 57.1893 154.972 57.3864C155.06 57.5835 155.208 57.7519 155.398 57.8704C155.588 57.9889 155.812 58.0521 156.04 58.0521C156.192 58.0521 156.343 58.024 156.484 57.9694C156.625 57.9148 156.752 57.8348 156.86 57.734C156.967 57.6332 157.052 57.5135 157.11 57.3819C157.168 57.2503 157.197 57.1093 157.197 56.9671Z" fill="black"/>
<path d="M167.573 60.0885C169.67 58.407 169.91 55.4563 168.11 53.498C166.31 51.5397 163.151 51.3152 161.055 52.9967C158.958 54.6782 158.718 57.6288 160.518 59.5871C162.318 61.5455 165.477 61.7699 167.573 60.0885Z" fill="#275F7A" stroke="#022C40" stroke-linecap="round" stroke-linejoin="round"/>
<path d="M162.305 54.8946C162.616 54.6581 162.994 54.5102 163.393 54.4686C163.792 54.427 164.195 54.4934 164.555 54.66" stroke="#022C40" stroke-linecap="round" stroke-linejoin="round"/>
<path d="M167.057 54.8946C167.191 54.8006 167.347 54.738 167.512 54.712C167.677 54.6861 167.847 54.6975 168.006 54.7454C168.166 54.7933 168.31 54.8762 168.428 54.9872C168.546 55.0982 168.634 55.2341 168.684 55.3834" stroke="#022C40" stroke-linecap="round" stroke-linejoin="round"/>
<path d="M163.304 57.1143C163.553 57.387 163.86 57.6084 164.206 57.7642C164.551 57.92 164.928 58.0069 165.311 58.0193C165.695 58.0317 166.077 57.9694 166.433 57.8363C166.79 57.7032 167.113 57.5022 167.381 57.2462" stroke="#022C40" stroke-linecap="round" stroke-linejoin="round"/>
<path opacity="0.2" d="M163.304 56.7079C163.304 56.4653 163.227 56.2281 163.083 56.0264C162.938 55.8247 162.733 55.6674 162.493 55.5746C162.253 55.4817 161.989 55.4574 161.734 55.5048C161.479 55.5521 161.245 55.6689 161.062 55.8405C160.878 56.0121 160.753 56.2307 160.702 56.4686C160.651 56.7066 160.677 56.9532 160.777 57.1774C160.876 57.4016 161.045 57.5932 161.261 57.728C161.477 57.8627 161.731 57.9347 161.991 57.9347C162.339 57.9347 162.673 57.8054 162.919 57.5754C163.166 57.3453 163.304 57.0333 163.304 56.7079Z" fill="black"/>
<path opacity="0.2" d="M169.061 56.9671C169.06 56.7537 168.991 56.5453 168.864 56.3683C168.736 56.1914 168.555 56.0537 168.343 55.9727C168.132 55.8917 167.9 55.871 167.676 55.9132C167.452 55.9554 167.246 56.0587 167.085 56.2099C166.924 56.3612 166.814 56.5537 166.77 56.763C166.725 56.9724 166.749 57.1893 166.836 57.3864C166.924 57.5835 167.072 57.7519 167.262 57.8704C167.452 57.9889 167.676 58.0521 167.904 58.0521C168.057 58.0521 168.208 58.024 168.348 57.9694C168.489 57.9148 168.617 57.8348 168.724 57.734C168.832 57.6332 168.917 57.5135 168.975 57.3819C169.032 57.2503 169.062 57.1093 169.061 56.9671Z" fill="black"/>
<path d="M109.022 47.9575H87.0408C86.0692 47.9575 85.1373 48.3181 84.4503 48.9598C83.7633 49.6016 83.3773 50.472 83.3773 51.3796V62.4623C83.3773 63.3699 83.7633 64.2404 84.4503 64.8821C85.1373 65.5239 86.0692 65.8844 87.0408 65.8844H102.741L101.883 71.7509L107.2 65.8844H109.022C109.993 65.8844 110.925 65.5239 111.612 64.8821C112.299 64.2404 112.685 63.3699 112.685 62.4623V51.3796C112.685 50.472 112.299 49.6016 111.612 48.9598C110.925 48.3181 109.993 47.9575 109.022 47.9575Z" fill="white" stroke="#022C40" stroke-linecap="round" stroke-linejoin="round"/>
<path d="M106.159 54.7578C106.158 53.8395 105.825 52.9484 105.215 52.2286C104.604 51.5087 103.752 51.0022 102.795 50.7908C101.838 50.5794 100.833 50.6755 99.9423 51.0636C99.0513 51.4516 98.3264 52.109 97.8848 52.9294C97.4431 52.109 96.7182 51.4516 95.8272 51.0636C94.9362 50.6755 93.9312 50.5794 92.9745 50.7908C92.0178 51.0022 91.1654 51.5087 90.555 52.2286C89.9446 52.9484 89.6118 53.8395 89.6105 54.7578C89.6105 56.8404 91.3166 58.9621 93.0071 60.1989C93.8549 60.8198 97.7173 63.2299 97.8324 63.1664C97.9476 63.2299 101.81 60.8198 102.658 60.1989C104.264 59.0257 106.159 56.7475 106.159 54.7578Z" fill="#275F7A" stroke="#022C40" stroke-linecap="round" stroke-linejoin="round"/>
</svg>
