<svg width="249" height="228" viewBox="0 0 249 228" fill="none" xmlns="http://www.w3.org/2000/svg">
<path d="M124.032 228C164.791 228 197.832 226.005 197.832 223.544C197.832 221.084 164.791 219.089 124.032 219.089C83.2738 219.089 50.2326 221.084 50.2326 223.544C50.2326 226.005 83.2738 228 124.032 228Z" fill="#022C40"/>
<path d="M50.7693 192.599C51.7998 193.009 54.317 192.96 54.317 192.96C54.317 192.96 53.7803 191.44 53.732 191.346C53.1953 190.282 51.4348 188.524 50.0125 188.702C49.775 188.737 49.5482 188.818 49.3471 188.94C49.1461 189.062 48.9755 189.222 48.8465 189.409C48.7176 189.596 48.6334 189.807 48.5993 190.026C48.5653 190.246 48.5823 190.47 48.6492 190.683C48.88 191.569 49.8891 192.242 50.7693 192.599Z" fill="#022C40"/>
<path d="M51.6334 199.316C52.7068 199.46 54.9449 198.861 55.1274 198.821C55.496 200.003 55.9497 201.161 56.4853 202.287C56.7966 202.945 57.1294 203.604 57.4729 204.267C57.269 203.995 57.0811 203.772 57.0489 203.713C56.2116 202.821 54.0271 201.549 52.7068 202.069C52.4903 202.16 52.2971 202.293 52.1397 202.458C51.9823 202.623 51.8644 202.816 51.7935 203.026C51.7226 203.235 51.7004 203.457 51.7283 203.675C51.7562 203.893 51.8336 204.103 51.9554 204.292C52.4438 205.109 53.6085 205.515 54.5585 205.638C55.5085 205.762 57.4407 205.292 57.9506 205.143C58.0848 205.396 58.2136 205.638 58.3478 205.891C59.0026 207.089 59.652 208.277 60.2585 209.46C60.4678 209.876 60.6611 210.297 60.8596 210.713C60.6772 210.465 60.5215 210.262 60.4947 210.218C59.6574 209.327 57.4675 208.054 56.1472 208.569C55.9313 208.661 55.7386 208.794 55.5818 208.959C55.4249 209.124 55.3072 209.317 55.2364 209.527C55.1656 209.736 55.1432 209.957 55.1707 210.175C55.1981 210.393 55.2748 210.603 55.3958 210.792C55.8842 211.614 57.0543 212.015 57.9989 212.143C58.9435 212.272 60.6825 211.841 61.2998 211.688C61.4822 212.119 61.6701 212.554 61.8365 212.98C61.9331 213.277 62.0565 213.549 62.137 213.851C62.2176 214.153 62.3142 214.441 62.4054 214.733C62.5503 215.297 62.706 215.881 62.8348 216.431C62.926 216.817 63.0065 217.188 63.0924 217.559C62.8831 217.139 62.4591 216.332 62.4161 216.267C61.7345 215.277 59.7808 213.703 58.3961 214.03C58.167 214.09 57.9542 214.194 57.7715 214.335C57.5888 214.476 57.4403 214.651 57.3355 214.849C57.2308 215.046 57.1722 215.262 57.1635 215.481C57.1548 215.701 57.1962 215.92 57.2851 216.124C57.6339 217 58.7181 217.564 59.6359 217.822C60.6396 218.104 62.8563 217.822 63.1461 217.822C63.2803 218.436 63.4037 219.035 63.5111 219.599C63.7526 220.847 63.9297 221.97 64.0478 222.916H64.9871C64.8207 221.926 64.606 220.767 64.3269 219.451C64.1927 218.827 64.0371 218.163 63.8707 217.47C64.5417 217.223 65.1959 216.939 65.8297 216.619C66.565 217.351 68.4436 218.213 68.6851 218.322C68.4275 218.901 68.1752 219.46 67.9229 219.99C67.3862 221.094 66.9139 222.069 66.4738 222.901H67.4936C67.8639 222.134 68.2772 221.262 68.7066 220.292C68.9696 219.708 69.2433 219.074 69.5063 218.421C69.7746 218.47 71.9806 218.886 73.0111 218.673C73.9396 218.475 75.0721 217.99 75.4854 217.139C75.5912 216.942 75.6508 216.727 75.6605 216.508C75.6702 216.289 75.6296 216.071 75.5415 215.867C75.4533 215.663 75.3196 215.479 75.149 215.326C74.9784 215.173 74.7748 215.055 74.5515 214.98C73.1936 214.559 71.1218 215.97 70.3597 216.931C70.3167 216.985 69.9034 217.644 69.6512 218.064C69.7585 217.797 69.8659 217.54 69.9732 217.262C70.1879 216.718 70.3865 216.168 70.6066 215.574C70.6978 215.287 70.7944 214.995 70.891 214.703C70.9876 214.411 71.0574 214.094 71.1433 213.787C71.3311 213.069 71.4761 212.337 71.6102 211.594C72.147 211.767 73.9772 212.361 74.9379 212.302C75.8987 212.242 77.0848 211.916 77.6215 211.134C77.7581 210.954 77.8522 210.75 77.8976 210.534C77.943 210.319 77.9387 210.097 77.8851 209.883C77.8314 209.669 77.7296 209.468 77.5861 209.293C77.4427 209.118 77.2609 208.972 77.0526 208.866C75.7752 208.257 73.4941 209.361 72.5871 210.208C72.528 210.262 71.9537 210.926 71.6424 211.297C71.7176 210.851 71.7981 210.406 71.8571 209.95C72.0342 208.638 72.1684 207.307 72.308 205.99C72.3509 205.584 72.3992 205.178 72.4475 204.772C72.63 204.836 74.8091 205.584 75.8826 205.515C76.8379 205.455 78.0295 205.133 78.5662 204.351C78.7026 204.171 78.7963 203.967 78.8413 203.751C78.8863 203.535 78.8816 203.313 78.8274 203.099C78.7732 202.885 78.6708 202.685 78.5269 202.51C78.3829 202.335 78.2006 202.19 77.9919 202.084C76.7198 201.475 74.4388 202.579 73.5317 203.425C73.4619 203.49 72.63 204.445 72.4583 204.698C72.5602 203.807 72.6729 202.916 72.8232 202.044C73.0158 200.874 73.2919 199.716 73.6498 198.579C73.7303 198.609 76.006 199.401 77.1063 199.331C78.0563 199.267 79.2532 198.945 79.7899 198.163C79.9265 197.983 80.0206 197.779 80.066 197.564C80.1114 197.348 80.1071 197.126 80.0534 196.912C79.9998 196.698 79.8979 196.497 79.7545 196.322C79.6111 196.147 79.4293 196.002 79.221 195.896C77.9436 195.287 75.6625 196.391 74.7554 197.237C74.6857 197.302 73.7893 198.336 73.6444 198.534C73.6444 198.465 73.682 198.396 73.7035 198.326C74.095 197.187 74.5962 196.082 75.2009 195.024C75.5283 194.435 75.8718 193.891 76.2261 193.366C76.634 193.554 78.5018 194.391 79.5001 194.43C80.4984 194.47 81.6792 194.267 82.3232 193.544C82.4806 193.379 82.5985 193.186 82.6694 192.976C82.7402 192.767 82.7625 192.545 82.7346 192.327C82.7068 192.109 82.6295 191.899 82.5077 191.71C82.386 191.522 82.2226 191.359 82.0281 191.232C80.8312 190.499 78.4266 191.381 77.4283 192.113C77.3747 192.153 76.8916 192.608 76.5052 192.96C76.6715 192.727 76.8326 192.465 76.9936 192.262C77.5947 191.43 78.1958 190.697 78.7379 190.059C79.0492 189.697 79.3391 189.376 79.6128 189.069C80.1119 189.069 82.1408 189.004 83.0264 188.623C83.912 188.242 84.8834 187.549 85.0927 186.643C85.149 186.43 85.1563 186.208 85.1141 185.993C85.0718 185.777 84.981 185.572 84.8475 185.39C84.714 185.209 84.5408 185.055 84.339 184.939C84.1371 184.823 83.9112 184.748 83.6758 184.717C82.2481 184.579 80.5574 186.381 80.0368 187.455C79.9885 187.549 79.4679 189.084 79.5001 189.084H79.5323C79.2586 189.366 78.9956 189.668 78.6735 190.009C78.1368 190.643 77.4874 191.361 76.8701 192.183C76.1893 193.064 75.5656 193.981 75.0023 194.93C74.358 195.987 73.819 197.096 73.3922 198.242C73.3922 198.242 73.3922 198.272 73.3922 198.287C73.3922 197.901 73.3922 196.802 73.3653 196.732C73.2043 195.559 72.1416 193.391 70.73 193.148C70.4936 193.114 70.252 193.126 70.0211 193.184C69.7902 193.242 69.5753 193.345 69.3907 193.485C69.206 193.625 69.0557 193.8 68.9498 193.998C68.8439 194.196 68.7848 194.413 68.7763 194.633C68.6905 195.564 69.4204 196.495 70.1342 197.109C70.9393 197.772 73.1721 198.411 73.3546 198.46C72.9555 199.638 72.6399 200.838 72.41 202.054C72.2758 202.762 72.1631 203.475 72.0557 204.198C72.0557 203.861 72.0557 203.559 72.0557 203.52C71.8893 202.346 70.8266 200.178 69.415 199.935C69.1787 199.901 68.937 199.913 68.7061 199.971C68.4753 200.029 68.2604 200.132 68.0757 200.272C67.891 200.413 67.7408 200.588 67.6349 200.786C67.529 200.983 67.4698 201.2 67.4614 201.42C67.3755 202.351 68.1108 203.282 68.8193 203.871C69.5277 204.46 71.4331 205.049 71.9376 205.198L71.8249 206.025C71.6532 207.351 71.4868 208.673 71.2882 209.985C71.2184 210.44 71.1272 210.886 71.0413 211.337C71.0413 211.039 71.0413 210.787 71.0413 210.747C70.8803 209.579 69.8176 207.406 68.406 207.163C68.1699 207.13 67.9289 207.144 67.6987 207.202C67.4686 207.261 67.2544 207.364 67.0701 207.504C66.8858 207.644 66.7356 207.818 66.6291 208.015C66.5227 208.213 66.4625 208.428 66.4523 208.648C66.3664 209.574 67.0964 210.51 67.8102 211.094C68.5241 211.678 70.2416 212.218 70.8374 212.396C70.7354 212.851 70.628 213.307 70.5046 213.743C70.4133 214.04 70.3489 214.332 70.2362 214.624C70.1235 214.916 70.0323 215.208 69.9357 215.495C69.721 216.04 69.5009 216.604 69.2755 217.134C69.1252 217.5 68.9695 217.847 68.8139 218.198C68.8944 217.748 69.0232 216.856 69.0286 216.777C69.0138 215.734 68.7089 214.711 68.143 213.807C68.1538 213.692 68.1538 213.576 68.143 213.46C68.1133 213.242 68.0341 213.032 67.9105 212.844C67.7869 212.656 67.6217 212.494 67.4257 212.369C67.2297 212.244 67.0073 212.158 66.773 212.118C66.5387 212.077 66.2977 212.082 66.0659 212.134C64.6811 212.47 63.8063 214.713 63.7419 215.891C63.7419 215.96 63.7848 216.723 63.8224 217.198C63.7526 216.921 63.6882 216.653 63.613 216.366C63.4681 215.802 63.3071 215.243 63.1354 214.639L62.8455 213.762C62.7597 213.47 62.6255 213.168 62.5128 212.871C62.239 212.178 61.9224 211.49 61.5896 210.807C62.1263 210.688 64.0263 210.242 64.8099 209.703C65.5936 209.163 66.3342 208.198 66.3342 207.277C66.341 207.057 66.2976 206.839 66.2068 206.636C66.116 206.433 65.9798 206.25 65.8071 206.098C65.6345 205.947 65.4292 205.831 65.2047 205.758C64.9802 205.684 64.7414 205.656 64.504 205.673C63.0817 205.817 61.8204 207.911 61.5842 209.064C61.5842 209.138 61.4822 209.985 61.45 210.455C61.2461 210.044 61.0421 209.634 60.8221 209.223C60.1834 208.039 59.5017 206.861 58.8255 205.683C58.6161 205.322 58.4122 204.955 58.2082 204.594C58.4015 204.554 60.6664 204.069 61.5198 203.465C62.282 202.93 63.087 202.054 63.0763 201.118C63.0823 200.899 63.0383 200.681 62.9472 200.479C62.856 200.276 62.7197 200.094 62.5472 199.943C62.3746 199.792 62.1696 199.677 61.9454 199.604C61.7213 199.531 61.483 199.502 61.2461 199.519C59.8238 199.658 58.5625 201.752 58.3263 202.911C58.3263 202.995 58.1868 204.218 58.1707 204.529C57.7252 203.732 57.2851 202.935 56.8879 202.133C56.3444 201.051 55.8765 199.939 55.487 198.802C55.5783 198.802 57.9452 198.307 58.8201 197.668C59.5769 197.128 60.382 196.252 60.3766 195.321C60.3826 195.102 60.3385 194.883 60.247 194.68C60.1556 194.477 60.0189 194.294 59.8459 194.142C59.6728 193.991 59.4672 193.875 59.2424 193.802C59.0176 193.729 58.7787 193.7 58.541 193.717C57.1187 193.861 55.8574 195.955 55.6266 197.109C55.6266 197.203 55.4763 198.514 55.4709 198.752C55.4709 198.688 55.4173 198.623 55.3958 198.554C55.0415 197.405 54.799 196.228 54.6712 195.039C54.5907 194.381 54.5531 193.752 54.537 193.133C54.9879 193.084 57.0489 192.831 57.9023 192.356C58.7557 191.881 59.6198 191.108 59.7272 190.178C59.7595 189.962 59.7426 189.742 59.6774 189.532C59.6122 189.322 59.5002 189.128 59.3485 188.96C59.1969 188.793 59.009 188.657 58.7969 188.56C58.5848 188.464 58.3532 188.409 58.117 188.4C56.6839 188.4 55.2079 190.356 54.8108 191.475C54.8108 191.539 54.6444 192.183 54.5478 192.653C54.5478 192.371 54.5478 192.089 54.5478 191.821C54.5478 190.831 54.6175 189.905 54.682 189.094C54.7249 188.633 54.7732 188.217 54.8269 187.831C55.2401 187.569 56.8986 186.489 57.4085 185.717C57.9184 184.945 58.3102 183.881 57.9452 183.009C57.865 182.803 57.7386 182.614 57.5742 182.455C57.4097 182.297 57.211 182.172 56.9908 182.089C56.7706 182.006 56.5339 181.966 56.2961 181.973C56.0583 181.98 55.8247 182.033 55.6105 182.128C54.3384 182.732 54.0003 185.098 54.215 186.262C54.215 186.361 54.7142 187.905 54.7517 187.891C54.6981 188.262 54.6444 188.663 54.5907 189.103C54.5048 189.91 54.4136 190.826 54.3868 191.831C54.3474 192.913 54.3761 193.995 54.4726 195.074C54.5747 196.281 54.792 197.477 55.1221 198.648V198.693C54.8966 198.366 54.2311 197.47 54.1721 197.406C53.3348 196.514 51.1503 195.242 49.83 195.762C49.6134 195.853 49.4202 195.986 49.2629 196.151C49.1055 196.316 48.9876 196.509 48.9167 196.719C48.8458 196.928 48.8236 197.15 48.8515 197.368C48.8793 197.586 48.9567 197.796 49.0786 197.985C49.524 198.792 50.6887 199.188 51.6334 199.316Z" fill="#022C40"/>
<path d="M76.2099 193.108C76.2099 193.108 76.6661 191.564 76.6822 191.465C76.8593 190.296 76.4568 187.94 75.1633 187.366C74.9463 187.276 74.7111 187.229 74.4731 187.228C74.2352 187.227 73.9997 187.273 73.782 187.361C73.5643 187.45 73.3693 187.58 73.2097 187.743C73.05 187.906 72.9293 188.098 72.8554 188.306C72.5119 189.183 72.9466 190.262 73.4672 190.999C74.0791 191.861 76.2099 193.103 76.2099 193.108Z" fill="#022C40"/>
<path d="M175.67 196.627C176.567 196.989 178.746 196.939 178.746 196.939C178.746 196.939 178.279 195.623 178.236 195.543C177.758 194.623 176.245 193.099 175.015 193.252C174.812 193.282 174.617 193.351 174.444 193.456C174.271 193.56 174.124 193.697 174.013 193.857C173.901 194.017 173.828 194.197 173.797 194.386C173.766 194.574 173.779 194.766 173.835 194.95C174.039 195.737 174.914 196.316 175.67 196.627Z" fill="#022C40"/>
<path d="M176.427 202.455C177.35 202.579 179.299 202.059 179.449 202.014C179.771 203.042 180.166 204.049 180.63 205.029C180.898 205.604 181.166 206.168 181.488 206.737C181.306 206.495 181.15 206.282 181.123 206.242C180.393 205.465 178.499 204.366 177.366 204.811C177.179 204.891 177.012 205.006 176.876 205.149C176.74 205.292 176.638 205.459 176.577 205.641C176.515 205.823 176.496 206.014 176.52 206.203C176.545 206.392 176.612 206.574 176.717 206.737C177.136 207.45 178.15 207.802 178.971 207.911C179.792 208.019 181.472 207.609 181.912 207.495L182.261 208.143C182.798 209.178 183.388 210.208 183.914 211.237C184.097 211.599 184.263 211.96 184.451 212.322L184.134 211.906C183.404 211.133 181.51 210.029 180.377 210.475C180.189 210.554 180.021 210.669 179.885 210.813C179.748 210.956 179.646 211.124 179.585 211.306C179.523 211.489 179.505 211.681 179.529 211.87C179.554 212.06 179.622 212.242 179.728 212.406C180.147 213.114 181.161 213.465 181.982 213.574C182.803 213.683 184.317 213.312 184.843 213.178C185.004 213.554 185.165 213.93 185.299 214.302C185.39 214.554 185.492 214.797 185.567 215.054C185.643 215.312 185.718 215.549 185.798 215.817C185.922 216.312 186.056 216.807 186.169 217.302C186.249 217.638 186.319 217.955 186.389 218.292C186.212 217.931 185.852 217.228 185.809 217.173C185.219 216.307 183.523 214.955 182.32 215.237C182.122 215.289 181.937 215.379 181.778 215.5C181.62 215.622 181.491 215.774 181.4 215.945C181.309 216.116 181.259 216.303 181.252 216.493C181.245 216.684 181.282 216.873 181.36 217.049C181.66 217.812 182.599 218.297 183.394 218.535C184.269 218.782 186.201 218.559 186.442 218.535C186.555 219.064 186.662 219.584 186.754 220.074C186.963 221.158 187.119 222.129 187.237 222.95H188.053C187.908 222.104 187.725 221.089 187.478 219.95C187.366 219.411 187.231 218.832 187.086 218.242C187.667 218.027 188.233 217.78 188.782 217.505C189.531 218.102 190.366 218.602 191.262 218.99C191.037 219.485 190.817 219.98 190.602 220.436C190.151 221.391 189.722 222.243 189.346 222.96H190.226C190.548 222.297 190.908 221.54 191.3 220.698C191.53 220.203 191.761 219.639 191.992 219.074C192.228 219.119 194.139 219.48 195.03 219.292C195.84 219.124 196.817 218.703 197.177 217.965C197.268 217.794 197.319 217.607 197.326 217.417C197.334 217.226 197.298 217.037 197.221 216.86C197.144 216.683 197.028 216.523 196.88 216.39C196.732 216.257 196.555 216.155 196.361 216.089C195.186 215.728 193.388 216.96 192.727 217.782C192.69 217.832 192.33 218.401 192.11 218.772C192.207 218.539 192.298 218.317 192.395 218.074C192.582 217.604 192.754 217.129 192.931 216.614C193.012 216.361 193.092 216.119 193.178 215.856C193.264 215.594 193.323 215.327 193.398 215.059C193.559 214.44 193.688 213.807 193.801 213.163C194.252 213.312 195.856 213.827 196.683 213.772C197.51 213.718 198.551 213.44 199.029 212.782C199.15 212.626 199.233 212.447 199.274 212.259C199.315 212.071 199.312 211.876 199.265 211.689C199.219 211.502 199.129 211.326 199.003 211.173C198.877 211.02 198.718 210.894 198.535 210.802C197.429 210.277 195.449 211.242 194.665 211.965C194.611 212.01 194.128 212.589 193.844 212.911C193.908 212.52 193.978 212.133 194.032 211.742C194.182 210.604 194.3 209.45 194.423 208.277C194.461 207.925 194.499 207.574 194.542 207.222C194.703 207.277 196.592 207.93 197.52 207.866C198.347 207.816 199.383 207.534 199.866 206.876C199.987 206.719 200.07 206.541 200.111 206.352C200.151 206.164 200.147 205.969 200.1 205.782C200.053 205.595 199.963 205.419 199.837 205.266C199.71 205.113 199.55 204.987 199.367 204.896C198.293 204.371 196.286 205.336 195.497 206.059C195.438 206.113 194.719 206.945 194.547 207.163C194.638 206.391 194.735 205.618 194.864 204.866C195.029 203.843 195.267 202.83 195.577 201.836C195.653 201.861 197.622 202.549 198.572 202.485C199.399 202.435 200.44 202.153 200.918 201.495C201.039 201.338 201.123 201.16 201.163 200.972C201.204 200.783 201.201 200.589 201.154 200.402C201.108 200.215 201.019 200.039 200.893 199.886C200.767 199.733 200.607 199.606 200.424 199.514C199.318 198.99 197.338 199.955 196.554 200.678C196.49 200.737 195.717 201.628 195.588 201.802C195.588 201.742 195.62 201.683 195.636 201.623C195.979 200.636 196.415 199.678 196.941 198.762C197.22 198.267 197.52 197.772 197.826 197.321C198.181 197.485 199.801 198.212 200.666 198.242C201.53 198.272 202.555 198.103 203.113 197.475C203.249 197.331 203.35 197.163 203.411 196.982C203.472 196.8 203.491 196.608 203.467 196.419C203.442 196.231 203.375 196.048 203.27 195.885C203.165 195.721 203.024 195.58 202.855 195.47C201.819 194.836 199.737 195.598 198.868 196.237C198.825 196.272 198.384 196.673 198.073 196.97C198.213 196.767 198.352 196.554 198.492 196.366C199.029 195.643 199.565 195.009 200.005 194.455C200.274 194.138 200.542 193.861 200.762 193.603C201.197 193.603 202.957 193.544 203.725 193.212C204.492 192.881 205.335 192.282 205.518 191.489C205.566 191.304 205.572 191.112 205.535 190.925C205.498 190.738 205.418 190.56 205.302 190.402C205.186 190.245 205.035 190.112 204.859 190.012C204.684 189.912 204.488 189.847 204.283 189.821C203.049 189.697 201.599 191.257 201.132 192.192C201.09 192.277 200.639 193.603 200.66 193.603H200.687C200.456 193.846 200.204 194.098 199.941 194.405C199.458 194.955 198.921 195.579 198.379 196.292C197.792 197.055 197.254 197.851 196.769 198.673C196.217 199.592 195.754 200.555 195.384 201.549C195.386 201.561 195.386 201.572 195.384 201.584C195.384 201.247 195.384 200.306 195.384 200.237C195.239 199.247 194.311 197.336 193.092 197.128C192.889 197.1 192.681 197.111 192.482 197.161C192.283 197.211 192.098 197.299 191.939 197.42C191.779 197.54 191.649 197.69 191.557 197.86C191.464 198.03 191.411 198.216 191.402 198.405C191.327 199.212 191.938 200.019 192.577 200.529C193.275 201.104 195.212 201.658 195.368 201.703C195.019 202.722 194.745 203.763 194.547 204.816C194.429 205.43 194.332 206.049 194.241 206.673C194.241 206.381 194.241 206.123 194.241 206.089C194.096 205.074 193.167 203.188 191.955 202.98C191.75 202.95 191.542 202.961 191.343 203.011C191.143 203.061 190.957 203.149 190.797 203.269C190.637 203.39 190.507 203.54 190.414 203.71C190.321 203.88 190.268 204.067 190.258 204.257C190.183 205.064 190.822 205.871 191.439 206.376C192.056 206.881 193.704 207.401 194.123 207.529L194.026 208.247C193.876 209.396 193.731 210.544 193.554 211.668C193.495 212.064 193.414 212.45 193.339 212.836C193.339 212.579 193.339 212.341 193.339 212.341C193.2 211.351 192.266 209.44 191.053 209.232C190.849 209.203 190.64 209.214 190.441 209.263C190.241 209.313 190.056 209.401 189.896 209.522C189.736 209.642 189.605 209.793 189.512 209.963C189.419 210.133 189.366 210.319 189.357 210.51C189.287 211.317 189.92 212.124 190.538 212.628C191.344 213.128 192.229 213.509 193.162 213.757C193.071 214.153 192.98 214.549 192.872 214.926C192.797 215.183 192.738 215.421 192.642 215.693C192.545 215.965 192.464 216.188 192.379 216.445C192.191 216.916 192.003 217.406 191.81 217.866C191.675 218.183 191.541 218.485 191.407 218.792C191.477 218.396 191.59 217.624 191.595 217.559C191.58 216.66 191.316 215.778 190.827 215C190.836 214.899 190.836 214.798 190.827 214.698C190.801 214.509 190.733 214.328 190.625 214.165C190.518 214.002 190.375 213.862 190.206 213.754C190.036 213.646 189.844 213.572 189.641 213.536C189.439 213.501 189.23 213.505 189.029 213.549C187.827 213.841 187.065 215.787 187.011 216.807C187.011 216.866 187.049 217.525 187.086 217.94C187.022 217.698 186.968 217.445 186.904 217.218C186.775 216.723 186.636 216.228 186.485 215.733C186.405 215.485 186.319 215.237 186.238 214.975C186.158 214.713 186.045 214.48 185.949 214.203C185.707 213.604 185.439 213.005 185.149 212.411C185.616 212.312 187.258 211.916 187.918 211.455C188.579 210.995 189.271 210.227 189.266 209.42C189.272 209.228 189.234 209.037 189.154 208.859C189.073 208.681 188.953 208.521 188.801 208.39C188.649 208.258 188.468 208.158 188.27 208.096C188.073 208.034 187.863 208.011 187.655 208.029C186.421 208.153 185.347 209.97 185.127 210.97C185.127 211.034 185.036 211.772 185.009 212.173C184.832 211.822 184.655 211.46 184.473 211.109C183.936 210.084 183.324 209.059 182.739 208.039C182.556 207.722 182.385 207.411 182.202 207.099C182.363 207.059 184.349 206.643 185.074 206.109C185.729 205.643 186.426 204.881 186.421 204.074C186.427 203.881 186.389 203.69 186.309 203.512C186.229 203.335 186.109 203.175 185.956 203.043C185.804 202.911 185.623 202.811 185.426 202.749C185.228 202.687 185.018 202.664 184.811 202.683C183.576 202.806 182.503 204.623 182.277 205.623C182.277 205.698 182.159 206.757 182.149 207.029C181.757 206.336 181.376 205.648 181.032 204.95C180.561 204.013 180.155 203.049 179.819 202.064C179.894 202.064 181.966 201.613 182.707 201.074C183.367 200.608 184.059 199.846 184.054 199.039C184.06 198.847 184.022 198.655 183.942 198.478C183.862 198.3 183.742 198.14 183.589 198.008C183.437 197.877 183.256 197.777 183.059 197.714C182.861 197.652 182.651 197.63 182.444 197.648C181.209 197.772 180.136 199.589 179.916 200.589C179.916 200.668 179.787 201.811 179.782 202.014C179.782 201.96 179.733 201.901 179.717 201.846C179.411 200.849 179.2 199.828 179.089 198.797C179.019 198.227 178.987 197.678 178.971 197.143C179.363 197.098 181.15 196.881 181.886 196.47C182.621 196.059 183.383 195.386 183.469 194.579C183.498 194.39 183.483 194.198 183.426 194.015C183.369 193.832 183.27 193.663 183.137 193.517C183.004 193.372 182.838 193.254 182.652 193.172C182.466 193.089 182.264 193.044 182.057 193.039C180.812 193.039 179.535 194.732 179.191 195.707C179.191 195.762 179.046 196.316 178.966 196.722C178.966 196.485 178.966 196.227 178.966 196.004C178.966 195.138 179.03 194.346 179.089 193.643C179.121 193.242 179.164 192.881 179.207 192.544C179.567 192.316 181.005 191.381 181.445 190.712C181.886 190.044 182.234 189.118 181.912 188.366C181.843 188.186 181.733 188.022 181.59 187.884C181.447 187.747 181.274 187.638 181.083 187.566C180.892 187.493 180.686 187.459 180.48 187.464C180.273 187.47 180.07 187.516 179.884 187.598C178.783 188.123 178.493 190.173 178.676 191.183C178.676 191.272 179.105 192.608 179.127 192.598C179.078 192.92 179.03 193.267 178.987 193.648C178.912 194.351 178.832 195.133 178.81 196.014C178.773 196.952 178.796 197.891 178.88 198.826C178.967 199.875 179.158 200.914 179.449 201.93C179.447 201.942 179.447 201.953 179.449 201.965C179.25 201.683 178.676 200.905 178.628 200.851C177.898 200.079 176.003 198.975 174.871 199.42C174.683 199.5 174.516 199.616 174.38 199.759C174.244 199.902 174.142 200.071 174.081 200.253C174.019 200.434 174 200.626 174.024 200.816C174.049 201.005 174.116 201.187 174.221 201.351C174.591 201.995 175.606 202.346 176.427 202.455Z" fill="#022C40"/>
<path d="M197.735 197.069C197.735 197.069 198.127 195.732 198.143 195.648C198.293 194.658 197.944 192.588 196.828 192.093C196.64 192.015 196.436 191.975 196.229 191.974C196.023 191.973 195.818 192.013 195.629 192.09C195.441 192.167 195.271 192.28 195.133 192.421C194.995 192.562 194.89 192.729 194.826 192.91C194.525 193.668 194.907 194.603 195.363 195.242C195.883 195.999 197.73 197.069 197.735 197.069Z" fill="#022C40"/>
<path d="M151.239 201.667C151.972 201.845 152.73 201.922 153.488 201.895C153.488 201.895 153.144 200.93 153.117 200.875C152.768 200.197 151.657 199.084 150.756 199.193C150.606 199.215 150.463 199.266 150.336 199.342C150.209 199.419 150.101 199.52 150.02 199.637C149.938 199.755 149.884 199.888 149.862 200.026C149.84 200.164 149.85 200.305 149.891 200.44C150.007 200.722 150.188 200.977 150.42 201.189C150.653 201.401 150.932 201.564 151.239 201.667Z" fill="#022C40"/>
<path d="M151.791 205.931C152.542 205.925 153.287 205.817 154.003 205.609C154.237 206.362 154.526 207.099 154.867 207.817C155.067 208.233 155.277 208.648 155.495 209.064C155.366 208.886 155.248 208.733 155.227 208.713C154.69 208.143 153.31 207.336 152.473 207.668C152.336 207.726 152.214 207.81 152.114 207.914C152.014 208.018 151.939 208.14 151.894 208.273C151.849 208.406 151.835 208.545 151.852 208.683C151.87 208.821 151.919 208.955 151.995 209.074C152.185 209.319 152.431 209.523 152.716 209.671C153.001 209.819 153.317 209.908 153.643 209.931C154.371 209.933 155.096 209.831 155.79 209.629L156.048 210.124C156.461 210.881 156.874 211.609 157.255 212.386C157.39 212.648 157.513 212.916 157.636 213.183C157.524 213.025 157.422 212.896 157.406 212.876C156.869 212.312 155.484 211.505 154.652 211.832C154.514 211.889 154.391 211.973 154.291 212.078C154.191 212.182 154.116 212.305 154.071 212.438C154.025 212.572 154.011 212.712 154.029 212.851C154.047 212.989 154.097 213.123 154.175 213.243C154.365 213.487 154.612 213.69 154.896 213.838C155.181 213.986 155.497 214.075 155.822 214.099C156.532 214.103 157.239 214.005 157.916 213.807C158.034 214.084 158.152 214.356 158.254 214.629C158.318 214.817 158.393 214.99 158.447 215.183C158.501 215.376 158.56 215.554 158.613 215.743C158.71 216.099 158.806 216.47 158.887 216.822C158.946 217.064 159 217.317 159.048 217.535C158.919 217.267 158.651 216.753 158.624 216.713C158.189 216.079 156.949 215.089 156.069 215.297C155.924 215.335 155.788 215.401 155.672 215.49C155.556 215.579 155.462 215.69 155.396 215.815C155.329 215.941 155.292 216.077 155.287 216.217C155.282 216.356 155.309 216.495 155.366 216.624C155.515 216.892 155.726 217.127 155.984 217.312C156.242 217.498 156.54 217.629 156.858 217.698C157.596 217.803 158.347 217.803 159.086 217.698C159.171 218.089 159.252 218.47 159.316 218.827C159.467 219.619 159.585 220.312 159.671 220.936H160.261C160.159 220.312 160.019 219.569 159.842 218.738C159.756 218.342 159.66 217.921 159.553 217.485C159.979 217.328 160.395 217.148 160.798 216.946C161.344 217.38 161.953 217.743 162.606 218.025C162.445 218.391 162.284 218.753 162.129 219.084C161.796 219.782 161.485 220.406 161.206 220.936H161.871C162.113 220.441 162.37 219.891 162.644 219.277C162.81 218.906 162.982 218.505 163.149 218.089C163.878 218.247 164.629 218.301 165.376 218.248C165.7 218.198 166.009 218.084 166.281 217.913C166.552 217.742 166.78 217.518 166.949 217.257C167.016 217.133 167.054 216.996 167.06 216.857C167.066 216.717 167.04 216.578 166.984 216.449C166.927 216.319 166.842 216.202 166.733 216.105C166.625 216.008 166.495 215.934 166.353 215.886C165.489 215.619 164.174 216.52 163.669 217.124C163.642 217.158 163.379 217.574 163.218 217.842C163.288 217.673 163.358 217.51 163.428 217.347C163.562 217.005 163.691 216.654 163.825 216.277C163.884 216.094 163.948 215.911 164.007 215.723C164.066 215.535 164.115 215.337 164.168 215.144C164.286 214.688 164.383 214.223 164.464 213.752C165.138 213.999 165.849 214.149 166.573 214.198C166.9 214.198 167.223 214.132 167.52 214.005C167.817 213.877 168.08 213.691 168.29 213.46C168.378 213.346 168.438 213.216 168.467 213.079C168.496 212.942 168.493 212.801 168.458 212.665C168.424 212.528 168.359 212.401 168.267 212.29C168.175 212.178 168.059 212.086 167.925 212.02C167.12 211.639 165.671 212.346 165.097 212.871C165.059 212.906 164.694 213.327 164.496 213.564C164.544 213.282 164.592 213 164.63 212.708C164.743 211.876 164.829 211.035 164.92 210.193C164.947 209.931 164.973 209.673 165.006 209.421C165.702 209.677 166.437 209.835 167.185 209.891C167.512 209.889 167.835 209.821 168.132 209.693C168.428 209.565 168.691 209.379 168.902 209.148C168.989 209.034 169.048 208.905 169.076 208.768C169.105 208.631 169.102 208.491 169.067 208.355C169.033 208.22 168.968 208.093 168.877 207.982C168.785 207.871 168.67 207.779 168.537 207.713C167.732 207.327 166.283 208.035 165.709 208.564C165.66 208.604 165.134 209.213 165.011 209.371C165.075 208.807 165.145 208.242 165.242 207.688C165.369 206.939 165.548 206.198 165.779 205.47C166.479 205.736 167.219 205.903 167.974 205.965C168.3 205.964 168.623 205.896 168.919 205.768C169.214 205.64 169.476 205.454 169.686 205.223C169.773 205.109 169.834 204.979 169.863 204.842C169.892 204.705 169.89 204.564 169.856 204.428C169.822 204.292 169.757 204.164 169.666 204.053C169.575 203.941 169.459 203.849 169.326 203.782C168.516 203.401 167.067 204.109 166.492 204.638C166.449 204.678 165.88 205.331 165.789 205.455C165.789 205.416 165.789 205.371 165.827 205.327C166.074 204.603 166.392 203.902 166.777 203.232C166.981 202.861 167.201 202.515 167.426 202.183C168.078 202.503 168.778 202.73 169.503 202.856C169.829 202.887 170.157 202.852 170.467 202.755C170.776 202.657 171.059 202.499 171.296 202.292C171.4 202.187 171.478 202.063 171.525 201.928C171.572 201.793 171.587 201.651 171.569 201.51C171.551 201.369 171.501 201.233 171.422 201.112C171.342 200.991 171.235 200.887 171.108 200.807C170.346 200.341 168.822 200.901 168.188 201.366C168.156 201.391 167.834 201.683 167.603 201.901C167.705 201.752 167.813 201.599 167.915 201.46C168.296 200.93 168.677 200.47 169.02 200.059L169.557 199.435C170.284 199.442 171.008 199.347 171.704 199.153C172.009 199.044 172.285 198.875 172.511 198.656C172.737 198.438 172.909 198.177 173.014 197.891C173.05 197.756 173.056 197.615 173.03 197.478C173.004 197.34 172.946 197.21 172.862 197.094C172.777 196.979 172.667 196.881 172.539 196.808C172.411 196.734 172.267 196.687 172.117 196.668C171.21 196.579 170.137 197.722 169.804 198.406C169.804 198.465 169.444 199.44 169.466 199.44C169.294 199.623 169.112 199.817 168.929 200.029C168.58 200.43 168.183 200.886 167.786 201.411C167.357 201.971 166.961 202.553 166.6 203.153C166.212 203.818 165.887 204.512 165.628 205.228V205.252C165.628 205.01 165.628 204.322 165.628 204.262C165.521 203.52 164.845 202.143 163.954 201.99C163.804 201.967 163.651 201.974 163.505 202.01C163.359 202.046 163.222 202.11 163.105 202.198C162.987 202.286 162.891 202.395 162.823 202.52C162.755 202.645 162.716 202.781 162.708 202.921C162.722 203.222 162.806 203.517 162.955 203.785C163.105 204.054 163.315 204.289 163.573 204.475C164.202 204.854 164.89 205.144 165.612 205.336C165.358 206.082 165.159 206.843 165.016 207.614C164.93 208.064 164.855 208.515 164.791 208.975C164.791 208.762 164.791 208.569 164.791 208.544C164.684 207.802 164.007 206.421 163.116 206.272C162.967 206.25 162.813 206.257 162.667 206.293C162.52 206.329 162.383 206.393 162.266 206.482C162.148 206.57 162.052 206.681 161.984 206.806C161.916 206.931 161.878 207.068 161.871 207.208C161.883 207.509 161.966 207.805 162.116 208.074C162.265 208.342 162.477 208.577 162.735 208.762C163.344 209.134 164.01 209.417 164.71 209.604C164.71 209.777 164.662 209.955 164.641 210.129C164.528 210.97 164.426 211.812 164.292 212.634C164.249 212.921 164.19 213.208 164.136 213.49C164.136 213.302 164.136 213.144 164.136 213.119C164.034 212.376 163.358 210.995 162.462 210.842C162.312 210.82 162.159 210.827 162.013 210.864C161.867 210.9 161.732 210.965 161.614 211.053C161.497 211.142 161.402 211.252 161.334 211.376C161.267 211.501 161.228 211.638 161.222 211.777C161.235 212.079 161.319 212.374 161.468 212.642C161.617 212.911 161.828 213.146 162.086 213.332C162.676 213.696 163.325 213.973 164.007 214.153C163.938 214.446 163.873 214.733 163.793 215.01C163.739 215.198 163.696 215.386 163.626 215.569L163.433 216.124C163.293 216.47 163.159 216.827 163.014 217.163C162.918 217.396 162.821 217.614 162.725 217.837C162.773 217.55 162.853 216.985 162.859 216.936C162.854 216.28 162.67 215.636 162.322 215.064C162.333 214.99 162.333 214.916 162.322 214.842C162.303 214.703 162.254 214.57 162.175 214.451C162.097 214.332 161.993 214.229 161.869 214.149C161.744 214.07 161.604 214.016 161.455 213.99C161.307 213.964 161.154 213.968 161.007 214C160.132 214.218 159.574 215.639 159.531 216.386C159.531 216.431 159.558 216.911 159.585 217.218C159.542 217.04 159.499 216.866 159.451 216.688C159.359 216.332 159.257 215.975 159.145 215.589C159.086 215.411 159.027 215.223 158.962 215.035C158.898 214.847 158.823 214.658 158.753 214.47C158.581 214.03 158.377 213.594 158.168 213.158C158.879 213.023 159.563 212.788 160.197 212.46C160.467 212.292 160.695 212.073 160.865 211.817C161.036 211.561 161.144 211.274 161.184 210.975C161.188 210.836 161.161 210.697 161.103 210.568C161.045 210.439 160.958 210.323 160.848 210.227C160.738 210.131 160.608 210.058 160.465 210.012C160.322 209.966 160.17 209.948 160.019 209.96C159.118 210.049 158.329 211.376 158.168 212.109C158.168 212.158 158.103 212.693 158.082 212.99C157.953 212.733 157.824 212.47 157.685 212.208C157.282 211.46 156.847 210.723 156.418 209.965L156.026 209.277C156.76 209.134 157.467 208.893 158.125 208.559C158.396 208.393 158.625 208.173 158.796 207.917C158.966 207.661 159.074 207.373 159.112 207.074C159.117 206.935 159.089 206.797 159.032 206.668C158.974 206.54 158.888 206.424 158.778 206.328C158.669 206.232 158.539 206.159 158.397 206.113C158.255 206.066 158.103 206.048 157.953 206.059C157.046 206.148 156.262 207.475 156.101 208.208C156.101 208.267 156.01 209.039 156.005 209.238C155.72 208.742 155.441 208.247 155.189 207.718C154.841 207.032 154.543 206.326 154.298 205.604C155.038 205.462 155.751 205.218 156.413 204.881C156.685 204.715 156.914 204.496 157.085 204.239C157.256 203.983 157.363 203.695 157.4 203.396C157.405 203.256 157.378 203.117 157.321 202.987C157.263 202.858 157.177 202.741 157.066 202.644C156.956 202.548 156.825 202.474 156.682 202.428C156.539 202.382 156.387 202.364 156.236 202.376C155.334 202.47 154.55 203.797 154.384 204.53C154.384 204.589 154.293 205.421 154.287 205.574C154.274 205.53 154.257 205.487 154.239 205.445C154.015 204.715 153.863 203.968 153.783 203.213C153.729 202.797 153.708 202.396 153.691 202.01C154.43 201.946 155.154 201.779 155.838 201.515C156.129 201.376 156.383 201.181 156.583 200.942C156.784 200.703 156.925 200.428 156.998 200.133C157.019 199.995 157.008 199.854 156.966 199.72C156.924 199.586 156.852 199.461 156.754 199.355C156.656 199.248 156.535 199.162 156.399 199.101C156.262 199.041 156.113 199.008 155.962 199.005C155.055 199.005 154.115 200.242 153.869 200.955C153.869 200.995 153.761 201.401 153.702 201.703C153.702 201.524 153.702 201.341 153.702 201.173C153.702 200.539 153.745 199.96 153.788 199.445C153.815 199.153 153.847 198.886 153.879 198.643C154.465 198.271 154.988 197.82 155.43 197.307C155.619 197.06 155.747 196.779 155.805 196.482C155.863 196.185 155.851 195.881 155.769 195.589C155.719 195.457 155.639 195.336 155.535 195.235C155.431 195.134 155.305 195.054 155.165 195C155.025 194.947 154.875 194.922 154.723 194.926C154.572 194.93 154.423 194.964 154.287 195.024C153.482 195.411 153.267 196.911 153.402 197.648C153.402 197.713 153.718 198.693 153.734 198.683C153.702 198.92 153.665 199.178 153.632 199.455C153.579 199.95 153.52 200.549 153.504 201.188C153.48 201.873 153.498 202.559 153.557 203.242C153.623 204.009 153.761 204.77 153.971 205.515C153.971 205.515 153.971 205.515 153.971 205.539C153.826 205.332 153.407 204.762 153.369 204.723C152.833 204.158 151.448 203.351 150.611 203.678C150.473 203.736 150.35 203.819 150.25 203.924C150.149 204.029 150.074 204.151 150.029 204.285C149.984 204.418 149.97 204.558 149.988 204.697C150.006 204.836 150.055 204.969 150.133 205.089C150.327 205.332 150.575 205.533 150.862 205.679C151.148 205.824 151.465 205.91 151.791 205.931Z" fill="#022C40"/>
<path d="M167.383 201.989C167.383 201.989 167.673 200.999 167.684 200.945C167.797 200.207 167.539 198.712 166.718 198.346C166.58 198.289 166.431 198.26 166.28 198.26C166.13 198.26 165.981 198.289 165.843 198.345C165.705 198.402 165.582 198.484 165.481 198.588C165.38 198.691 165.304 198.813 165.258 198.945C165.184 199.238 165.181 199.543 165.247 199.838C165.314 200.133 165.45 200.411 165.644 200.653C166.15 201.174 166.736 201.624 167.383 201.989Z" fill="#022C40"/>
<path d="M196.978 28.8575C196.531 30.4864 196.645 32.2033 197.304 33.7699C197.963 35.3365 199.134 36.6752 200.655 37.6002C202.176 38.5252 203.971 38.9907 205.791 38.9322C207.612 38.8737 209.368 38.2939 210.815 37.2735L214.213 40.2735C214.125 40.6004 214.132 40.9426 214.231 41.2665C214.331 41.5903 214.521 41.8845 214.781 42.1201L222.161 48.7886C222.359 48.9657 222.593 49.1051 222.85 49.1989C223.106 49.2927 223.38 49.3389 223.656 49.335C223.932 49.3311 224.204 49.2771 224.458 49.1761C224.711 49.0752 224.94 48.9292 225.132 48.7465C225.324 48.5638 225.475 48.348 225.577 48.1114C225.679 47.8749 225.729 47.6221 225.725 47.3677C225.72 47.1132 225.662 46.862 225.552 46.6285C225.443 46.3949 225.285 46.1835 225.087 46.0063L217.69 39.3329C217.424 39.0964 217.095 38.9289 216.736 38.8472C216.377 38.7655 216.001 38.7725 215.646 38.8676L212.323 35.917C213.125 35.0107 213.7 33.9526 214.009 32.8179C214.291 31.7865 214.349 30.714 214.182 29.6616C214.015 28.6091 213.624 27.5974 213.033 26.6842C212.441 25.771 211.661 24.9742 210.735 24.3392C209.81 23.7043 208.759 23.2436 207.64 22.9836C206.522 22.7235 205.359 22.6692 204.218 22.8236C203.077 22.9781 201.98 23.3383 200.99 23.8838C200 24.4292 199.136 25.1492 198.448 26.0026C197.76 26.8559 197.26 27.826 196.978 28.8575V28.8575ZM212.484 32.4516C212.136 33.7269 211.386 34.8785 210.329 35.7605C209.271 36.6425 207.954 37.2155 206.543 37.4068C205.132 37.5982 203.692 37.3994 202.404 36.8356C201.116 36.2718 200.038 35.3683 199.306 34.2393C198.575 33.1104 198.223 31.8068 198.295 30.4934C198.367 29.1799 198.86 27.9157 199.711 26.8605C200.562 25.8054 201.733 25.0067 203.076 24.5655C204.419 24.1244 205.874 24.0606 207.257 24.3821C209.109 24.8143 210.7 25.9067 211.68 27.4196C212.66 28.9325 212.949 30.7422 212.484 32.4516Z" stroke="#022C40" stroke-miterlimit="10"/>
<path d="M34.6675 126.963C33.3362 127.257 32.1369 127.925 31.2358 128.876C30.3348 129.826 29.7765 131.011 29.6385 132.268C29.5005 133.524 29.7895 134.788 30.4656 135.886C31.1416 136.984 32.1712 137.86 33.4116 138.394L32.424 141.528C32.1571 141.587 31.9117 141.71 31.7121 141.883C31.5125 142.057 31.3656 142.276 31.2861 142.518L29.005 149.385C28.8927 149.757 28.9419 150.155 29.1423 150.494C29.3427 150.833 29.6785 151.087 30.0785 151.202C30.4819 151.305 30.9133 151.26 31.2811 151.075C31.6488 150.89 31.924 150.58 32.0483 150.211L34.3132 143.345C34.3938 143.099 34.4015 142.837 34.3354 142.587C34.2693 142.338 34.132 142.109 33.9375 141.924L34.9144 138.845C35.8837 139.029 36.8855 139.01 37.8457 138.789C38.8059 138.568 39.6999 138.15 40.4616 137.567C41.2232 136.984 41.8331 136.251 42.2459 135.421C42.6588 134.592 42.8642 133.687 42.8469 132.774C42.8296 131.862 42.59 130.964 42.1459 130.148C41.7018 129.333 41.0645 128.619 40.2812 128.061C39.4979 127.503 38.5886 127.115 37.6206 126.925C36.6526 126.735 35.6507 126.748 34.689 126.963H34.6675ZM37.4477 137.756C36.4046 137.985 35.3113 137.923 34.3062 137.579C33.3011 137.234 32.4292 136.623 31.8009 135.821C31.1726 135.02 30.8161 134.065 30.7764 133.076C30.7367 132.088 31.0157 131.111 31.578 130.269C32.1403 129.427 32.9608 128.758 33.9355 128.346C34.9103 127.934 35.9956 127.798 37.0542 127.955C38.1128 128.112 39.0972 128.555 39.8828 129.228C40.6684 129.901 41.22 130.774 41.4678 131.736C41.7991 133.023 41.5645 134.379 40.8152 135.507C40.066 136.635 38.8629 137.443 37.4692 137.756H37.4477Z" stroke="#022C40" stroke-miterlimit="10"/>
<path d="M213.611 81.3391H198.046C197.036 81.3391 196.066 81.7094 195.352 82.3686C194.637 83.0278 194.236 83.9218 194.236 84.854V92.7997C194.236 93.7319 194.637 94.626 195.352 95.2852C196.066 95.9443 197.036 96.3147 198.046 96.3147H208.888L208.352 101.265L213.397 96.3147H213.611C214.112 96.3147 214.607 96.2237 215.07 96.0471C215.532 95.8705 215.952 95.6116 216.306 95.2852C216.66 94.9588 216.941 94.5713 217.132 94.1448C217.324 93.7184 217.422 93.2613 217.422 92.7997V84.854C217.422 84.3924 217.324 83.9354 217.132 83.5089C216.941 83.0825 216.66 82.695 216.306 82.3686C215.952 82.0422 215.532 81.7833 215.07 81.6067C214.607 81.43 214.112 81.3391 213.611 81.3391V81.3391Z" stroke="#022C40" stroke-miterlimit="10"/>
<path d="M35.7947 100.151H46.3413C46.6803 100.151 47.016 100.213 47.3293 100.332C47.6425 100.452 47.9271 100.627 48.1668 100.849C48.4065 101.07 48.5967 101.332 48.7264 101.621C48.8562 101.91 48.923 102.22 48.923 102.532V107.914C48.923 108.226 48.8562 108.536 48.7264 108.825C48.5967 109.114 48.4065 109.376 48.1668 109.597C47.9271 109.819 47.6425 109.994 47.3293 110.114C47.016 110.233 46.6803 110.295 46.3413 110.295H38.9989L39.38 113.641L35.9396 110.295H35.7947C35.11 110.295 34.4533 110.044 33.9692 109.597C33.485 109.151 33.213 108.545 33.213 107.914V102.532C33.213 101.901 33.485 101.295 33.9692 100.849C34.4533 100.402 35.11 100.151 35.7947 100.151Z" stroke="#022C40" stroke-miterlimit="10"/>
<path d="M113.754 9.43628H124.3C124.985 9.43628 125.642 9.68716 126.126 10.1337C126.61 10.5803 126.882 11.186 126.882 11.8175V17.1988C126.882 17.8304 126.61 18.436 126.126 18.8826C125.642 19.3292 124.985 19.58 124.3 19.58H116.958L117.339 22.9266L113.899 19.58H113.754C113.069 19.58 112.413 19.3292 111.928 18.8826C111.444 18.436 111.172 17.8304 111.172 17.1988V11.8175C111.172 11.186 111.444 10.5803 111.928 10.1337C112.413 9.68716 113.069 9.43628 113.754 9.43628V9.43628Z" stroke="#022C40" stroke-miterlimit="10"/>
<path d="M99.4232 20.3672L125.229 86.8834L180.646 21.4167" stroke="#022C40" stroke-miterlimit="10"/>
<path d="M202.657 63.7788L125.229 86.8832L177.227 140.795" stroke="#022C40" stroke-miterlimit="10"/>
<path d="M65.6418 138.696L125.229 86.8835L44.0065 74.2793" stroke="#022C40" stroke-miterlimit="10"/>
<path d="M209.283 67.3438C211.293 63.8023 209.809 59.4286 205.97 57.5748C202.13 55.721 197.389 57.0891 195.379 60.6306C193.369 64.1721 194.852 68.5458 198.692 70.3996C202.531 72.2533 207.273 70.8852 209.283 67.3438Z" fill="#022C40" stroke="#022C40" stroke-width="0.5" stroke-miterlimit="10"/>
<path d="M204.927 63.4868H199.812C199.332 63.4868 198.872 63.6626 198.533 63.9755C198.194 64.2883 198.003 64.7127 198.003 65.1552V69.1156C199.253 70.0153 200.796 70.4986 202.382 70.4869C203.967 70.4752 205.502 69.9693 206.736 69.0513V65.1552C206.736 64.7127 206.545 64.2883 206.206 63.9755C205.867 63.6626 205.407 63.4868 204.927 63.4868Z" fill="#275F7A" stroke="#022C40" stroke-miterlimit="10"/>
<path d="M202.281 62.7589C202.796 62.7589 203.299 62.618 203.727 62.3542C204.155 62.0904 204.489 61.7154 204.686 61.2767C204.883 60.8379 204.935 60.3552 204.834 59.8894C204.734 59.4237 204.486 58.9958 204.122 58.66C203.758 58.3242 203.294 58.0956 202.789 58.0029C202.284 57.9103 201.761 57.9578 201.285 58.1396C200.809 58.3213 200.403 58.629 200.117 59.0239C199.831 59.4187 199.678 59.8829 199.678 60.3578C199.678 60.9946 199.952 61.6053 200.44 62.0556C200.929 62.5059 201.591 62.7589 202.281 62.7589Z" fill="#275F7A" stroke="#022C40" stroke-miterlimit="10"/>
<path d="M185.262 141.018C186.935 137.331 185.051 133.091 181.053 131.547C177.055 130.004 172.458 131.742 170.785 135.43C169.112 139.117 170.996 143.357 174.994 144.901C178.992 146.444 183.589 144.706 185.262 141.018Z" fill="#022C40" stroke="#022C40" stroke-width="0.5" stroke-miterlimit="10"/>
<path d="M180.656 137.746H175.541C175.304 137.745 175.069 137.788 174.85 137.871C174.63 137.954 174.431 138.077 174.263 138.231C174.095 138.386 173.961 138.569 173.871 138.772C173.78 138.974 173.733 139.19 173.733 139.409V143.37C174.983 144.269 176.526 144.753 178.111 144.741C179.697 144.729 181.231 144.223 182.465 143.305V139.409C182.465 139.19 182.418 138.974 182.327 138.772C182.236 138.569 182.103 138.386 181.935 138.231C181.767 138.077 181.568 137.954 181.348 137.871C181.129 137.788 180.894 137.745 180.656 137.746Z" fill="#275F7A" stroke="#022C40" stroke-miterlimit="10"/>
<path d="M177.973 137.014C178.488 137.014 178.991 136.873 179.419 136.609C179.847 136.345 180.181 135.97 180.378 135.531C180.575 135.093 180.626 134.61 180.526 134.144C180.425 133.678 180.178 133.25 179.813 132.915C179.449 132.579 178.986 132.35 178.481 132.258C177.976 132.165 177.452 132.212 176.977 132.394C176.501 132.576 176.094 132.884 175.808 133.279C175.522 133.673 175.37 134.138 175.37 134.612C175.37 134.928 175.437 135.24 175.568 135.531C175.699 135.823 175.89 136.087 176.132 136.31C176.374 136.533 176.661 136.71 176.977 136.831C177.292 136.951 177.631 137.014 177.973 137.014Z" fill="#275F7A" stroke="#022C40" stroke-miterlimit="10"/>
<path d="M99.0851 25.0406C102.162 25.0406 104.656 22.7399 104.656 19.9019C104.656 17.0639 102.162 14.7632 99.0851 14.7632C96.0083 14.7632 93.5139 17.0639 93.5139 19.9019C93.5139 22.7399 96.0083 25.0406 99.0851 25.0406Z" fill="#022C40" stroke="#022C40" stroke-width="0.5" stroke-miterlimit="10"/>
<path d="M100.931 19.5801H97.3032C96.963 19.5801 96.6367 19.7047 96.3962 19.9266C96.1556 20.1485 96.0204 20.4495 96.0204 20.7633V23.5406C96.9079 24.1767 98.0019 24.5183 99.1257 24.5102C100.25 24.5021 101.338 24.1448 102.214 23.496V20.7385C102.207 20.429 102.069 20.1344 101.829 19.9178C101.589 19.7013 101.267 19.58 100.931 19.5801Z" fill="#275F7A" stroke="#022C40" stroke-miterlimit="10"/>
<path d="M99.0744 19.0345C99.4395 19.0345 99.7965 18.9347 100.1 18.7476C100.404 18.5605 100.64 18.2946 100.78 17.9835C100.92 17.6724 100.956 17.3301 100.885 16.9998C100.814 16.6695 100.638 16.3662 100.38 16.1281C100.122 15.89 99.7927 15.7278 99.4346 15.6621C99.0764 15.5964 98.7052 15.6301 98.3678 15.759C98.0304 15.8879 97.7421 16.1061 97.5392 16.3861C97.3363 16.666 97.228 16.9952 97.228 17.332C97.228 17.7835 97.4226 18.2166 97.7688 18.5358C98.1151 18.8551 98.5847 19.0345 99.0744 19.0345Z" fill="#275F7A" stroke="#022C40" stroke-miterlimit="10"/>
<path d="M69.9287 139.835C71.1136 137.216 69.7722 134.207 66.9326 133.114C64.0931 132.021 60.8306 133.258 59.6457 135.877C58.4607 138.496 59.8021 141.506 62.6417 142.599C65.4813 143.691 68.7438 142.454 69.9287 139.835Z" fill="#022C40" stroke="#022C40" stroke-width="0.5" stroke-miterlimit="10"/>
<path d="M66.6348 137.509H63.0065C62.8372 137.508 62.6693 137.538 62.5127 137.598C62.3561 137.657 62.2139 137.745 62.0941 137.855C61.9743 137.966 61.8795 138.097 61.815 138.241C61.7505 138.386 61.7177 138.54 61.7184 138.697V141.504C62.6051 142.144 63.7006 142.488 64.8264 142.479C65.9522 142.471 67.0418 142.112 67.9176 141.459V138.697C67.9183 138.541 67.8856 138.387 67.8215 138.242C67.7573 138.098 67.6629 137.967 67.5437 137.857C67.4246 137.746 67.2829 137.659 67.1269 137.599C66.9709 137.539 66.8037 137.509 66.6348 137.509Z" fill="#275F7A" stroke="#022C40" stroke-miterlimit="10"/>
<path d="M64.7562 136.988C65.1214 136.988 65.4784 136.888 65.782 136.701C66.0856 136.514 66.3223 136.248 66.462 135.937C66.6018 135.626 66.6383 135.283 66.5671 134.953C66.4959 134.623 66.32 134.319 66.0618 134.081C65.8036 133.843 65.4746 133.681 65.1164 133.615C64.7583 133.55 64.3871 133.583 64.0497 133.712C63.7123 133.841 63.424 134.059 63.2211 134.339C63.0182 134.619 62.9099 134.948 62.9099 135.285C62.9099 135.737 63.1044 136.17 63.4507 136.489C63.7969 136.808 64.2666 136.988 64.7562 136.988Z" fill="#275F7A" stroke="#022C40" stroke-miterlimit="10"/>
<path d="M185.729 21.3963C186.85 18.7532 185.435 15.7726 182.57 14.7389C179.704 13.7052 176.473 15.0099 175.352 17.653C174.231 20.2961 175.646 23.2767 178.511 24.3104C181.377 25.3441 184.608 24.0394 185.729 21.3963Z" fill="#022C40" stroke="#022C40" stroke-width="0.5" stroke-miterlimit="10"/>
<path d="M182.401 19.1792H178.767C178.599 19.1792 178.432 19.2098 178.276 19.2693C178.121 19.3287 177.979 19.4159 177.86 19.5257C177.741 19.6356 177.647 19.7661 177.582 19.9096C177.518 20.0532 177.484 20.207 177.484 20.3624V23.1743C178.373 23.8109 179.468 24.1527 180.592 24.1446C181.717 24.1365 182.806 23.779 183.684 23.1298V20.3624C183.684 20.207 183.65 20.0532 183.586 19.9096C183.521 19.7661 183.427 19.6356 183.308 19.5257C183.189 19.4159 183.047 19.3287 182.892 19.2693C182.736 19.2098 182.569 19.1792 182.401 19.1792Z" fill="#275F7A" stroke="#022C40" stroke-miterlimit="10"/>
<path d="M180.522 18.6583C180.887 18.6583 181.244 18.5584 181.548 18.3714C181.852 18.1843 182.088 17.9184 182.228 17.6073C182.368 17.2962 182.404 16.9538 182.333 16.6236C182.262 16.2933 182.086 15.9899 181.828 15.7518C181.57 15.5137 181.241 15.3516 180.882 15.2859C180.524 15.2202 180.153 15.2539 179.816 15.3828C179.478 15.5116 179.19 15.7299 178.987 16.0098C178.784 16.2898 178.676 16.619 178.676 16.9557C178.676 17.4073 178.87 17.8403 179.217 18.1596C179.563 18.4789 180.033 18.6583 180.522 18.6583Z" fill="#275F7A" stroke="#022C40" stroke-miterlimit="10"/>
<path d="M52.6915 76.6984C54.8755 71.9248 52.4506 66.4221 47.2753 64.4076C42.1 62.3932 36.1341 64.6298 33.9501 69.4034C31.7661 74.1769 34.1911 79.6797 39.3664 81.6941C44.5416 83.7086 50.5075 81.4719 52.6915 76.6984Z" fill="#022C40" stroke="#022C40" stroke-width="0.5" stroke-miterlimit="10"/>
<path d="M46.6954 72.4177H40.0669C39.4458 72.4177 38.85 72.645 38.4103 73.0496C37.9706 73.4543 37.7228 74.0033 37.7214 74.5762V79.705C39.3419 80.8679 41.3403 81.4926 43.3934 81.4783C45.4465 81.4639 47.4344 80.8112 49.0355 79.6258V74.5762C49.0355 74.0037 48.789 73.4547 48.3501 73.0499C47.9113 72.6451 47.3161 72.4177 46.6954 72.4177Z" fill="#275F7A" stroke="#022C40" stroke-miterlimit="10"/>
<path d="M43.2551 71.4672C43.9217 71.4672 44.5734 71.2849 45.1277 70.9433C45.682 70.6016 46.114 70.1161 46.3691 69.548C46.6243 68.9799 46.691 68.3548 46.561 67.7517C46.4309 67.1486 46.1099 66.5947 45.6385 66.1599C45.1671 65.7251 44.5665 65.429 43.9127 65.309C43.2588 65.189 42.5811 65.2506 41.9652 65.4859C41.3493 65.7212 40.8229 66.1197 40.4525 66.631C40.0821 67.1423 39.8845 67.7433 39.8845 68.3582C39.8845 69.1828 40.2396 69.9736 40.8717 70.5566C41.5038 71.1397 42.3611 71.4672 43.2551 71.4672Z" fill="#275F7A" stroke="#022C40" stroke-miterlimit="10"/>
<path d="M76.4085 35.7387C76.4085 35.709 76.4085 35.6793 76.4085 35.6496C76.2564 34.3649 75.7077 33.1474 74.8277 32.1418C73.9476 31.1361 72.7732 30.3845 71.4438 29.9762C70.0947 29.5539 68.638 29.5211 67.2681 29.8822C67.5713 28.9321 67.6752 27.9374 67.574 26.9514C67.3747 24.9797 66.37 23.1517 64.7636 21.8379C63.1572 20.5242 61.0693 19.823 58.9232 19.8765C56.7771 19.93 54.7333 20.7342 53.2062 22.1261C51.6791 23.518 50.783 25.3935 50.6994 27.3722C50.576 27.3722 50.4525 27.3722 50.3291 27.3722C48.0843 27.3722 45.9314 28.1947 44.344 29.6589C42.7567 31.123 41.865 33.1087 41.865 35.1793C41.8629 35.8785 41.964 36.5746 42.1655 37.2487C42.4496 38.1538 43.0462 38.9488 43.8648 39.5126C44.6834 40.0764 45.6792 40.3784 46.7008 40.3725H71.7015C72.3476 40.3753 72.9875 40.2551 73.581 40.0193C74.1745 39.7836 74.7089 39.4375 75.1507 39.0025C75.5925 38.5676 75.9323 38.0532 76.1487 37.4916C76.3651 36.93 76.4536 36.3333 76.4085 35.7387V35.7387Z" stroke="#022C40" stroke-miterlimit="10"/>
<path d="M204.809 114.983C204.807 114.967 204.807 114.95 204.809 114.934C204.728 114.239 204.431 113.58 203.956 113.036C203.48 112.492 202.845 112.085 202.126 111.864C201.397 111.635 200.61 111.618 199.871 111.815C200.038 111.302 200.096 110.764 200.043 110.231C199.964 109.145 199.432 108.13 198.56 107.398C197.687 106.666 196.541 106.273 195.362 106.303C194.183 106.332 193.062 106.781 192.234 107.556C191.406 108.33 190.934 109.371 190.919 110.458H190.72C189.508 110.46 188.346 110.905 187.49 111.696C186.634 112.486 186.153 113.559 186.153 114.676C186.154 115.052 186.208 115.427 186.314 115.79C186.466 116.28 186.787 116.71 187.229 117.016C187.671 117.322 188.209 117.486 188.761 117.483H202.254C202.604 117.487 202.951 117.423 203.273 117.297C203.595 117.171 203.885 116.984 204.125 116.75C204.366 116.515 204.55 116.236 204.668 115.932C204.786 115.628 204.834 115.305 204.809 114.983V114.983Z" stroke="#022C40" stroke-miterlimit="10"/>
<path d="M86.1394 153.132C86.1394 153.132 86.1394 153.102 86.1394 153.088C86.0585 152.392 85.7624 151.733 85.2866 151.189C84.8107 150.645 84.1752 150.238 83.4557 150.018C82.7275 149.789 81.9407 149.772 81.2015 149.969C81.366 149.455 81.4224 148.918 81.3679 148.385C81.253 147.361 80.7402 146.41 79.9242 145.709C79.1081 145.007 78.0442 144.602 76.9292 144.568C75.7308 144.541 74.5692 144.95 73.6954 145.707C72.8216 146.464 72.3059 147.507 72.2597 148.612H72.0611C71.4604 148.612 70.8654 148.72 70.3103 148.932C69.7552 149.144 69.2508 149.454 68.826 149.846C68.4012 150.238 68.0644 150.703 67.8348 151.215C67.6053 151.727 67.4875 152.276 67.4882 152.83C67.4885 153.207 67.5445 153.581 67.6546 153.944C67.8051 154.435 68.1261 154.866 68.5683 155.172C69.0105 155.478 69.5493 155.641 70.102 155.637H83.5899C83.9399 155.64 84.2867 155.576 84.6085 155.449C84.9303 155.322 85.2201 155.135 85.4596 154.9C85.6992 154.665 85.8832 154.386 86.0002 154.082C86.1172 153.777 86.1646 153.454 86.1394 153.132V153.132Z" stroke="#022C40" stroke-miterlimit="10"/>
<path d="M162.945 24.1792C162.947 24.1645 162.947 24.1494 162.945 24.1347C162.865 23.4391 162.569 22.7795 162.093 22.2351C161.617 21.6906 160.981 21.2844 160.261 21.0653C159.533 20.8347 158.746 20.8157 158.007 21.0109C158.174 20.4996 158.23 19.963 158.173 19.4316C158.094 18.3461 157.562 17.3309 156.69 16.5987C155.817 15.8665 154.672 15.4741 153.492 15.5035C152.313 15.5329 151.192 15.982 150.364 16.7566C149.536 17.5313 149.064 18.5714 149.049 19.6594H148.85C148.147 19.6609 147.454 19.8117 146.825 20.1001C146.195 20.3884 145.646 20.8066 145.22 21.3221C144.794 21.8377 144.503 22.4368 144.368 23.0731C144.233 23.7093 144.259 24.3656 144.444 24.9911C144.596 25.4808 144.917 25.9113 145.359 26.2169C145.801 26.5226 146.339 26.6867 146.891 26.6842H160.384C160.736 26.6893 161.084 26.6268 161.407 26.5007C161.731 26.3747 162.022 26.1879 162.263 25.9522C162.504 25.7166 162.689 25.4372 162.806 25.1319C162.924 24.8267 162.971 24.5022 162.945 24.1792V24.1792Z" stroke="#022C40" stroke-miterlimit="10"/>
<path d="M166.108 123.572C188.886 102.562 188.886 68.499 166.108 47.4895C143.33 26.4801 106.4 26.48 83.6227 47.4895C60.8451 68.499 60.8451 102.562 83.6227 123.572C106.4 144.581 143.33 144.581 166.108 123.572Z" fill="white" stroke="#022C40" stroke-miterlimit="10"/>
<path d="M122.765 60.6255L128.304 62.9225L129.823 65.2196L132.319 66.1157L132.593 68.5414L131.627 69.9425L129.689 70.3286L125.535 68.7939V68.2989L127.886 67.4028L127.059 64.7245L123.302 63.4473L121.644 61.4027L122.765 60.6255ZM157.653 119.612L153.225 117.953L147.825 116.166H143.531L139.517 115.399L135.083 116.29L132.593 116.419H131.074L128.165 117.953L125.374 118.973L121.617 116.805L122.583 113.226L120.232 112.334H117.463L117.049 111.186L117.323 108.884L116.357 107.612L114.419 107.864L113.883 109.141L111.532 109.27L109.455 106.973L108.623 103.908L110.7 100.329L114.715 100.587L115.826 101.483H117.484L119.561 100.329L121.359 100.824L123.85 104.785L124.821 104.656L124.542 101.72L123.764 100.205L124.038 97.7797L129.158 95.7351L129.85 91.0122L132.067 89.3488L133.865 86.4131L135.25 86.1606L138.432 84.2447L138.572 83.2249L136.361 83.3487L135.942 82.3289H134.423L132.067 82.8239L133.173 81.1655L138.003 79.8882L139.109 78.7397L141.046 81.5467L142.297 82.6952L144.234 82.2001L143.403 80.5417L140.493 78.6258L137.171 75.1604L133.715 72.9871L130.392 72.492L128.728 70.9623L126.512 70.4672L126.238 70.9623L125.959 74.6653L126.496 75.9376L125.251 80.0268L122.492 77.9971L122.905 76.2099L120.007 74.9228L118.751 73.5415L119.443 70.3534L123.458 67.6701L123.737 64.6057L122.213 64.7344L121.241 63.5859L120.828 61.67L119.856 61.5413L119.32 63.5859L117.801 63.8384L117.108 59.3828L115.981 58.6898L114.044 57.9224L111.832 58.9422L114.597 61.368L115.133 63.5414L110.147 60.0759L106.685 56.6105L106.411 53.1451L102.832 52.1946L100.062 53.858C99.3947 54.2307 98.7067 54.5711 98.001 54.8778C96.9083 55.1181 95.7978 55.2835 94.6787 55.3729L94.142 57.5462L90.9592 57.6699L91.2383 59.0759L96.3586 59.8433L98.9886 62.5215V66.9771L97.4643 70.9375L97.7434 75.1505L93.8682 81.4031L93.0363 90.7251L94.2439 96.1163L96.042 100.205L98.1191 100.458L97.4267 98.4183L96.3211 96.8836L95.6287 94.0766L96.8739 93.8192L98.8115 98.4183L100.196 102.503V105.819L102.826 108.76L107.533 111.948L114.731 113.74L116.947 115.651L118.606 117.696L121.102 119.102L124.145 119.864L127.188 119.74C127.188 119.74 127.054 121.018 127.054 121.656C127.054 122.295 125.116 124.463 125.116 124.463L123.597 127.008L124.703 129.815L127.752 130.963L132.045 135.053L133.983 135.815V137.731L134.225 138.622C144.991 137.017 155.05 132.649 163.251 126.018L163.326 125.092L167.083 118.835L165.285 117.686L157.653 119.612ZM172.069 69.1801L170.545 66.7493L168.607 63.9423L168.07 60.1106L170.561 60.4967L170.7 59.2195L168.897 59.0908L170.421 58.4521L172.085 57.561V56.2838L170.421 54.2392L170.067 51.4916C162.023 42.4112 150.983 36.0029 138.628 33.2416C126.272 30.4803 113.277 31.5171 101.619 36.1943L104.807 38.2785L102.832 40.5755L100.202 41.0706L99.9279 44.536L98.8168 44.9172L97.4321 46.3133L97.5716 48.6104L99.9279 48.8678L98.9564 51.0361H101.313L105.322 46.3133L105.741 44.2687L109.616 44.0162L110.582 42.4815L114.597 42.1003L115.015 39.927L117.919 39.8033C117.919 39.8033 119.996 38.7785 120.415 38.7785C121.214 38.9387 122 39.1521 122.765 39.4171L124.843 40.9518H127.752L130.242 39.5458L133.425 39.8033C133.883 40.0779 134.406 40.2476 134.949 40.2983C135.641 40.2983 137.719 39.4023 137.719 39.4023L141.728 41.6993L143.392 42.8528V44.7637L145.469 45.0212L146.161 43.8726L147.959 44.64L147.82 45.6598L143.671 46.6796L146.022 49.4916L151.003 52.0461L153.08 54.5956L156.128 54.8531L156.821 53.5758L157.926 53.3184L154.325 50.7688L152.114 50.5114L153.912 50.0163L152.253 47.843L154.604 47.7192L157.647 49.249L158.34 52.3134L159.864 53.9718L161.109 57.6749L164.158 59.7195V63.9324L167.34 65.8483L167.201 67.2543L166.788 68.9127L167.614 71.2098L167.893 72.3584L170.244 72.7445L171.355 70.5712L172.069 69.1801ZM173.867 56.3085V57.0412L173.142 59.0908L173.556 60.8779L175.08 61.373V63.7988L173.421 63.1602L173.014 70.0761L171.355 72.8831L172.461 76.4624L174.259 77.9921V84.8883L176.062 90.2498L178 94.334L181.183 95.1014L182.288 92.5469L182.739 92.2201C183.039 90.0014 183.189 87.7677 183.19 85.5319C183.207 75.1635 179.961 65.0134 173.846 56.3135L173.867 56.3085ZM141.889 55.5115L132.765 51.8084L128.75 51.9372L127.784 54.3629L126.12 52.6995L123.077 53.3382L122.798 57.5561L125.288 59.2145L127.091 56.7887L129.131 58.6898L133.425 62.1552L134.257 65.8582L137.853 70.0712L143.671 69.1801L143.531 67.2642L142.286 65.0909L142.012 59.9868L143.397 57.8135L141.889 55.5115ZM149.366 58.3185L147.288 57.8234L145.49 59.2294L146.456 62.9324H148.26L149.366 58.3185ZM162.247 60.7443L157.54 58.4472L156.568 56.9175L155.463 57.2986L156.429 59.8532L157.261 63.1701L159.338 63.9374L159.751 63.4423L158.506 61.5265L162.107 62.8037L162.247 60.7443ZM121.826 106.839L121.289 107.334L125.444 108.483L127.108 110.27L129.738 110.527L130.704 109.121L127.521 108.626L121.826 106.839ZM134.171 109.265L131.262 110.032L131.68 111.052H135.277L135.969 110.032L134.724 110.156L134.171 109.265Z" fill="#275F7A" stroke="#022C40" stroke-miterlimit="10"/>
<path d="M166.165 152.256C166.116 153.648 166.297 155.039 166.702 156.38C167.34 158.261 167.974 160.029 168.612 160.737C169.251 161.445 170.276 160.266 169.38 158.851C168.484 157.435 168.999 155.91 169.509 155.91C170.019 155.91 174.103 158.261 174.742 159.088C175.381 159.915 177.297 162.034 177.297 160.618C177.297 159.202 174.361 156.261 173.851 155.435C173.341 154.608 170.529 151.078 170.529 151.078L166.165 152.256Z" fill="white" stroke="#022C40" stroke-linejoin="round"/>
<path d="M167.974 147.895L170.529 151.078L165.677 153.548L163.379 150.959L167.974 147.895Z" fill="#275F7A" stroke="#022C40" stroke-linejoin="round"/>
<path d="M140.907 213.846C140.907 213.846 138.991 217.733 138.223 218.797C137.456 219.861 136.817 220.327 135.539 220.564C134.262 220.802 132.094 221.035 132.094 221.975C132.109 222.559 132.294 223.129 132.63 223.624C132.63 223.624 138.631 224.802 140.681 224.332C142.732 223.861 144.766 221.267 144.766 221.267L146.043 221.975L149.747 218.678C149.514 217.52 149.077 216.404 148.453 215.376C147.304 213.257 146.666 211.728 146.666 211.728C146.666 211.728 143.843 213.846 140.907 213.846Z" fill="#616161" stroke="#022C40" stroke-linejoin="round"/>
<path d="M148.931 216.352C147.589 217.515 144.487 220.312 143.639 221C142.565 221.876 140.365 223.629 138.679 223.629C137.466 223.629 134.08 223.178 132.239 222.921C132.321 223.166 132.436 223.401 132.582 223.619C132.582 223.619 138.583 224.797 140.633 224.327C142.683 223.857 144.717 221.263 144.717 221.263L145.995 221.97L149.698 218.673C149.557 217.871 149.299 217.09 148.931 216.352Z" stroke="#022C40" stroke-linejoin="round"/>
<path d="M130.951 198.183C130.951 198.183 133.377 202.891 135.781 205.717C138.186 208.544 140.885 214.906 140.885 214.906C140.885 214.906 143.059 215.614 144.589 214.549C145.561 213.819 146.273 212.836 146.634 211.728C146.634 211.728 143.569 203.01 142.42 199.242C141.272 195.475 138.459 187.227 137.182 185.227C136.214 183.754 135.157 182.332 134.015 180.969C134.015 180.969 132.609 188.742 131.97 191.683C131.332 194.623 130.951 198.183 130.951 198.183Z" fill="#022C40" stroke="#022C40" stroke-linejoin="round"/>
<path d="M119.583 144.008L119.712 151.543C119.712 151.543 117.565 165.444 119.33 172.509C121.096 179.573 123.925 187.361 123.925 187.361C123.925 187.361 122.524 200.316 122.009 203.495C121.493 206.673 119.325 212.683 119.325 212.683C119.325 212.683 123.028 214.45 123.667 214.45H124.945C124.945 214.45 128.771 204.911 129.539 203.495C130.306 202.079 132.985 199.376 133.881 193.485C134.777 187.593 135.035 181.465 135.035 181.465C135.035 181.465 141.417 173.925 142.952 171.563C144.487 169.202 146.907 164.375 146.907 164.375C146.907 164.375 149.72 157.662 149.333 151.187C148.947 144.711 146.784 141.414 146.784 141.414C146.784 141.414 134.267 144.122 128.396 144.122C122.524 144.122 119.583 144.008 119.583 144.008Z" fill="#022C40" stroke="#022C40" stroke-linejoin="round"/>
<path d="M122.841 101.71C122.841 101.71 125.32 103.998 124.945 104.795C124.569 105.592 118.139 105.938 116.776 107.423C115.412 108.909 109.594 127.751 109.594 127.751C109.594 127.751 102.66 125.919 102.043 125.463C101.425 125.008 100.679 125.35 100.309 126.721C99.9386 128.092 96.2245 131.176 96.7183 131.973C97.2121 132.77 104.023 135.855 107.367 136.657C109.403 137.14 111.475 137.483 113.566 137.681L113.072 143.508C113.072 143.508 119.384 146.82 131.643 145.335C143.902 143.85 148.99 141.454 148.99 141.454L147.508 129.691C147.508 129.691 155.559 143.622 156.917 146.028C158.275 148.434 160.009 151.969 161.496 152.424C162.982 152.88 168.307 149.682 168.43 148.315C168.553 146.949 163.975 140.32 160.379 134.612C156.783 128.904 151.834 112.8 151.094 109.364C150.353 105.928 148.367 103.082 146.263 102.626C144.159 102.171 138.465 102.166 135.985 101.71C133.505 101.255 130.043 97.4876 128.433 92.6904L122.841 101.71Z" fill="#275F7A" stroke="#022C40" stroke-miterlimit="10"/>
<path d="M118.397 112.339C119.024 111.112 119.508 110.275 119.508 110.275" stroke="#022C40" stroke-miterlimit="10"/>
<path d="M113.566 137.682C113.566 137.682 115.053 122.954 115.67 119.414C116.061 117.663 116.656 115.957 117.447 114.325" stroke="#022C40" stroke-miterlimit="10"/>
<path d="M143.392 116.19C143.209 115.379 143.038 114.582 142.898 113.815" stroke="#022C40" stroke-miterlimit="10"/>
<path d="M147.482 129.691C147.482 129.691 145.426 124.072 143.939 118.399" stroke="#022C40" stroke-miterlimit="10"/>
<path d="M121.617 105.775C122.213 106.953 124.123 109.334 129.915 109.24C136.747 109.136 139.753 104.785 140.858 102.136C139.225 102.075 137.596 101.93 135.98 101.701C133.505 101.245 130.038 97.4778 128.428 92.6807L122.841 101.711C122.841 101.711 125.32 103.998 124.945 104.795C124.773 105.166 123.281 105.443 121.617 105.775Z" fill="white" stroke="#022C40" stroke-miterlimit="10"/>
<path d="M127.473 95.9429L125.787 96.933L122.841 101.695C123.542 102.346 124.165 103.064 124.698 103.839C127.473 100.794 127.473 95.9429 127.473 95.9429Z" fill="#022C40" stroke="#022C40" stroke-linejoin="round"/>
<path d="M108.483 90.8689C108.483 90.8689 110.834 94.6363 111.451 96.3493C112.356 98.4483 114.079 100.159 116.282 101.146C118.509 102.057 119.626 102.859 121.606 102.973C124.445 103.137 126.555 99.4335 127.671 96.577C128.787 93.7205 128.787 93.265 128.787 93.265C128.787 93.265 130.516 90.8689 130.516 88.354C130.516 85.8391 127.424 82.9876 123.957 81.5024C120.49 80.0172 118.139 77.8489 114.548 80.8192C110.958 83.7896 108.483 90.8689 108.483 90.8689Z" fill="white" stroke="#022C40" stroke-miterlimit="10"/>
<path d="M114.672 94.5171C114.935 95.1784 115.101 95.8692 115.165 96.5711C115.165 97.3728 116.282 97.7143 117.269 96.0019" stroke="#022C40" stroke-miterlimit="10"/>
<path d="M117.516 98.294C117.516 98.294 120.613 98.7494 121.23 95.3245" stroke="#022C40" stroke-miterlimit="10"/>
<path d="M118.15 90.5566C118.439 91.012 118.45 91.502 118.15 91.6554C117.849 91.8088 117.409 91.5564 117.119 91.1011C116.829 90.6457 116.824 90.1508 117.119 90.0023C117.414 89.8538 117.86 90.1013 118.15 90.5566Z" fill="#022C40"/>
<path d="M113.153 92.8486C113.443 93.3039 113.453 93.7989 113.153 93.9473C112.852 94.0958 112.412 93.8484 112.128 93.393C111.843 92.9377 111.827 92.4428 112.128 92.2943C112.428 92.1458 112.868 92.3834 113.153 92.8486Z" fill="#022C40"/>
<path d="M114.602 89.0318C114.602 89.0318 115.139 87.2402 118.622 87.4778" stroke="#022C40" stroke-miterlimit="10"/>
<path d="M112.004 90.8291C112.004 90.8291 110.061 90.8291 110.19 92.2644" stroke="#022C40" stroke-miterlimit="10"/>
<path d="M117.393 82.6408C117.393 82.6408 115.783 84.3538 113.926 86.0667C112.069 87.7796 108.977 90.2945 108.977 93.3737C108.977 96.453 109.1 96.7995 109.1 96.7995C109.1 96.7995 103.776 94.2896 102.289 90.8588C100.803 87.4281 104.147 79.5517 108.231 76.007C112.315 72.4624 117.146 71.7842 122.47 72.1258C127.795 72.4674 133.119 77.3784 134.482 82.2894C135.845 87.2003 133.119 92.5668 132.249 93.4777C131.38 94.3886 128.659 94.5074 128.659 94.5074C129.24 92.7707 129.368 90.9322 129.034 89.141C128.412 86.5122 126.678 87.0865 126.431 88.2251C126.184 89.3638 126.061 89.8242 126.061 89.8242C126.061 89.8242 123.587 88.2251 120.984 86.5122C119.452 85.5213 118.217 84.1896 117.393 82.6408Z" fill="#022C40" stroke="#022C40" stroke-linejoin="round"/>
<path d="M93.8736 128.781L97.212 124.211L98.8222 125.696L93.8736 128.781Z" fill="#275F7A" stroke="#022C40" stroke-linejoin="round"/>
<path d="M105.676 122.043L97.899 122.072L90.4868 108.904L98.264 108.874L105.676 122.043Z" fill="#022C40" stroke="#022C40" stroke-linejoin="round"/>
<path d="M91.7697 115.3C91.7697 115.3 93.7502 117.013 93.8736 117.815C93.9971 118.617 94.9846 121.696 95.4838 123.181C95.9829 124.667 97.8346 126.266 97.8346 126.266L99.4448 124.78L98.8222 122.266C99.416 121.78 100.036 121.322 100.679 120.894C101.425 120.439 102.289 119.181 101.796 119.181C101.421 119.192 101.047 119.232 100.679 119.3C100.679 119.3 101.796 117.701 101.055 117.587C100.563 117.513 100.066 117.474 99.5683 117.468C99.5683 117.468 100.803 116.102 99.8152 115.983C98.8276 115.864 95.355 117.582 95.355 117.582L93.8736 115.523C93.5576 115.356 93.2082 115.25 92.8465 115.212C92.4848 115.174 92.1184 115.204 91.7697 115.3Z" fill="white" stroke="#022C40" stroke-linejoin="round"/>
<path d="M92.1775 114.547C92.0715 114.632 91.9932 114.742 91.9515 114.866C91.9097 114.989 91.9063 115.121 91.9414 115.246C91.9766 115.371 92.049 115.484 92.1505 115.574C92.252 115.663 92.3785 115.724 92.5157 115.75C92.7436 115.824 92.9885 115.843 93.2264 115.804C93.4644 115.765 93.6873 115.67 93.8736 115.528C94.4908 114.844 96.9651 113.018 96.9651 112.102C96.9651 111.186 95.8541 112.216 95.355 112.448C94.2387 113.071 93.1764 113.773 92.1775 114.547Z" fill="white" stroke="#022C40" stroke-linejoin="round"/>
<path d="M99.5682 117.469C99.5682 117.469 95.854 119.181 95.2314 119.869" stroke="#022C40" stroke-linejoin="round"/>
<path d="M100.685 119.3C100.685 119.3 97.7165 120.552 96.7236 121.582" stroke="#022C40" stroke-linejoin="round"/>
<path d="M100.926 125.35L99.1979 123.979L93.8736 128.776L97.4643 131.291C97.4643 131.291 100.803 128.32 100.926 125.35Z" fill="#275F7A" stroke="#022C40" stroke-linejoin="round"/>
<path d="M135.164 151.9C135.164 151.9 129.415 164.38 128.138 169.583C126.861 174.786 124.435 184.658 124.435 185.247" stroke="#757575" stroke-linejoin="round"/>
<path d="M126.861 155.435L130.183 158.963" stroke="#757575" stroke-linejoin="round"/>
<path d="M119.33 212.317C119.33 212.317 118.563 213.847 114.86 214.55C111.156 215.253 107.71 213.965 107.072 214.079C106.433 214.193 105.794 215.258 105.794 216.203C105.794 217.149 110.265 219.733 112.052 220.56C113.476 221.118 114.984 221.475 116.523 221.619H117.157L117.033 222.797C118.071 223.179 119.136 223.493 120.221 223.738C121.197 223.871 122.188 223.871 123.163 223.738C123.551 222.232 123.765 220.692 123.801 219.144C123.888 217.525 124.277 215.933 124.95 214.436L119.33 212.317Z" fill="#616161" stroke="#022C40" stroke-linejoin="round"/>
<path d="M123.549 221.896C121.032 221.594 116.389 220.906 113.571 219.916C110.587 218.876 107.243 216.758 105.826 215.817C105.805 215.94 105.794 216.064 105.794 216.188C105.794 217.129 110.265 219.718 112.052 220.545C113.476 221.103 114.984 221.461 116.523 221.604H117.157L117.033 222.782C118.071 223.164 119.136 223.478 120.221 223.723C121.197 223.856 122.188 223.856 123.163 223.723C123.163 223.723 123.367 222.971 123.549 221.896Z" stroke="#022C40" stroke-linejoin="round"/>
</svg>
