<svg width="70" height="70" viewBox="0 0 70 70" fill="none" xmlns="http://www.w3.org/2000/svg">
<path d="M61.25 37.9167C61.2441 41.8355 60.3609 45.7033 58.6651 49.2362C56.9693 52.7691 54.5039 55.8776 51.45 58.3334H18.55C15.0911 55.5518 12.3939 51.9386 10.7107 47.8315C9.02752 43.7244 8.41326 39.2575 8.92536 34.8485C9.43746 30.4396 11.0592 26.2324 13.6389 22.6204C16.2187 19.0085 19.6722 16.1096 23.6767 14.195C27.6811 12.2803 32.1056 11.4123 36.5366 11.6721C40.9677 11.9319 45.2604 13.3111 49.0137 15.6806C52.7669 18.0502 55.8579 21.3328 57.9979 25.2215C60.1378 29.1102 61.2567 33.4781 61.25 37.9167V37.9167Z" stroke="white" stroke-width="4" stroke-linecap="round" stroke-linejoin="round"/>
<path d="M46.6667 26.25L35 43.75M37.9167 43.75C37.9167 44.3269 37.7456 44.8908 37.4252 45.3704C37.1047 45.8501 36.6492 46.2239 36.1162 46.4446C35.5833 46.6654 34.9968 46.7232 34.431 46.6106C33.8653 46.4981 33.3456 46.2203 32.9376 45.8124C32.5297 45.4045 32.252 44.8848 32.1394 44.319C32.0269 43.7532 32.0846 43.1668 32.3054 42.6338C32.5261 42.1009 32.9 41.6454 33.3796 41.3249C33.8593 41.0044 34.4232 40.8333 35 40.8333C35.7736 40.8333 36.5155 41.1406 37.0624 41.6876C37.6094 42.2346 37.9167 42.9765 37.9167 43.75Z" stroke="white" stroke-width="4" stroke-linecap="round" stroke-linejoin="round"/>
</svg>
