<svg width="40" height="41" viewBox="0 0 40 41" fill="none" xmlns="http://www.w3.org/2000/svg">
<g clip-path="url(#clip0_2_1026)">
<path d="M34.3185 6.49342C30.6546 2.90878 25.7843 0.934937 20.6024 0.934937C20.6021 0.934937 20.6008 0.934937 20.6005 0.934937C18.0377 0.935235 15.5401 1.42071 13.1777 2.37822C10.8151 3.33574 8.69837 4.72021 6.88593 6.49342C3.2223 10.0778 1.20478 14.8435 1.20478 19.9127C1.20478 22.9357 1.95033 25.9399 3.36298 28.6166L0.102486 37.7295C-0.127311 38.3724 0.0353478 39.071 0.527901 39.5526C0.872445 39.89 1.32594 40.0691 1.79224 40.0691C1.99214 40.0691 2.19416 40.0363 2.3913 39.9688L11.7059 36.7792C14.4418 38.1613 17.5125 38.8907 20.6024 38.8907C25.7836 38.8907 30.6546 36.9165 34.3185 33.3322C37.9821 29.7479 40 24.9821 40 19.913C40 14.8435 37.9824 10.0778 34.3185 6.49342ZM32.6596 31.7092C29.439 34.8603 25.1568 36.5953 20.6024 36.5953C17.8161 36.5953 15.0482 35.9211 12.5976 34.645C12.1533 34.4139 11.6281 34.3742 11.1566 34.5357L2.69404 37.4334L5.65608 29.154C5.82118 28.6921 5.78028 28.1783 5.54408 27.7439C4.24006 25.3469 3.55067 22.6389 3.55067 19.9127C3.55067 15.4568 5.32435 11.2673 8.54487 8.11645C11.7651 4.96593 16.0467 3.23064 20.6008 3.23005H20.6024C25.1571 3.23005 29.439 4.96534 32.6596 8.11645C35.8804 11.2673 37.6541 15.4565 37.6541 19.9127C37.6541 24.3688 35.8804 28.5584 32.6596 31.7092Z" fill="white"/>
<path d="M27.8113 21.6079C26.9189 20.7349 25.4669 20.7349 24.5746 21.6079L23.5986 22.5627C21.1752 21.2708 19.2142 19.3522 17.8934 16.9813L18.8693 16.0264C19.762 15.1534 19.762 13.7328 18.8693 12.8598L16.2393 10.2867C15.347 9.4137 13.895 9.4137 13.0026 10.2867L10.8987 12.3451C9.69361 13.5241 9.63349 15.5511 10.7294 18.0528C11.6809 20.2249 13.4222 22.6123 15.6326 24.7748C17.843 26.9374 20.2832 28.641 22.5034 29.572C23.7183 30.0813 24.8233 30.3354 25.7782 30.3354C26.8332 30.3354 27.7048 30.0252 28.3374 29.4063L30.4413 27.3476V27.3479C30.8737 26.9248 31.1118 26.3626 31.1118 25.7646C31.1118 25.1663 30.8737 24.6041 30.4413 24.1813L27.8113 21.6079ZM26.6785 27.7832C26.3345 28.1197 25.2768 28.2377 23.4277 27.4626C21.4752 26.6439 19.296 25.1128 17.2916 23.1518C15.2872 21.1908 13.7225 19.059 12.8857 17.1488C12.0932 15.3397 12.2137 14.3046 12.5577 13.9681L14.6213 11.9492L17.1701 14.4431L15.9485 15.6386C15.3961 16.179 15.2628 16.9986 15.6171 17.6781C17.2232 20.7594 19.7369 23.2187 22.8864 24.7901C23.5812 25.1367 24.4189 25.0065 24.9713 24.4658L26.1929 23.2706L28.7421 25.7646L26.6785 27.7832Z" fill="white"/>
</g>
<defs>
<clipPath id="clip0_2_1026">
<rect width="40" height="39.1342" fill="white" transform="translate(0 0.934937)"/>
</clipPath>
</defs>
</svg>
